<svg width="21" height="20" viewBox="0 0 21 20" fill="none" xmlns="http://www.w3.org/2000/svg">
<ellipse cx="10.369" cy="10" rx="9.90369" ry="10" fill="#A23232"/>
<path d="M14.2753 6.06513C13.5993 5.38326 12.6829 5.00024 11.7273 5.00024C10.7718 5.00024 9.85538 5.38326 9.17937 6.06513C8.42445 6.82632 7.83528 7.75015 7.83528 9.12515V10.9692L6.97098 11.8412C6.76459 12.0494 6.46033 12.079 6.1884 11.9701C5.91382 11.8594 5.60982 11.8478 5.32775 11.9373C5.04568 12.0267 4.80283 12.2117 4.64025 12.4611C4.47766 12.7104 4.40529 13.0088 4.43538 13.3057C4.46546 13.6027 4.59615 13.8801 4.80536 14.0911C5.13027 14.4187 5.5822 14.5113 5.99946 14.4148C5.90371 14.8359 5.99563 15.292 6.32075 15.6201C6.52958 15.8319 6.80448 15.9644 7.09892 15.9951C7.39336 16.0258 7.68926 15.9528 7.93654 15.7885C8.18383 15.6243 8.36732 15.3788 8.45596 15.0936C8.54459 14.8084 8.53294 14.5011 8.42296 14.2236C8.31466 13.9501 8.34381 13.6435 8.55062 13.4341L9.4147 12.5627H11.2422C11.69 12.566 12.1351 12.4934 12.5591 12.3478C11.7156 11.4049 11.7116 9.97958 12.5814 9.10216C13.3129 8.36396 14.4275 8.25439 15.3207 8.74123C15.3483 7.77529 15.0056 6.80162 14.2753 6.06513Z" fill="white"/>
</svg>
