<svg width="20" height="20" viewBox="0 0 20 20" fill="none" xmlns="http://www.w3.org/2000/svg">
<ellipse cx="9.90369" cy="10" rx="9.90369" ry="10" fill="#A23232"/>
<path d="M14.675 4.5H5.325C5.1062 4.5 4.89635 4.60865 4.74164 4.80205C4.58692 4.99544 4.5 5.25775 4.5 5.53125V12.4062C4.5 12.6798 4.58692 12.9421 4.74164 13.1355C4.89635 13.3289 5.1062 13.4375 5.325 13.4375H9.45V14.125H6.425C6.35207 14.125 6.28212 14.1612 6.23055 14.2257C6.17897 14.2901 6.15 14.3776 6.15 14.4688V15.1562C6.15 15.2474 6.17897 15.3349 6.23055 15.3993C6.28212 15.4638 6.35207 15.5 6.425 15.5H13.575C13.6479 15.5 13.7179 15.4638 13.7695 15.3993C13.821 15.3349 13.85 15.2474 13.85 15.1562V14.4688C13.85 14.3776 13.821 14.2901 13.7695 14.2257C13.7179 14.1612 13.6479 14.125 13.575 14.125H10.55V13.4375H14.675C14.8938 13.4375 15.1036 13.3289 15.2584 13.1355C15.4131 12.9421 15.5 12.6798 15.5 12.4062V5.53125C15.5 5.25775 15.4131 4.99544 15.2584 4.80205C15.1036 4.60865 14.8938 4.5 14.675 4.5ZM14.4 12.0625H5.6V5.875H14.4V12.0625Z" fill="white"/>
</svg>
