<svg width="20" height="20" viewBox="0 0 20 20" fill="none" xmlns="http://www.w3.org/2000/svg">
<ellipse cx="9.90369" cy="10" rx="9.90369" ry="10" fill="#A23232"/>
<path d="M15.8901 5.70083L14.2991 4.10987C14.1527 3.96338 13.9152 3.96338 13.7687 4.10987L13.2383 4.64027C13.0919 4.78675 13.0919 5.02418 13.2383 5.17067L11.4414 6.96766C10.3496 6.50593 9.04132 6.71617 8.15138 7.60587L4.43928 11.318C3.85357 11.9037 3.85357 12.8536 4.43928 13.4393L6.56065 15.5607C7.14636 16.1464 8.0963 16.1464 8.68201 15.5607L12.3943 11.8484C13.284 10.9587 13.4943 9.65013 13.0326 8.55839L14.8295 6.7614C14.976 6.90789 15.2135 6.90789 15.3599 6.7614L15.8903 6.231C16.0366 6.08475 16.0366 5.84732 15.8901 5.70083ZM8.20036 13.921L6.079 11.7996L8.93936 8.93926L11.0607 11.0606L8.20036 13.921Z" fill="white"/>
</svg>
