<svg width="20" height="20" viewBox="0 0 20 20" fill="none" xmlns="http://www.w3.org/2000/svg">
<ellipse cx="9.90369" cy="10" rx="9.90369" ry="10" fill="#A23232"/>
<path d="M16.8709 9.53758L15.4444 8.32281V5.125C15.4444 5.02554 15.4035 4.93016 15.3305 4.85983C15.2576 4.78951 15.1587 4.75 15.0556 4.75H13.5C13.3969 4.75 13.2979 4.78951 13.225 4.85983C13.1521 4.93016 13.1111 5.02554 13.1111 5.125V6.33602L10.6509 4.24141C10.4983 4.10805 10.2073 4 10 4C9.79267 4 9.50271 4.10805 9.35007 4.24141L3.12785 9.53828C3.05118 9.61297 3.00568 9.71224 3 9.81719C3.00497 9.90885 3.03975 9.99668 3.09941 10.0682L3.61979 10.6258C3.70089 10.696 3.80304 10.7395 3.91146 10.75C4.00546 10.7409 4.0952 10.7077 4.17128 10.6537L4.55774 10.3255V15.25C4.55774 15.4489 4.63969 15.6397 4.78555 15.7803C4.93141 15.921 5.12924 16 5.33552 16H14.6667C14.8729 16 15.0708 15.921 15.2166 15.7803C15.3625 15.6397 15.4444 15.4489 15.4444 15.25V10.3253L15.8311 10.6534C15.9076 10.7074 15.9975 10.7407 16.0917 10.75C16.1992 10.7392 16.3002 10.6956 16.3802 10.6255L16.9006 10.0675C16.9564 9.9941 16.9908 9.90756 17 9.81695C16.9888 9.71298 16.9436 9.61512 16.8709 9.53758ZM10 8.125C10.3077 8.125 10.6084 8.21297 10.8642 8.3778C11.12 8.54262 11.3194 8.77689 11.4371 9.05097C11.5549 9.32506 11.5857 9.62666 11.5257 9.91764C11.4656 10.2086 11.3175 10.4759 11.0999 10.6857C10.8824 10.8954 10.6052 11.0383 10.3035 11.0962C10.0017 11.1541 9.68896 11.1244 9.40472 11.0108C9.12047 10.8973 8.87753 10.705 8.7066 10.4584C8.53568 10.2117 8.44444 9.92167 8.44444 9.625C8.44444 9.22718 8.60833 8.84564 8.90006 8.56434C9.19178 8.28304 9.58744 8.125 10 8.125ZM12.7222 14.5H7.27778C7.17464 14.5 7.07572 14.4605 7.00279 14.3902C6.92986 14.3198 6.88889 14.2245 6.88889 14.125C6.88889 13.5283 7.13472 12.956 7.57231 12.534C8.00989 12.1121 8.60338 11.875 9.22222 11.875H10.7778C11.3966 11.875 11.9901 12.1121 12.4277 12.534C12.8653 12.956 13.1111 13.5283 13.1111 14.125C13.1111 14.2245 13.0701 14.3198 12.9972 14.3902C12.9243 14.4605 12.8254 14.5 12.7222 14.5Z" fill="white"/>
</svg>
