<svg width="20" height="20" viewBox="0 0 20 20" fill="none" xmlns="http://www.w3.org/2000/svg">
<ellipse cx="9.90369" cy="10" rx="9.90369" ry="10" fill="#A23232"/>
<path d="M13.4286 7.75V7C13.4286 5.34578 11.8905 4 10 4C8.10946 4 6.57143 5.34578 6.57143 7V7.75H4V14.125C4 15.1605 4.95938 16 6.14286 16H13.8571C15.0406 16 16 15.1605 16 14.125V7.75H13.4286ZM8.28571 7C8.28571 6.17289 9.05473 5.5 10 5.5C10.9453 5.5 11.7143 6.17289 11.7143 7V7.75H8.28571V7ZM12.5714 9.8125C12.2164 9.8125 11.9286 9.56066 11.9286 9.25C11.9286 8.93934 12.2164 8.6875 12.5714 8.6875C12.9265 8.6875 13.2143 8.93934 13.2143 9.25C13.2143 9.56066 12.9265 9.8125 12.5714 9.8125ZM7.42857 9.8125C7.07353 9.8125 6.78571 9.56066 6.78571 9.25C6.78571 8.93934 7.07353 8.6875 7.42857 8.6875C7.78362 8.6875 8.07143 8.93934 8.07143 9.25C8.07143 9.56066 7.78362 9.8125 7.42857 9.8125Z" fill="white"/>
</svg>
