<svg width="20" height="20" viewBox="0 0 20 20" fill="none" xmlns="http://www.w3.org/2000/svg">
<ellipse cx="9.90369" cy="10" rx="9.90369" ry="10" fill="#A23232"/>
<path d="M10 10C11.8938 10 13.4286 8.65703 13.4286 7C13.4286 5.34297 11.8938 4 10 4C8.10625 4 6.57143 5.34297 6.57143 7C6.57143 8.65703 8.10625 10 10 10ZM12.4 10.75H11.9527C11.358 10.9891 10.6964 11.125 10 11.125C9.30357 11.125 8.64464 10.9891 8.04732 10.75H7.6C5.6125 10.75 4 12.1609 4 13.9V14.875C4 15.4961 4.57589 16 5.28571 16H14.7143C15.4241 16 16 15.4961 16 14.875V13.9C16 12.1609 14.3875 10.75 12.4 10.75Z" fill="white"/>
</svg>
