<svg width="20" height="20" viewBox="0 0 20 20" fill="none" xmlns="http://www.w3.org/2000/svg">
<ellipse cx="9.90369" cy="10" rx="9.90369" ry="10" fill="#A23232"/>
<path d="M10.9167 7.42188V4.5H5.1875C4.80651 4.5 4.5 4.72988 4.5 5.01562V14.9844C4.5 15.2701 4.80651 15.5 5.1875 15.5H14.8125C15.1935 15.5 15.5 15.2701 15.5 14.9844V7.9375H11.6042C11.226 7.9375 10.9167 7.70547 10.9167 7.42188ZM6.33333 6.04688C6.33333 5.95191 6.43589 5.875 6.5625 5.875H8.85417C8.98078 5.875 9.08333 5.95191 9.08333 6.04688V6.39062C9.08333 6.48559 8.98078 6.5625 8.85417 6.5625H6.5625C6.43589 6.5625 6.33333 6.48559 6.33333 6.39062V6.04688ZM6.33333 7.42188C6.33333 7.32691 6.43589 7.25 6.5625 7.25H8.85417C8.98078 7.25 9.08333 7.32691 9.08333 7.42188V7.76562C9.08333 7.86059 8.98078 7.9375 8.85417 7.9375H6.5625C6.43589 7.9375 6.33333 7.86059 6.33333 7.76562V7.42188ZM11.8565 12.75H13.2083C13.4616 12.75 13.6667 12.9038 13.6667 13.0938C13.6667 13.2837 13.4616 13.4375 13.2083 13.4375H11.8565C11.3853 13.4375 10.9608 13.2411 10.7497 12.9249C10.6652 12.7977 10.5179 12.7848 10.4583 12.7848C10.3988 12.7848 10.2515 12.7975 10.1713 12.9178L9.95159 13.2474C9.91354 13.3045 9.85503 13.3525 9.78263 13.386C9.71022 13.4196 9.62678 13.4373 9.54167 13.4373C9.53078 13.4373 9.52018 13.4369 9.50901 13.4362C9.32424 13.4265 9.16526 13.3342 9.10711 13.2022L8.625 12.1181L8.32107 12.8031C8.15234 13.1825 7.67997 13.4375 7.14659 13.4375H6.79167C6.53844 13.4375 6.33333 13.2837 6.33333 13.0938C6.33333 12.9038 6.53844 12.75 6.79167 12.75H7.14659C7.28495 12.75 7.40755 12.6838 7.45138 12.5854L7.97245 11.4115C8.06698 11.2008 8.3288 11.059 8.625 11.059C8.9212 11.059 9.18302 11.2005 9.27727 11.4115L9.67487 12.3061C10.2412 11.9583 11.2232 12.0977 11.5655 12.6104C11.6234 12.6976 11.7362 12.75 11.8565 12.75ZM15.2995 6.75586L12.4951 4.65039C12.3661 4.55371 12.1914 4.5 12.0081 4.5H11.8333V7.25H15.5V7.11895C15.5 6.98359 15.4284 6.85254 15.2995 6.75586Z" fill="white"/>
</svg>
