<svg width="20" height="20" viewBox="0 0 20 20" fill="none" xmlns="http://www.w3.org/2000/svg">
<ellipse cx="9.90369" cy="10" rx="9.90369" ry="10" fill="#A23232"/>
<path d="M15.6688 7.32297L10.4387 5.09121C10.1537 4.9696 9.84618 4.9696 9.56137 5.09121L4.33103 7.32297C3.88966 7.51125 3.88966 8.32192 4.33103 8.5102L5.24285 8.89926C5.04279 9.24275 4.91978 9.66175 4.9076 10.1206C4.72703 10.2644 4.59991 10.5237 4.59991 10.8334C4.59991 11.1141 4.70641 11.3503 4.85978 11.5013L4.3811 14.493C4.33947 14.7531 4.48197 15 4.67378 15H5.72585C5.91785 15 6.06035 14.7531 6.01873 14.493L5.54004 11.5013C5.69341 11.3503 5.79991 11.1141 5.79991 10.8334C5.79991 10.5321 5.6786 10.28 5.50629 10.1336C5.52054 9.74248 5.66454 9.39665 5.89423 9.17738L9.56118 10.7422C9.73105 10.8146 10.0569 10.905 10.4385 10.7422L15.6688 8.51046C16.1104 8.32192 16.1104 7.51151 15.6688 7.32297ZM10.6147 11.5388C10.0798 11.7669 9.62399 11.6409 9.38493 11.5388L6.66579 10.3787L6.39992 13.3333C6.39992 14.2539 8.01167 15 9.99993 15C11.9882 15 13.5999 14.2539 13.5999 13.3333L13.3341 10.3784L10.6147 11.5388Z" fill="white"/>
</svg>
