<svg width="20" height="20" viewBox="0 0 20 20" fill="none" xmlns="http://www.w3.org/2000/svg">
<ellipse cx="9.90369" cy="10" rx="9.90369" ry="10" fill="#A23232"/>
<path d="M11.505 9.96524L10.3402 12.2949C10.1996 12.5785 9.79174 12.5692 9.66283 12.2809L8.32924 9.32071L7.62612 11.0012H5.42066L9.69799 15.3723C9.8644 15.5434 10.1339 15.5434 10.3003 15.3723L14.58 11.0012H12.023L11.505 9.96524ZM15.1027 5.9832L15.0464 5.92461C13.8394 4.6918 11.8636 4.6918 10.6542 5.92461L10.0003 6.59492L9.34643 5.92695C8.1394 4.6918 6.16128 4.6918 4.95425 5.92695L4.898 5.9832C3.7566 7.15039 3.70738 9.00899 4.72691 10.2512H7.1269L7.96831 8.23086C8.09487 7.92852 8.52143 7.92149 8.65737 8.22149L10.0214 11.252L11.1699 8.95743C11.3081 8.68086 11.7019 8.68086 11.8402 8.95743L12.487 10.2512H15.2738C16.2933 9.00899 16.2441 7.15039 15.1027 5.9832Z" fill="white"/>
</svg>
