<svg width="20" height="20" viewBox="0 0 20 20" fill="none" xmlns="http://www.w3.org/2000/svg">
<ellipse cx="9.90369" cy="10" rx="9.90369" ry="10" fill="#A23232"/>
<path d="M11.0714 7.78906V5H6.16071C5.83415 5 5.57143 5.21943 5.57143 5.49219V10.25H4.19643C4.08839 10.25 4 10.3238 4 10.4141V10.7422C4 10.8324 4.08839 10.9062 4.19643 10.9062H7.65603C7.72969 10.9062 7.79844 10.9411 7.83281 10.9965L8.32143 11.8127L9.71607 9.48096C9.78728 9.35996 9.99598 9.35996 10.0672 9.48096L10.9192 10.9062H12.6429C12.8589 10.9062 13.0357 11.0539 13.0357 11.2344C13.0357 11.4148 12.8589 11.5625 12.6429 11.5625H10.4355L9.89286 10.6561L8.49821 12.9878C8.42701 13.1088 8.2183 13.1088 8.1471 12.9878L7.29263 11.5625H5.57143V15.0078C5.57143 15.2806 5.83415 15.5 6.16071 15.5H14.4107C14.7373 15.5 15 15.2806 15 15.0078V8.28125H11.6607C11.3366 8.28125 11.0714 8.05977 11.0714 7.78906ZM14.8281 7.15332L12.4243 5.14355C12.3138 5.05127 12.1641 5 12.0069 5H11.8571V7.625H15V7.4999C15 7.3707 14.9386 7.24561 14.8281 7.15332Z" fill="white"/>
</svg>
