<svg width="20" height="20" viewBox="0 0 20 20" fill="none" xmlns="http://www.w3.org/2000/svg">
<ellipse cx="9.90369" cy="10" rx="9.90369" ry="10" fill="#32A287"/>
<path d="M15.625 13.3333H5.5V5.41667C5.5 5.18646 5.33219 5 5.125 5H4.375C4.16781 5 4 5.18646 4 5.41667V14.1667C4 14.6268 4.33586 15 4.75 15H15.625C15.8322 15 16 14.8135 16 14.5833V13.75C16 13.5198 15.8322 13.3333 15.625 13.3333ZM14.875 5.83333H12.108C11.6069 5.83333 11.3559 6.50651 11.7102 6.90026L12.4696 7.74401L10.75 9.65495L9.03039 7.74427C8.73742 7.41875 8.26258 7.41875 7.96984 7.74427L6.35992 9.53307C6.21344 9.69583 6.21344 9.95964 6.35992 10.1224L6.89008 10.7115C7.03656 10.8742 7.27398 10.8742 7.42047 10.7115L8.5 9.51172L10.2196 11.4224C10.5126 11.7479 10.9874 11.7479 11.2802 11.4224L13.5302 8.9224L14.2895 9.76615C14.6439 10.1599 15.2498 9.88099 15.2498 9.32422V6.25C15.25 6.01979 15.0822 5.83333 14.875 5.83333Z" fill="white"/>
</svg>
