<svg width="20" height="20" viewBox="0 0 20 20" fill="none" xmlns="http://www.w3.org/2000/svg">
<ellipse cx="9.90369" cy="10" rx="9.90369" ry="10" fill="#A23232"/>
<path d="M15.9886 13.4686C15.8311 13.0702 15.3924 12.8808 15.0099 13.0467L14.5955 13.2264L13.8699 11.2365C14.768 10.553 15.0849 9.27779 14.5168 8.25256L12.8931 5.31356C12.7431 5.04211 12.4225 4.92885 12.1432 5.04797L10.0001 5.97361L7.8571 5.04797C7.57774 4.9269 7.25713 5.04211 7.10714 5.31356L5.48347 8.25256C4.91724 9.27779 5.23223 10.553 6.13031 11.2345L5.40472 13.2245L4.99036 13.0448C4.60788 12.8788 4.17103 13.0682 4.01166 13.4666C3.97979 13.5467 4.01541 13.6385 4.09228 13.6717L7.13526 14.9879C7.21213 15.0211 7.29838 14.9839 7.33025 14.9039C7.48775 14.5055 7.30775 14.0485 6.92527 13.8826L6.51092 13.7029L7.24963 11.6798C7.33213 11.6895 7.41462 11.7052 7.49525 11.7052C8.46458 11.7052 9.35891 11.0588 9.6214 10.0394L10.0001 8.56696L10.3789 10.0394C10.6413 11.0588 11.5357 11.7052 12.505 11.7052C12.5856 11.7052 12.6681 11.6895 12.7506 11.6798L13.4875 13.7029L13.0731 13.8826C12.6906 14.0485 12.5088 14.5055 12.6681 14.9039C12.7 14.9839 12.7881 15.0211 12.8631 14.9879L15.908 13.6717C15.983 13.6385 16.0205 13.5486 15.9886 13.4686ZM9.17329 8.16663L7.07152 7.25857L7.75586 6.02048L9.52765 6.78599L9.17329 8.16663ZM10.827 8.16663L10.4726 6.78599L12.2444 6.02048L12.9287 7.25857L10.827 8.16663Z" fill="white"/>
</svg>
