<svg width="20" height="20" viewBox="0 0 20 20" fill="none" xmlns="http://www.w3.org/2000/svg">
<ellipse cx="9.90369" cy="10" rx="9.90369" ry="10" fill="#A23232"/>
<path d="M14.0149 11.375H7.90775L8.04411 12.0625H13.6361C13.957 12.0625 14.1948 12.3697 14.1237 12.6924L14.0088 13.214C14.3982 13.4089 14.6667 13.8205 14.6667 14.2969C14.6667 14.9672 14.135 15.5095 13.4828 15.4999C12.8615 15.4907 12.3505 14.9707 12.3338 14.3301C12.3246 13.9802 12.4605 13.663 12.6838 13.4375H8.31617C8.53236 13.6559 8.66667 13.9601 8.66667 14.2969C8.66667 14.9804 8.114 15.5307 7.44438 15.4987C6.84979 15.4702 6.36623 14.9748 6.33498 14.3618C6.31085 13.8884 6.5524 13.4711 6.91938 13.2535L5.4559 5.875H4C3.72385 5.875 3.5 5.64415 3.5 5.35937V5.01562C3.5 4.73085 3.72385 4.5 4 4.5H6.13602C6.37354 4.5 6.57827 4.67233 6.62588 4.91229L6.81683 5.875H14.9998C15.3206 5.875 15.5585 6.18225 15.4874 6.5049L14.5025 10.9736C14.4508 11.2084 14.2484 11.375 14.0149 11.375ZM12 8.10937H11V7.25C11 7.06014 10.8508 6.90625 10.6667 6.90625H10.3333C10.1492 6.90625 10 7.06014 10 7.25V8.10937H9C8.8159 8.10937 8.66667 8.26327 8.66667 8.45312V8.79687C8.66667 8.98673 8.8159 9.14062 9 9.14062H10V10C10 10.1899 10.1492 10.3437 10.3333 10.3437H10.6667C10.8508 10.3437 11 10.1899 11 10V9.14062H12C12.1841 9.14062 12.3333 8.98673 12.3333 8.79687V8.45312C12.3333 8.26327 12.1841 8.10937 12 8.10937Z" fill="white"/>
</svg>
