<svg width="20" height="20" viewBox="0 0 20 20" fill="none" xmlns="http://www.w3.org/2000/svg">
<ellipse cx="9.90369" cy="10" rx="9.90369" ry="10" fill="#32A287"/>
<path d="M4.42857 6.83673H15.5714C15.8081 6.83673 16 6.65401 16 6.42857V5.40816C16 5.18273 15.8081 5 15.5714 5H4.42857C4.19187 5 4 5.18273 4 5.40816V6.42857C4 6.65401 4.19187 6.83673 4.42857 6.83673ZM4.42857 10.9184H15.5714C15.8081 10.9184 16 10.7356 16 10.5102V9.4898C16 9.26436 15.8081 9.08163 15.5714 9.08163H4.42857C4.19187 9.08163 4 9.26436 4 9.4898V10.5102C4 10.7356 4.19187 10.9184 4.42857 10.9184ZM4.42857 15H15.5714C15.8081 15 16 14.8173 16 14.5918V13.5714C16 13.346 15.8081 13.1633 15.5714 13.1633H4.42857C4.19187 13.1633 4 13.346 4 13.5714V14.5918C4 14.8173 4.19187 15 4.42857 15Z" fill="white"/>
</svg>
