<svg width="20" height="20" viewBox="0 0 20 20" fill="none" xmlns="http://www.w3.org/2000/svg">
<ellipse cx="9.90369" cy="10" rx="9.90369" ry="10" fill="#A23232"/>
<path d="M10.0001 9.2858C8.13896 9.2858 5.50016 12.0259 5.50016 13.7556C5.50016 14.5346 6.12852 15 7.18155 15C8.32623 15 9.08208 14.4402 10.0001 14.4402C10.9261 14.4402 11.6841 15 12.8187 15C13.8717 15 14.5001 14.5346 14.5001 13.7556C14.5001 12.0259 11.8613 9.2858 10.0001 9.2858ZM6.54828 9.00434C6.30453 8.23091 5.5536 7.73003 4.87111 7.88538C4.18862 8.04073 3.83307 8.79362 4.07682 9.56705C4.32057 10.3405 5.0715 10.8414 5.75399 10.686C6.43648 10.5307 6.79203 9.77776 6.54828 9.00434ZM8.53388 8.5405C9.25903 8.35881 9.62184 7.42579 9.34434 6.45661C9.06685 5.48743 8.25404 4.84927 7.52889 5.03096C6.80374 5.21265 6.44094 6.14568 6.71843 7.11486C6.99593 8.08404 7.80897 8.72242 8.53388 8.5405ZM15.1289 7.8856C14.4464 7.73025 13.6957 8.23113 13.4517 9.00456C13.208 9.77798 13.5635 10.5309 14.246 10.6862C14.9285 10.8416 15.6792 10.3407 15.9232 9.56727C16.1669 8.79385 15.8114 8.04096 15.1289 7.8856ZM11.4664 8.5405C12.1915 8.7222 13.0043 8.08404 13.2818 7.11486C13.5593 6.14568 13.1965 5.21288 12.4713 5.03096C11.7462 4.84904 10.9334 5.48743 10.6559 6.45661C10.3784 7.42579 10.7412 8.35881 11.4664 8.5405Z" fill="white"/>
</svg>
