<svg width="20" height="20" viewBox="0 0 20 20" fill="none" xmlns="http://www.w3.org/2000/svg">
<ellipse cx="9.90369" cy="10" rx="9.90369" ry="10" fill="#A23232"/>
<path d="M8.51125 8.79126C8.54688 8.18972 8.83563 7.596 9.33625 7.23273C9.23875 7.0218 9.03813 6.87532 8.8 6.87532H8.24875L8.82438 6.44565C8.95937 6.34605 8.99125 6.15074 8.89375 6.01012L8.71938 5.75623C8.62375 5.61561 8.43625 5.58241 8.30125 5.68396L7.70125 6.13121L7.91688 5.53358C7.975 5.37148 7.89625 5.1918 7.74063 5.13125L7.45938 5.02188C7.30375 4.96134 7.13125 5.04336 7.07313 5.20547L6.7 6.24058L6.32687 5.20351C6.26875 5.04141 6.09625 4.95938 5.94063 5.01993L5.65938 5.1293C5.50375 5.18984 5.425 5.37148 5.485 5.53163L5.70063 6.12926L5.09875 5.68396C4.96375 5.58436 4.77625 5.61561 4.68063 5.75623L4.50625 6.01012C4.41063 6.15074 4.44063 6.34605 4.57563 6.44565L5.15125 6.87532H4.6C4.26812 6.87532 4 7.15461 4 7.5003V14.375C4 14.7207 4.26812 15 4.6 15H7.76688C7.66375 14.8145 7.6 14.6035 7.6 14.375V10.0002C7.6 9.41624 7.99 8.92602 8.51125 8.79126ZM8.2 14.375C8.2 14.7207 8.46813 15 8.8 15H11.8V12.5001H8.2V14.375ZM12.4 15H15.4C15.7319 15 16 14.7207 16 14.375V12.5001H12.4V15ZM15.4 9.37522H15.0175C15.0662 9.22679 15.1 9.0725 15.1 8.9104C15.1 8.21707 14.5938 7.5003 13.7481 7.5003C12.8463 7.5003 12.325 8.4319 12.1 8.97094C11.8731 8.4319 11.3519 7.5003 10.4519 7.5003C9.60625 7.5003 9.1 8.21707 9.1 8.9104C9.1 9.0725 9.13188 9.22679 9.1825 9.37522H8.8C8.46813 9.37522 8.2 9.65451 8.2 10.0002V11.8751H11.8V9.37522H12.0869L12.1 9.37132L12.1131 9.37522H12.4V11.8751H16V10.0002C16 9.65451 15.7319 9.37522 15.4 9.37522ZM10.3 9.37522C10.2494 9.34788 10.2044 9.31663 10.165 9.28148C10.0281 9.15648 10 9.01196 10 8.9104C10 8.72095 10.12 8.43776 10.4519 8.43776C10.8025 8.43776 11.1194 8.9729 11.2863 9.37522H10.3ZM14.035 9.28148C13.9956 9.31663 13.9506 9.34788 13.9 9.37522H12.9138C13.0788 8.97875 13.3975 8.43776 13.7481 8.43776C14.08 8.43776 14.2 8.72095 14.2 8.9104C14.2 9.01196 14.1719 9.15648 14.035 9.28148Z" fill="white"/>
</svg>
