<svg width="20" height="20" viewBox="0 0 20 20" fill="none" xmlns="http://www.w3.org/2000/svg">
<ellipse cx="9.90369" cy="10" rx="9.90369" ry="10" fill="#A23232"/>
<path d="M15.8346 6.88477L12.1844 5C11.8076 5.54297 10.9733 5.92188 10.0003 5.92188C9.02734 5.92188 8.19307 5.54297 7.81625 5L4.16611 6.88477C4.018 6.96289 3.95801 7.15039 4.03113 7.30469L5.10348 9.54102C5.17847 9.69531 5.35845 9.75781 5.50655 9.68164L6.56766 9.14062C6.76639 9.03906 6.99886 9.18945 6.99886 9.42188V14.375C6.99886 14.7207 7.26695 15 7.59878 15H12.3981C12.73 15 12.9981 14.7207 12.9981 14.375V9.41992C12.9981 9.18945 13.2305 9.03711 13.4293 9.13867L14.4904 9.67969C14.6385 9.75781 14.8184 9.69531 14.8934 9.53906L15.9677 7.30469C16.0427 7.15039 15.9827 6.96094 15.8346 6.88477Z" fill="white"/>
</svg>
