<svg width="20" height="20" viewBox="0 0 20 20" fill="none" xmlns="http://www.w3.org/2000/svg">
<ellipse cx="9.90369" cy="10" rx="9.90369" ry="10" fill="#A23232"/>
<path d="M14.4789 7.40578C13.6773 7.41652 13.0188 8.01597 13.0023 8.75078C12.9906 9.27288 13.2953 9.73052 13.7523 9.97116V12.3904C13.7523 13.6216 12.5758 14.6249 11.1273 14.6249C9.72109 14.6249 8.56797 13.6774 8.50469 12.4936C10.2109 12.1713 11.5 10.7833 11.5 9.12463V5.78577C11.5 5.54084 11.3102 5.32813 11.0477 5.28086L9.57344 5.01014C9.26875 4.95428 8.97344 5.13476 8.9125 5.41407L8.8375 5.75139C8.77656 6.03071 8.97344 6.30142 9.27812 6.35729L9.99766 6.48835V9.09669C9.99766 10.2333 9.00859 11.1743 7.76875 11.1851C6.51719 11.1958 5.49766 10.2677 5.49766 9.12248V6.4905L6.21719 6.35943C6.52187 6.30357 6.71875 6.03285 6.65781 5.75354L6.58516 5.41622C6.52422 5.13691 6.22891 4.95643 5.92422 5.01229L4.45234 5.27871C4.18984 5.32813 4 5.53869 4 5.78577V9.12463C4 10.7855 5.29141 12.1756 7.00234 12.4936C7.06328 14.4359 8.88906 16 11.125 16C13.3984 16 15.25 14.38 15.25 12.3904V9.97116C15.6977 9.73267 16 9.29006 16 8.78086C16 8.01382 15.3156 7.39504 14.4789 7.40578ZM14.5 9.12463C14.2937 9.12463 14.125 8.96993 14.125 8.78086C14.125 8.59178 14.2937 8.43709 14.5 8.43709C14.7063 8.43709 14.875 8.59178 14.875 8.78086C14.875 8.96993 14.7063 9.12463 14.5 9.12463Z" fill="white"/>
</svg>
