<svg width="20" height="20" viewBox="0 0 20 20" fill="none" xmlns="http://www.w3.org/2000/svg">
<ellipse cx="9.90369" cy="10" rx="9.90369" ry="10" fill="#A23232"/>
<path d="M11.5 12.125C11.5 12.3322 11.3322 12.5 11.125 12.5H8.875C8.66781 12.5 8.5 12.3322 8.5 12.125V11H4V14.375C4 14.975 4.525 15.5 5.125 15.5H14.875C15.475 15.5 16 14.975 16 14.375V11H11.5V12.125ZM14.875 7.25H13V6.125C13 5.525 12.475 5 11.875 5H8.125C7.525 5 7 5.525 7 6.125V7.25H5.125C4.525 7.25 4 7.775 4 8.375V10.25H16V8.375C16 7.775 15.475 7.25 14.875 7.25ZM11.5 7.25H8.5V6.5H11.5V7.25Z" fill="white"/>
</svg>
