<svg width="20" height="20" viewBox="0 0 20 20" fill="none" xmlns="http://www.w3.org/2000/svg">
<ellipse cx="9.90369" cy="10" rx="9.90369" ry="10" fill="#A23232"/>
<path d="M15.4375 7H15.25V5.875C15.25 4.825 12.925 4 10 4C7.075 4 4.75 4.825 4.75 5.875V7H4.5625C4.25195 7 4 7.25172 4 7.5625V9.4375C4 9.74805 4.25195 10 4.5625 10H4.75V13.75C4.75 14.1641 5.08586 14.5 5.5 14.5V15.25C5.5 15.6641 5.83586 16 6.25 16H7C7.41414 16 7.75 15.6641 7.75 15.25V14.5H12.25V15.25C12.25 15.6641 12.5859 16 13 16H13.75C14.1641 16 14.5 15.6641 14.5 15.25V14.5H14.65C15.025 14.5 15.25 14.2 15.25 13.9V10H15.4375C15.748 10 16 9.74805 16 9.4375V7.5625C16 7.25172 15.748 7 15.4375 7ZM7.75 5.6875C7.75 5.58391 7.83391 5.5 7.9375 5.5H12.0625C12.1661 5.5 12.25 5.58391 12.25 5.6875V6.0625C12.25 6.16609 12.1661 6.25 12.0625 6.25H7.9375C7.83391 6.25 7.75 6.16609 7.75 6.0625V5.6875ZM6.625 13.375C6.21086 13.375 5.875 13.0391 5.875 12.625C5.875 12.2109 6.21086 11.875 6.625 11.875C7.03914 11.875 7.375 12.2109 7.375 12.625C7.375 13.0391 7.03914 13.375 6.625 13.375ZM9.625 10.75H7C6.58586 10.75 6.25 10.4141 6.25 10V7.75C6.25 7.33586 6.58586 7 7 7H9.625V10.75ZM10.375 10.75V7H13C13.4141 7 13.75 7.33586 13.75 7.75V10C13.75 10.4141 13.4141 10.75 13 10.75H10.375ZM13.375 13.375C12.9609 13.375 12.625 13.0391 12.625 12.625C12.625 12.2109 12.9609 11.875 13.375 11.875C13.7891 11.875 14.125 12.2109 14.125 12.625C14.125 13.0391 13.7891 13.375 13.375 13.375Z" fill="white"/>
</svg>
