<svg width="20" height="20" viewBox="0 0 20 20" fill="none" xmlns="http://www.w3.org/2000/svg">
<ellipse cx="9.90369" cy="10" rx="9.90369" ry="10" fill="#A23232"/>
<path d="M14 8.75H11.6189L9.42934 5.15742C9.40015 5.10959 9.35799 5.06984 9.30714 5.0422C9.25628 5.01455 9.19854 5 9.13976 5H7.77517C7.55371 5 7.39392 5.19863 7.45475 5.39824L8.47622 8.75H6.33329L5.43328 7.625C5.37037 7.54629 5.27141 7.5 5.16662 7.5H4.33349C4.11661 7.5 3.95744 7.69102 4.01015 7.88828L4.66661 10L4.01015 12.1117C3.95744 12.309 4.11661 12.5 4.33349 12.5H5.16662C5.27162 12.5 5.37037 12.4537 5.43328 12.375L6.33329 11.25H8.47622L7.45475 14.6016C7.39392 14.8012 7.55371 15 7.77517 15H9.13976C9.25934 15 9.36976 14.9398 9.42914 14.8426L11.6189 11.25H14C14.7365 11.25 16 10.6904 16 10C16 9.30957 14.7365 8.75 14 8.75Z" fill="white"/>
</svg>
