<svg width="86" height="86" viewBox="0 0 86 86" fill="none" xmlns="http://www.w3.org/2000/svg">
<g filter="url(#filter0_d)">
<circle cx="43" cy="43" r="39" fill="white"/>
<circle cx="43" cy="43" r="38" stroke="#312F2F" stroke-width="2"/>
</g>
<path d="M33.2565 47.7248C34.3047 46.8452 34.9878 45.6891 35.3099 44.258H45.6577C45.1834 48.3487 43.4655 51.6605 40.5053 54.196C37.5438 56.7316 33.8978 58 29.57 58C26.4131 58 23.5715 57.3348 21.0438 56.0057C18.5162 54.6765 16.5436 52.8295 15.1262 50.4644C13.7087 48.0994 13 45.445 13 42.5C13 39.555 13.7087 36.9006 15.1262 34.5356C16.5436 32.1705 18.5162 30.3235 21.0438 28.9943C23.5715 27.6639 26.4131 27 29.57 27C33.8291 27 37.4252 28.2232 40.3585 30.6709C43.2904 33.1173 45.0231 36.3245 45.5526 40.2912H35.353C34.9205 38.9828 34.1808 37.9301 33.1325 37.1318C32.0856 36.3349 30.912 35.9357 29.6131 35.9357C27.8252 35.9357 26.3835 36.539 25.2881 37.7454C24.19 38.9518 23.6429 40.5367 23.6429 42.4987C23.6429 44.4491 24.1953 46.0275 25.2975 47.234C26.4023 48.4404 27.8387 49.0423 29.6131 49.0423C30.9956 49.0423 32.2095 48.6031 33.2565 47.7248ZM69.9859 39.6648C71.9949 41.5119 73 43.9015 73 46.8297C73 50.1777 71.844 52.8772 69.5305 54.9258C67.2157 56.9757 64.168 58 60.3818 58C56.6415 58 53.6005 56.9718 51.2574 54.9155C48.913 52.8579 47.7421 50.1932 47.7421 46.9162C47.7421 45.1272 48.0641 43.3267 48.7068 41.5157C49.3495 39.7048 50.3439 37.7234 51.6899 35.5741L56.4461 27.992L66.4976 27.9907L60.8696 36.9368C61.4314 36.9084 61.8747 36.8942 62.2008 36.8942C65.3792 36.8942 67.9743 37.8177 69.9859 39.6648ZM63.1992 49.5783C63.9227 48.8718 64.2852 47.956 64.2852 46.8297C64.2852 45.7046 63.9227 44.7811 63.1992 44.059C62.4743 43.337 61.5352 42.9766 60.3832 42.9766C59.2298 42.9766 58.2893 43.3383 57.5672 44.059C56.8409 44.7811 56.4798 45.7046 56.4798 46.8297C56.4798 47.956 56.8409 48.8718 57.5658 49.5783C58.2893 50.2862 59.2298 50.6401 60.3818 50.6401C61.5352 50.6401 62.4756 50.2862 63.1992 49.5783Z" fill="#312F2F"/>
<defs>
<filter id="filter0_d" x="0" y="0" width="86" height="86" filterUnits="userSpaceOnUse" color-interpolation-filters="sRGB">
<feFlood flood-opacity="0" result="BackgroundImageFix"/>
<feColorMatrix in="SourceAlpha" type="matrix" values="0 0 0 0 0 0 0 0 0 0 0 0 0 0 0 0 0 0 127 0"/>
<feOffset/>
<feGaussianBlur stdDeviation="2"/>
<feColorMatrix type="matrix" values="0 0 0 0 0 0 0 0 0 0 0 0 0 0 0 0 0 0 0.3 0"/>
<feBlend mode="normal" in2="BackgroundImageFix" result="effect1_dropShadow"/>
<feBlend mode="normal" in="SourceGraphic" in2="effect1_dropShadow" result="shape"/>
</filter>
</defs>
</svg>
