<svg width="86" height="86" viewBox="0 0 86 86" fill="none" xmlns="http://www.w3.org/2000/svg">
<g filter="url(#filter0_d)">
<circle cx="43" cy="43" r="39" fill="white"/>
<circle cx="43" cy="43" r="38" stroke="#312F2F" stroke-width="2"/>
</g>
<path d="M58.2297 33.2857H29.9375C29.2814 33.2857 28.75 32.7423 28.75 32.0714C28.75 31.4005 29.2814 30.8571 29.9375 30.8571H58.4375C59.0936 30.8571 59.625 30.3137 59.625 29.6429C59.625 27.6309 58.03 26 56.0625 26H28.75C26.1264 26 24 28.1743 24 30.8571V55.1429C24 57.8257 26.1264 60 28.75 60H58.2297C60.3093 60 62 58.366 62 56.3571V36.9286C62 34.9197 60.3093 33.2857 58.2297 33.2857ZM54.875 49.0714C53.5636 49.0714 52.5 47.9839 52.5 46.6429C52.5 45.3018 53.5636 44.2143 54.875 44.2143C56.1864 44.2143 57.25 45.3018 57.25 46.6429C57.25 47.9839 56.1864 49.0714 54.875 49.0714Z" fill="#32A287"/>
<defs>
<filter id="filter0_d" x="0" y="0" width="86" height="86" filterUnits="userSpaceOnUse" color-interpolation-filters="sRGB">
<feFlood flood-opacity="0" result="BackgroundImageFix"/>
<feColorMatrix in="SourceAlpha" type="matrix" values="0 0 0 0 0 0 0 0 0 0 0 0 0 0 0 0 0 0 127 0"/>
<feOffset/>
<feGaussianBlur stdDeviation="2"/>
<feColorMatrix type="matrix" values="0 0 0 0 0 0 0 0 0 0 0 0 0 0 0 0 0 0 0.3 0"/>
<feBlend mode="normal" in2="BackgroundImageFix" result="effect1_dropShadow"/>
<feBlend mode="normal" in="SourceGraphic" in2="effect1_dropShadow" result="shape"/>
</filter>
</defs>
</svg>
