<svg width="35" height="35" viewBox="0 0 35 35" fill="none" xmlns="http://www.w3.org/2000/svg">
<circle cx="17.5" cy="17.5" r="17.5" fill="#A23232"/>
<g clip-path="url(#clip0)">
<path d="M25.0785 9.9364C23.8374 8.69663 22.155 8.00024 20.4008 8.00024C18.6465 8.00024 16.9641 8.69663 15.723 9.9364C14.3371 11.3204 13.2554 13.0001 13.2554 15.5001V18.8528L11.6687 20.4384C11.2898 20.8169 10.7312 20.8708 10.232 20.6727C9.72793 20.4715 9.16982 20.4504 8.65198 20.613C8.13413 20.7756 7.6883 21.112 7.38981 21.5654C7.09132 22.0187 6.95847 22.5612 7.0137 23.1012C7.06893 23.6411 7.30886 24.1455 7.69295 24.529C8.28943 25.1247 9.11912 25.293 9.88514 25.1177C9.70935 25.8833 9.8781 26.7126 10.475 27.3091C10.8584 27.6942 11.363 27.935 11.9036 27.9908C12.4441 28.0466 12.9874 27.914 13.4414 27.6153C13.8953 27.3166 14.2322 26.8703 14.3949 26.3518C14.5577 25.8333 14.5363 25.2745 14.3344 24.77C14.1355 24.2727 14.189 23.7153 14.5687 23.3345L16.1551 21.7501H19.5101C20.3322 21.7562 21.1494 21.6241 21.9277 21.3595C20.3793 19.645 20.3719 17.0536 21.9687 15.4583C23.3117 14.1161 25.3578 13.9169 26.9976 14.802C27.0484 13.0458 26.4191 11.2755 25.0785 9.9364V9.9364Z" fill="white"/>
</g>
<defs>
<clipPath id="clip0">
<rect width="20" height="20" fill="white" transform="translate(7 8)"/>
</clipPath>
</defs>
</svg>
