<svg width="172" height="79" viewBox="0 0 172 79" fill="none" xmlns="http://www.w3.org/2000/svg">
<g clip-path="url(#clip0)">
<path d="M139.078 46.5799C137.498 47.0027 134.722 47.3503 131.508 47.6297C122.772 48.3907 110.8 48.6608 110.8 48.6608C110.8 48.6608 49.2546 52.3657 3.12767 38.5864C3.12767 38.5864 -3.58161 36.0335 2.64231 32.5975C3.60071 32.0841 4.61959 31.633 5.68713 31.2494L5.76317 31.1942C6.47111 30.7193 7.23618 30.2913 8.04921 29.9154C10.4388 28.7939 14.4738 27.4646 19.3856 28.067L140.535 42.289C140.535 42.289 144.959 45.0028 139.078 46.5799Z" fill="#3F3D56"/>
<path d="M114.939 40.1341L140.301 27.0735L151.479 28.4768L140.534 42.2889C140.534 42.2889 115.231 42.4357 114.939 40.1341Z" fill="#3F3D56"/>
<path d="M51.0889 32.1994L101.607 21.916L109.749 23.1514L86.9294 30.6023L79.7979 36.394L51.0889 32.1994Z" fill="#3F3D56"/>
<path d="M131.508 47.6297C122.772 48.3906 110.8 48.6607 110.8 48.6607C110.8 48.6607 49.2546 52.3657 3.12767 38.5864C3.12767 38.5864 -3.58161 36.0334 2.64231 32.5974L2.66334 32.6608C2.66334 32.6608 12.6164 37.5436 60.1719 41.6196L131.508 47.6297Z" fill="#32A287"/>
<path d="M123.388 47.3478L145.973 54.0413L151.647 53.5845L138.138 46.2146C138.138 46.2146 121.797 43.684 123.388 47.3478Z" fill="#3F3D56"/>
<path d="M10.8527 33.3759C9.77521 33.3889 7.30635 32.0772 5.771 31.1941C6.47894 30.7192 7.244 30.2912 8.05704 29.9153C9.29471 30.6046 11.4966 31.7202 12.7213 31.6767C14.4897 31.6239 12.4754 33.3548 10.8527 33.3759Z" fill="#32A287"/>
<path d="M113.459 70.485L98.9582 71.0358L58.188 51.082L50.6196 47.3771L46.9438 45.5769C53.8408 41.3494 81.9803 47.1798 81.9803 47.1798C82.5191 47.5098 82.6906 48.0582 82.6663 48.6641C82.6194 49.7985 81.8849 51.1302 81.6017 51.6093C81.5338 51.7267 81.4917 51.789 81.4917 51.789L113.459 70.485Z" fill="#3F3D56"/>
<path d="M65.7029 60.1395L63.1872 61.295L64.7112 59.2835C64.2797 59.0335 63.7457 58.8951 63.1936 58.8901H63.1532C62.9787 58.8925 62.8043 58.8831 62.6322 58.8619L61.7812 59.2541L62.1453 58.7726C61.5424 58.619 61.0216 58.3314 60.6568 57.9506L59.1344 58.6552L60.0954 57.3846C59.2056 56.6084 58.0051 56.1328 56.6834 56.1328C55.0995 56.1328 53.6887 56.8162 52.7778 57.8825C52.5077 58.2018 52.1259 58.4635 51.6712 58.6409C51.2165 58.8183 50.7052 58.9051 50.1893 58.8924H50.1051C48.3562 58.8924 46.939 60.3309 46.939 62.1065C46.939 63.882 48.3562 65.3205 50.1051 65.3205C50.4894 65.3196 50.8676 65.2507 51.2069 65.1197C51.8023 64.91 52.4534 64.7966 53.1151 64.7873C53.7768 64.778 54.4334 64.873 55.0396 65.0657C55.5523 65.2318 56.1074 65.3176 56.6688 65.3176C57.2302 65.3176 57.7853 65.2318 58.298 65.0657C58.8992 64.8766 59.5493 64.7834 60.2045 64.7925C60.8596 64.8016 61.5043 64.9128 62.0951 65.1185C62.4323 65.2463 62.8068 65.3135 63.1872 65.3147C64.9361 65.3147 66.3533 63.8761 66.3533 62.1006C66.3659 61.4177 66.1423 60.7434 65.7029 60.1395Z" fill="#F2F2F2"/>
<path opacity="0.03" d="M60.9706 64.8425C60.057 64.7171 59.1127 64.7915 58.2574 65.0563C57.7452 65.2227 57.1903 65.3088 56.629 65.3088C56.0678 65.3088 55.5129 65.2227 55.0007 65.0563C54.3946 64.863 53.7379 64.7677 53.0761 64.777C52.4143 64.7864 51.7632 64.9001 51.168 65.1103C50.8279 65.2409 50.4493 65.3098 50.0646 65.3111C48.5114 65.3111 47.2188 64.1744 46.9502 62.676C47.261 62.5122 47.5247 62.3059 47.7268 62.0688C48.6376 61.0038 50.0484 60.3203 51.6323 60.3203C53.2162 60.3203 54.6124 60.9897 55.5216 62.0465C55.793 62.3651 56.1732 62.6273 56.6253 62.8078C57.0774 62.9882 57.5862 63.0807 58.1021 63.0764H58.1426C59.3786 63.0741 60.4496 63.7927 60.9706 64.8425Z" fill="black"/>
<path d="M136.727 58.6129L134.212 59.7684L135.736 57.7568C135.304 57.5069 134.77 57.3685 134.218 57.3635H134.178C134.003 57.3659 133.829 57.3565 133.657 57.3353L132.806 57.7275L133.17 57.246C132.567 57.0924 132.046 56.8048 131.681 56.424L130.159 57.1286L131.12 55.858C130.23 55.0818 129.03 54.6062 127.708 54.6062C126.124 54.6062 124.713 55.2896 123.802 56.3559C123.532 56.6752 123.15 56.9369 122.696 57.1143C122.241 57.2917 121.73 57.3785 121.214 57.3658H121.13C119.381 57.3658 117.963 58.8043 117.963 60.5799C117.963 62.3554 119.381 63.7939 121.13 63.7939C121.514 63.7931 121.892 63.7241 122.231 63.5931C122.827 63.3835 123.478 63.2701 124.139 63.2607C124.801 63.2514 125.458 63.3464 126.064 63.5391C126.577 63.7052 127.132 63.791 127.693 63.791C128.255 63.791 128.81 63.7052 129.322 63.5391C129.924 63.35 130.574 63.2568 131.229 63.266C131.884 63.2751 132.529 63.3862 133.12 63.592C133.457 63.7197 133.831 63.7869 134.212 63.7881C135.96 63.7881 137.378 62.3496 137.378 60.574C137.39 59.8911 137.167 59.2168 136.727 58.6129Z" fill="#F2F2F2"/>
<path opacity="0.03" d="M131.995 63.3162C131.081 63.1907 130.137 63.2651 129.282 63.5299C128.77 63.6964 128.215 63.7824 127.653 63.7824C127.092 63.7824 126.537 63.6964 126.025 63.5299C125.419 63.3366 124.762 63.2414 124.101 63.2507C123.439 63.26 122.788 63.3737 122.192 63.5839C121.852 63.7145 121.474 63.7834 121.089 63.7847C119.536 63.7847 118.243 62.648 117.975 61.1496C118.285 60.9858 118.549 60.7796 118.751 60.5425C119.662 59.4774 121.073 58.7939 122.657 58.7939C124.241 58.7939 125.637 59.4633 126.546 60.5202C126.818 60.8396 127.2 61.1023 127.653 61.2828C128.107 61.4633 128.617 61.5554 129.135 61.55H129.175C130.403 61.5477 131.474 62.2664 131.995 63.3162Z" fill="black"/>
<path d="M136.727 20.0958L134.212 21.2513L135.736 19.2398C135.304 18.9898 134.77 18.8514 134.218 18.8464H134.178C134.003 18.8488 133.829 18.8394 133.657 18.8182L132.806 19.2104L133.17 18.7289C132.567 18.5753 132.046 18.2877 131.681 17.9069L130.159 18.6115L131.12 17.3409C130.23 16.5647 129.03 16.0891 127.708 16.0891C126.124 16.0891 124.713 16.7726 123.802 17.8388C123.532 18.1581 123.15 18.4198 122.696 18.5972C122.241 18.7746 121.73 18.8614 121.214 18.8487H121.13C119.381 18.8487 117.963 20.2872 117.963 22.0628C117.963 23.8383 119.381 25.2769 121.13 25.2769C121.514 25.276 121.892 25.207 122.231 25.076C122.827 24.8664 123.478 24.753 124.139 24.7436C124.801 24.7343 125.458 24.8293 126.064 25.022C126.576 25.189 127.131 25.2758 127.692 25.2769C128.254 25.2779 128.809 25.193 129.322 25.0279C129.924 24.8388 130.574 24.7456 131.229 24.7547C131.884 24.7638 132.529 24.875 133.12 25.0807C133.457 25.2085 133.831 25.2757 134.212 25.2769C135.961 25.2769 137.378 23.8383 137.378 22.0628C137.392 21.3779 137.168 20.7015 136.727 20.0958Z" fill="#F2F2F2"/>
<path opacity="0.03" d="M131.995 24.7988C131.081 24.6734 130.137 24.7478 129.282 25.0126C128.77 25.179 128.215 25.2651 127.653 25.2651C127.092 25.2651 126.537 25.179 126.025 25.0126C125.419 24.8193 124.762 24.724 124.101 24.7333C123.439 24.7427 122.788 24.8564 122.192 25.0666C121.852 25.1972 121.474 25.2661 121.089 25.2674C119.536 25.2674 118.243 24.1307 117.975 22.6323C118.285 22.4684 118.549 22.2622 118.751 22.0251C119.662 20.9601 121.073 20.2766 122.657 20.2766C124.241 20.2766 125.637 20.946 126.546 22.0028C126.818 22.3222 127.2 22.585 127.653 22.7655C128.107 22.946 128.617 23.0381 129.135 23.0327H129.175C130.403 23.0303 131.474 23.749 131.995 24.7988Z" fill="black"/>
<path d="M32.8573 15.9401L31.6035 16.5166L32.3638 15.5138C32.149 15.3884 31.8824 15.319 31.6067 15.3165H31.5873C31.5001 15.3172 31.4129 15.3124 31.3268 15.3024L30.9029 15.4973L31.0841 15.2625C30.7833 15.186 30.5235 15.0426 30.3415 14.8527L29.5827 15.2049L30.0681 14.572C29.8663 14.3825 29.6088 14.2281 29.3143 14.1201C29.0199 14.012 28.696 13.953 28.3661 13.9473C27.5766 13.9473 26.8728 14.2878 26.4247 14.8198C26.2898 14.9795 26.0989 15.1103 25.8714 15.1988C25.644 15.2873 25.3883 15.3304 25.1304 15.3235H25.0883C24.2163 15.3235 23.5093 16.0422 23.5093 16.9276C23.5093 17.8131 24.2163 18.5306 25.0883 18.5306C25.2801 18.5301 25.4689 18.4959 25.6384 18.4308C25.9354 18.3258 26.2602 18.2691 26.5904 18.2644C26.9207 18.2597 27.2483 18.3073 27.5507 18.4038C27.8054 18.4859 28.0809 18.5284 28.3596 18.5284C28.6383 18.5284 28.9139 18.4859 29.1686 18.4038C29.4685 18.3093 29.793 18.2628 30.1199 18.2675C30.4468 18.2721 30.7685 18.3278 31.0631 18.4308C31.2312 18.4939 31.4174 18.5273 31.6067 18.5282C32.4787 18.5282 33.1857 17.8107 33.1857 16.9253C33.1919 16.5821 33.0789 16.2433 32.8573 15.9401Z" fill="#F2F2F2"/>
<path opacity="0.03" d="M30.4971 18.2863C30.0412 18.2229 29.5695 18.2601 29.143 18.3931C28.8881 18.4748 28.6126 18.5172 28.334 18.5176C28.0523 18.5175 27.7737 18.4739 27.517 18.3896C27.2144 18.2935 26.8868 18.2463 26.5566 18.2512C26.2264 18.2561 25.9016 18.3129 25.6047 18.4178C25.4357 18.4829 25.2475 18.5171 25.0562 18.5176C24.2813 18.5176 23.6357 17.9504 23.5015 17.2036C23.656 17.1212 23.7878 17.0184 23.8898 16.9006C24.3428 16.3686 25.0465 16.0281 25.8312 16.0281C26.6159 16.0281 27.3164 16.3651 27.7726 16.89C27.9086 17.0496 28.0994 17.1809 28.3263 17.2708C28.5532 17.3608 28.8084 17.4064 29.0669 17.4032H29.088C29.6979 17.4032 30.2366 17.7625 30.4971 18.2863Z" fill="black"/>
<path d="M144.49 73.3634L143.236 73.94L143.996 72.9371C143.781 72.8118 143.515 72.7423 143.239 72.7398H143.22C143.132 72.7405 143.045 72.7358 142.959 72.7257L142.535 72.9207L142.716 72.6858C142.416 72.6093 142.156 72.4659 141.974 72.276L141.215 72.6283L141.7 71.9953C141.499 71.8059 141.241 71.6515 140.947 71.5434C140.652 71.4353 140.328 71.3763 139.998 71.3706C139.209 71.3706 138.505 71.7112 138.057 72.2431C137.922 72.4028 137.731 72.5336 137.504 72.6221C137.276 72.7106 137.021 72.7537 136.763 72.7469H136.721C135.849 72.7469 135.142 73.4656 135.142 74.351C135.142 75.2364 135.849 75.9539 136.721 75.9539C136.912 75.9534 137.101 75.9192 137.271 75.8541C137.568 75.7492 137.893 75.6924 138.223 75.6877C138.553 75.6831 138.881 75.7306 139.183 75.8271C139.438 75.9092 139.713 75.9517 139.992 75.9517C140.271 75.9517 140.546 75.9092 140.801 75.8271C141.101 75.7326 141.425 75.6862 141.752 75.6908C142.079 75.6955 142.401 75.7512 142.695 75.8541C142.863 75.9172 143.05 75.9506 143.239 75.9515C144.111 75.9515 144.818 75.2341 144.818 74.3486C144.824 74.0054 144.711 73.6666 144.49 73.3634Z" fill="#F2F2F2"/>
<path opacity="0.03" d="M142.129 75.7096C141.673 75.6462 141.202 75.6834 140.775 75.8165C140.52 75.8981 140.245 75.9405 139.966 75.9409C139.685 75.9409 139.406 75.8972 139.149 75.8129C138.847 75.7169 138.519 75.6697 138.189 75.6745C137.859 75.6794 137.534 75.7362 137.237 75.8411C137.068 75.9062 136.88 75.9405 136.689 75.9409C135.914 75.9409 135.268 75.3738 135.134 74.6269C135.288 74.5446 135.42 74.4418 135.522 74.3239C135.975 73.792 136.679 73.4514 137.464 73.4514C138.248 73.4514 138.949 73.7884 139.405 74.3134C139.541 74.473 139.732 74.6042 139.959 74.6942C140.186 74.7841 140.441 74.8297 140.699 74.8265H140.72C141.33 74.8265 141.869 75.1859 142.129 75.7096Z" fill="black"/>
<path d="M28.0038 76.4166L26.7499 76.9932L27.5103 75.9903C27.2954 75.865 27.0288 75.7955 26.7532 75.7931H26.7337C26.6465 75.7937 26.5594 75.789 26.4733 75.779L26.0494 75.9739L26.2306 75.739C25.9298 75.6626 25.6699 75.5191 25.488 75.3292L24.7292 75.6815L25.2146 75.0486C25.0128 74.8591 24.7552 74.7047 24.4608 74.5966C24.1664 74.4886 23.8424 74.4295 23.5126 74.4238C22.7231 74.4238 22.0193 74.7644 21.5712 75.2963C21.4363 75.456 21.2453 75.5868 21.0179 75.6753C20.7905 75.7639 20.5347 75.8069 20.2769 75.8001H20.2348C19.3628 75.8001 18.6558 76.5188 18.6558 77.4042C18.6558 78.2896 19.3628 79.0071 20.2348 79.0071C20.4266 79.0067 20.6154 78.9724 20.7849 78.9073C21.0818 78.8024 21.4067 78.7456 21.7369 78.741C22.0672 78.7363 22.3948 78.7838 22.6972 78.8803C22.9518 78.9625 23.2274 79.0049 23.5061 79.0049C23.7848 79.0049 24.0604 78.9625 24.315 78.8803C24.615 78.7858 24.9395 78.7394 25.2664 78.744C25.5933 78.7487 25.9149 78.8044 26.2096 78.9073C26.3776 78.9705 26.5639 79.0038 26.7532 79.0048C27.6252 79.0048 28.3322 78.2873 28.3322 77.4019C28.3383 77.0586 28.2254 76.7198 28.0038 76.4166Z" fill="#F2F2F2"/>
<path opacity="0.03" d="M25.6431 78.7628C25.1872 78.6994 24.7155 78.7367 24.289 78.8697C24.0341 78.9514 23.7586 78.9938 23.48 78.9942C23.1982 78.9941 22.9197 78.9505 22.663 78.8662C22.3604 78.7701 22.0327 78.7229 21.7026 78.7277C21.3724 78.7326 21.0476 78.7894 20.7507 78.8943C20.5817 78.9594 20.3935 78.9937 20.2022 78.9942C19.4273 78.9942 18.7817 78.427 18.6475 77.6801C18.802 77.5978 18.9338 77.495 19.0357 77.3771C19.4888 76.8452 20.1925 76.5046 20.9772 76.5046C21.7619 76.5046 22.4624 76.8417 22.9186 77.3666C23.0546 77.5262 23.2454 77.6574 23.4723 77.7474C23.6992 77.8373 23.9544 77.883 24.2129 77.8797H24.2339C24.8439 77.8797 25.3826 78.2391 25.6431 78.7628Z" fill="black"/>
<path d="M85.9266 4.00794L83.4108 5.16345L84.9348 3.15187C84.5033 2.90195 83.9693 2.76353 83.4173 2.75848H83.3768C83.2024 2.76096 83.0279 2.75152 82.8559 2.7303L82.0049 3.12252L82.3689 2.64105C81.766 2.48746 81.2452 2.19982 80.8805 1.81904L79.3581 2.52362L80.3191 1.25303C79.4293 0.476813 78.2288 0.0012207 76.907 0.0012207C75.3231 0.0012207 73.9123 0.684664 73.0015 1.75093C72.7314 2.07023 72.3495 2.3319 71.8948 2.50929C71.4401 2.68669 70.9288 2.77348 70.4129 2.76083H70.3288C68.5798 2.76083 67.1626 4.19935 67.1626 5.97489C67.1626 7.75044 68.5798 9.18896 70.3288 9.18896C70.7131 9.18807 71.0912 9.11915 71.4305 8.98815C72.026 8.77848 72.677 8.66507 73.3387 8.65575C74.0004 8.64642 74.657 8.7414 75.2632 8.93414C75.7754 9.10112 76.3302 9.18795 76.8916 9.18896C77.453 9.18997 78.0084 9.10515 78.5216 8.94001C79.1228 8.75088 79.773 8.65772 80.4281 8.66684C81.0832 8.67596 81.728 8.78714 82.3188 8.99285C82.656 9.12059 83.0304 9.18783 83.4108 9.18896C85.1597 9.18896 86.577 7.75044 86.577 5.97489C86.5909 5.29003 86.3673 4.61362 85.9266 4.00794Z" fill="#F2F2F2"/>
<path opacity="0.03" d="M81.1937 8.71096C80.2802 8.5855 79.3358 8.65988 78.4806 8.92468C77.9684 9.09115 77.4135 9.17721 76.8522 9.17721C76.291 9.17721 75.7361 9.09115 75.2238 8.92468C74.6178 8.73141 73.9611 8.63613 73.2993 8.64546C72.6374 8.65479 71.9863 8.7685 71.3911 8.9787C71.051 9.1093 70.6725 9.1782 70.2877 9.17951C68.7346 9.17951 67.4419 8.04278 67.1733 6.54437C67.4841 6.38056 67.7479 6.17435 67.9499 5.93726C68.8608 4.87216 70.2716 4.18872 71.8554 4.18872C73.4393 4.18872 74.8355 4.85807 75.7448 5.91495C76.0168 6.23436 76.3983 6.49713 76.852 6.67762C77.3057 6.85812 77.8161 6.95017 78.3334 6.94481H78.3738C79.6018 6.94246 80.6728 7.66113 81.1937 8.71096Z" fill="black"/>
<path d="M171.67 24.16L170.416 24.7366L171.176 23.7338C170.961 23.6084 170.695 23.5389 170.419 23.5365H170.4C170.313 23.5371 170.225 23.5324 170.139 23.5224L169.715 23.7173L169.897 23.4825C169.596 23.406 169.336 23.2625 169.154 23.0726L168.395 23.4249L168.881 22.792C168.679 22.6025 168.421 22.4481 168.127 22.34C167.832 22.232 167.508 22.1729 167.179 22.1672C166.389 22.1672 165.685 22.5078 165.237 23.0397C165.102 23.1994 164.911 23.3302 164.684 23.4187C164.457 23.5073 164.201 23.5503 163.943 23.5435H163.901C163.029 23.5435 162.322 24.2622 162.322 25.1476C162.322 26.033 163.029 26.7505 163.901 26.7505C164.093 26.7501 164.281 26.7158 164.451 26.6507C164.748 26.5458 165.073 26.489 165.403 26.4844C165.733 26.4797 166.061 26.5272 166.363 26.6237C166.618 26.7059 166.893 26.7483 167.172 26.7483C167.451 26.7483 167.726 26.7059 167.981 26.6237C168.281 26.5293 168.605 26.4828 168.932 26.4875C169.259 26.4921 169.581 26.5478 169.876 26.6507C170.044 26.7139 170.23 26.7473 170.419 26.7482C171.291 26.7482 171.998 26.0307 171.998 25.1453C172.004 24.8021 171.891 24.4632 171.67 24.16Z" fill="#F2F2F2"/>
<path opacity="0.03" d="M169.309 26.5062C168.853 26.4428 168.382 26.4801 167.955 26.6131C167.7 26.6948 167.425 26.7372 167.146 26.7376C166.867 26.7367 166.592 26.6931 166.337 26.6096C166.035 26.5135 165.707 26.4663 165.377 26.4712C165.047 26.476 164.722 26.5329 164.425 26.6378C164.256 26.7029 164.068 26.7371 163.877 26.7376C163.102 26.7376 162.456 26.1704 162.322 25.4235C162.476 25.3412 162.608 25.2384 162.71 25.1206C163.163 24.5886 163.867 24.248 164.652 24.248C165.436 24.248 166.137 24.5851 166.593 25.11C166.728 25.2687 166.918 25.3994 167.143 25.4893C167.368 25.5793 167.622 25.6253 167.879 25.6232H167.9C168.51 25.6232 169.049 25.9825 169.309 26.5062Z" fill="black"/>
</g>
<defs>
<clipPath id="clip0">
<rect width="172" height="79" fill="white"/>
</clipPath>
</defs>
</svg>
