<svg width="17" height="17" viewBox="0 0 17 17" fill="none" xmlns="http://www.w3.org/2000/svg">
<circle cx="8.5" cy="8.5" r="8.5" fill="#32A287"/>
<g clip-path="url(#clip0)">
<path d="M10.8274 5.92935C9.78082 5.92935 8.91643 5.24999 7.60055 5.24999C7.11314 5.24999 6.67654 5.33562 6.27154 5.48462C6.32767 5.33803 6.35156 5.18107 6.34158 5.02443C6.30697 4.46904 5.85168 4.02355 5.29566 4.00093C4.6708 3.9755 4.15625 4.47452 4.15625 5.09374C4.15625 5.46534 4.34174 5.79345 4.625 5.99111V13.5312C4.625 13.7901 4.83486 14 5.09375 14H5.40625C5.66514 14 5.875 13.7901 5.875 13.5312V11.6875C6.42795 11.4519 7.11684 11.2554 8.11006 11.2554C9.1567 11.2554 10.0211 11.9348 11.337 11.9348C12.2778 11.9348 13.0297 11.6165 13.7296 11.1368C13.8992 11.0205 14 10.8275 14 10.622V5.87392C14 5.41702 13.526 5.11474 13.1116 5.3072C12.441 5.61868 11.6184 5.92935 10.8274 5.92935Z" fill="white"/>
</g>
<defs>
<clipPath id="clip0">
<rect width="10" height="10" fill="white" transform="translate(4 4)"/>
</clipPath>
</defs>
</svg>
