<svg width="41" height="41" viewBox="0 0 41 41" fill="none" xmlns="http://www.w3.org/2000/svg">
<path d="M31.775 28.1875H33.5688C34.0812 28.1875 34.5938 27.675 34.5938 27.1625V8.7125C34.5938 8.2 34.0812 7.6875 33.5688 7.6875H31.775C31.2625 7.6875 30.75 8.2 30.75 8.7125V27.1625C30.75 27.675 31.2625 28.1875 31.775 28.1875ZM16.4 28.1875H18.1938C18.7062 28.1875 19.2188 27.675 19.2188 27.1625V11.275C19.2188 10.7625 18.7062 10.25 18.1938 10.25H16.4C15.8875 10.25 15.375 10.7625 15.375 11.275V27.1625C15.375 27.675 15.8875 28.1875 16.4 28.1875ZM24.0875 28.1875H25.8813C26.3938 28.1875 26.9062 27.675 26.9062 27.1625V16.4C26.9062 15.8875 26.3938 15.375 25.8813 15.375H24.0875C23.575 15.375 23.0625 15.8875 23.0625 16.4V27.1625C23.0625 27.675 23.575 28.1875 24.0875 28.1875ZM39.7188 32.0312H3.84375V6.40625C3.84375 5.69836 3.27039 5.125 2.5625 5.125H1.28125C0.573359 5.125 0 5.69836 0 6.40625V33.3125C0 34.7275 1.14752 35.875 2.5625 35.875H39.7188C40.4266 35.875 41 35.3016 41 34.5938V33.3125C41 32.6046 40.4266 32.0312 39.7188 32.0312ZM8.7125 28.1875H10.5062C11.0188 28.1875 11.5312 27.675 11.5312 27.1625V21.525C11.5312 21.0125 11.0188 20.5 10.5062 20.5H8.7125C8.2 20.5 7.6875 21.0125 7.6875 21.525V27.1625C7.6875 27.675 8.2 28.1875 8.7125 28.1875Z" fill="#32A287"/>
</svg>
