<svg width="111" height="92" viewBox="0 0 111 92" fill="none" xmlns="http://www.w3.org/2000/svg">
<g opacity="0.69">
<rect y="40.4941" width="95.8118" height="56.0284" rx="4" transform="rotate(-25 0 40.4941)" fill="#43BDEA"/>
<g clip-path="url(#clip0)">
<path d="M84.2487 56.3341C84.3415 56.1342 84.3622 55.9188 84.3116 55.6877L85.8197 54.9845C86.0294 55.6147 86.0048 56.2156 85.7462 56.7874C85.4874 57.3593 85.0425 57.7925 84.4118 58.0866C83.9517 58.3011 83.4922 58.397 83.0332 58.3745C82.5743 58.352 82.1609 58.216 81.7931 57.9667C81.4253 57.7173 81.1411 57.3774 80.9403 56.9469C80.7396 56.5164 80.6619 56.0802 80.7073 55.6382C80.7527 55.1962 80.9143 54.7921 81.192 54.426C81.4697 54.0598 81.8386 53.7696 82.2987 53.5551C82.9194 53.2656 83.5269 53.2 84.1212 53.3585C84.7153 53.5169 85.1864 53.8679 85.534 54.4118L84.0475 55.1049C83.8953 54.9431 83.7157 54.8395 83.5085 54.794C83.3016 54.7487 83.1034 54.7701 82.9141 54.8583C82.6535 54.9799 82.4845 55.166 82.4071 55.4168C82.3293 55.6678 82.3576 55.9366 82.4913 56.2234C82.6243 56.5086 82.8124 56.7017 83.0553 56.8032C83.2985 56.9045 83.5489 56.8948 83.8075 56.7742C84.009 56.6803 84.1561 56.5335 84.2489 56.334L84.2487 56.3341ZM89.0522 52.6597C89.4709 52.7932 89.7803 53.0742 89.9799 53.5022C90.2081 53.9917 90.2236 54.4648 90.0261 54.9215C89.8285 55.3785 89.4541 55.7353 88.9023 55.9926C88.3572 56.2468 87.8439 56.3032 87.3623 56.1618C86.8803 56.0204 86.528 55.7104 86.3047 55.2314C86.1827 54.9699 86.1069 54.6848 86.0772 54.3764C86.0474 54.068 86.0572 53.7108 86.1069 53.3051L86.2833 51.8736L87.7481 51.1903L87.5376 52.8805C87.6176 52.8382 87.6812 52.806 87.7287 52.7838C88.192 52.5678 88.6329 52.5265 89.052 52.6598L89.0522 52.6597ZM88.7389 54.5701C88.7961 54.4176 88.7865 54.2591 88.7098 54.0945C88.6331 53.93 88.5173 53.8197 88.3626 53.7633C88.2078 53.707 88.0463 53.7182 87.8785 53.7964C87.7104 53.8748 87.5979 53.9916 87.5418 54.146C87.4852 54.301 87.4955 54.4605 87.5722 54.625C87.649 54.7896 87.764 54.8989 87.9178 54.9529C88.0715 55.0072 88.2327 54.9951 88.4006 54.9168C88.5687 54.8384 88.6815 54.7228 88.7387 54.5702L88.7389 54.5701ZM92.3394 51.3924C92.9288 51.2978 93.4639 51.5873 93.7308 52.1596C93.8783 52.4758 93.8929 52.8035 93.7742 53.1335C93.6562 53.4612 93.4302 53.705 93.1022 53.8579L91.6833 54.5195C91.6807 54.5207 91.6778 54.5214 91.675 54.5215C91.6721 54.5217 91.6693 54.5213 91.6666 54.5203C91.664 54.5194 91.6616 54.518 91.6595 54.5161C91.6574 54.5142 91.6558 54.512 91.6547 54.5094L89.6946 50.3061C89.6897 50.2955 89.6942 50.2828 89.7052 50.2776L90.9551 49.6948C91.2589 49.5532 91.5552 49.5338 91.8354 49.6379C92.1172 49.7317 92.3323 49.9326 92.4729 50.2341C92.6615 50.6385 92.6083 51.0693 92.3394 51.3924ZM93.6048 53.0808C93.7132 52.7923 93.7022 52.5154 93.5709 52.2339C93.4251 51.9212 93.206 51.7114 92.92 51.6108C92.6241 51.5067 92.3286 51.5266 92.0167 51.672L90.7926 52.2429L91.7506 54.2974L93.0289 53.7013C93.3101 53.5701 93.504 53.3614 93.6049 53.081L93.6048 53.0808ZM89.9185 50.369L90.7194 52.0864L91.8291 51.569C92.0887 51.4479 92.2642 51.2691 92.3512 51.0375C92.4406 50.8 92.4276 50.5548 92.3129 50.3087C92.0746 49.7978 91.5464 49.6099 91.0282 49.8515L89.9187 50.3689L89.9185 50.369ZM105.475 48.0511C105.479 48.053 105.482 48.0557 105.484 48.0591C105.486 48.0624 105.486 48.0663 105.486 48.0701C105.486 48.074 105.485 48.0778 105.483 48.0811C105.48 48.0844 105.477 48.087 105.474 48.0888L105.325 48.1582C105.322 48.1597 105.318 48.1604 105.315 48.1603C105.311 48.1603 105.308 48.1593 105.305 48.1577L102.696 46.7156L102.364 47.8373L103.007 49.2157C103.008 49.2181 103.009 49.2209 103.009 49.2237C103.009 49.2265 103.008 49.2293 103.007 49.2319C103.007 49.2346 103.005 49.237 103.003 49.2392C103.001 49.2413 102.999 49.243 102.996 49.2443L102.878 49.2994C102.875 49.3006 102.873 49.3013 102.87 49.3014C102.867 49.3015 102.864 49.3011 102.861 49.3002C102.859 49.2992 102.856 49.2978 102.854 49.2959C102.852 49.2941 102.85 49.2918 102.849 49.2893L100.889 45.0859C100.884 45.0753 100.889 45.0625 100.9 45.0575L101.018 45.0024C101.029 44.9973 101.042 45.0019 101.047 45.0125L102.255 47.6037L103.322 43.9363C103.323 43.9333 103.325 43.9305 103.327 43.9281C103.329 43.9257 103.331 43.9238 103.334 43.9224L103.49 43.8495C103.501 43.8444 103.514 43.849 103.519 43.8595C103.521 43.8643 103.521 43.8695 103.52 43.8742L102.744 46.5422L105.475 48.0511ZM99.8818 45.5323C99.8926 45.5272 99.9054 45.5318 99.9104 45.5424L101.87 49.7457C101.872 49.7482 101.872 49.7509 101.872 49.7537C101.873 49.7565 101.872 49.7593 101.871 49.7619C101.87 49.7646 101.869 49.767 101.867 49.7691C101.865 49.7712 101.862 49.7729 101.86 49.7742L101.805 49.7995C101.802 49.801 101.799 49.8017 101.795 49.8016C101.792 49.8015 101.789 49.8006 101.786 49.799L97.109 47.2445L98.9175 51.1227C98.9187 51.1252 98.9193 51.1279 98.9194 51.1307C98.9196 51.1335 98.9191 51.1363 98.9181 51.1389C98.9171 51.1416 98.9156 51.144 98.9137 51.1461C98.9117 51.1482 98.9094 51.1499 98.9068 51.1511L98.7863 51.2074C98.7836 51.2086 98.7808 51.2092 98.778 51.2094C98.7751 51.2095 98.7723 51.2091 98.7696 51.2082C98.767 51.2072 98.7645 51.2058 98.7625 51.2039C98.7604 51.202 98.7588 51.1998 98.7576 51.1973L96.7976 46.9939C96.7926 46.9833 96.7974 46.9705 96.8082 46.9655L96.8848 46.9298C96.8879 46.9284 96.8913 46.9277 96.8947 46.9278C96.898 46.9279 96.9013 46.9288 96.9042 46.9304L101.545 49.465L99.7504 45.6172C99.7455 45.6066 99.7503 45.5938 99.7611 45.5888L99.8818 45.5324L99.8818 45.5323ZM98.0424 51.5225C98.045 51.5248 98.0469 51.5278 98.0479 51.531C98.049 51.5343 98.0493 51.5378 98.0486 51.5412C98.048 51.5446 98.0466 51.5478 98.0444 51.5506C98.0422 51.5534 98.0394 51.5556 98.0361 51.5572L97.9108 51.6156C97.9068 51.6175 97.9022 51.6181 97.8978 51.6173C97.8934 51.6165 97.8894 51.6145 97.8864 51.6113L96.7793 50.5454L94.7365 51.498L94.8417 53.0316C94.842 53.0359 94.841 53.0402 94.8387 53.0439C94.8365 53.0477 94.8331 53.0507 94.8291 53.0526L94.7036 53.1111C94.7003 53.1126 94.6968 53.1133 94.6932 53.1132C94.6897 53.1131 94.6863 53.1121 94.6833 53.1103C94.6803 53.1086 94.6778 53.1061 94.676 53.1032C94.6742 53.1002 94.6732 53.0969 94.6731 53.0934L94.341 48.1311C94.3407 48.1268 94.3417 48.1225 94.344 48.1187C94.3462 48.115 94.3496 48.1119 94.3536 48.1101L94.4298 48.0745C94.4339 48.0726 94.4385 48.0719 94.4429 48.0727C94.4473 48.0734 94.4513 48.0754 94.4544 48.0785L98.0422 51.5226L98.0424 51.5225ZM94.7221 51.3139L96.6477 50.416L94.5332 48.3946L94.7223 51.3138L94.7221 51.3139Z" fill="black" fill-opacity="0.16"/>
</g>
<circle cx="83.6512" cy="34.344" r="3.5" transform="rotate(-25 83.6512 34.344)" fill="#FF1C1C" fill-opacity="0.1"/>
<circle cx="87.2762" cy="32.6536" r="3.5" transform="rotate(-25 87.2762 32.6536)" fill="#FAFF00" fill-opacity="0.1"/>
<rect x="4.3208" y="49.6409" width="95.7667" height="8" transform="rotate(-25 4.3208 49.6409)" fill="black" fill-opacity="0.4"/>
</g>
<rect x="5.20557" y="23.9082" width="95.8118" height="56.0284" rx="4" transform="rotate(-5 5.20557 23.9082)" fill="#43BDEA"/>
<g clip-path="url(#clip1)">
<path d="M78.9562 67.6076C79.1118 67.4516 79.205 67.2563 79.2364 67.0218L80.8941 66.8768C80.8756 67.5407 80.647 68.0969 80.2084 68.5458C79.7697 68.9947 79.2034 69.2496 78.5101 69.3103C78.0044 69.3545 77.5398 69.2875 77.1162 69.1093C76.6926 68.9312 76.3507 68.662 76.0904 68.3019C75.8301 67.9418 75.6792 67.5252 75.6378 67.052C75.5964 66.5788 75.6726 66.1424 75.8665 65.7425C76.0603 65.3426 76.3503 65.0182 76.7365 64.7692C77.1228 64.52 77.5686 64.3735 78.0743 64.3293C78.7566 64.2696 79.3499 64.4157 79.8542 64.7679C80.3583 65.1199 80.6809 65.6109 80.8215 66.2409L79.1876 66.3838C79.0999 66.1797 78.9666 66.0209 78.7875 65.9073C78.6086 65.7939 78.4149 65.7462 78.2069 65.7645C77.9204 65.7895 77.698 65.9066 77.5395 66.1158C77.3805 66.3251 77.3151 66.5874 77.3427 66.9026C77.3701 67.216 77.4808 67.4619 77.6743 67.6403C77.8683 67.8187 78.1068 67.8952 78.3911 67.8704C78.6126 67.851 78.8011 67.7634 78.9564 67.6076L78.9562 67.6076ZM84.7268 65.7978C85.0746 66.0664 85.2692 66.4363 85.3103 66.9068C85.3574 67.4447 85.2102 67.8947 84.8684 68.2563C84.5264 68.6181 84.0525 68.8254 83.446 68.8784C82.8468 68.9309 82.3452 68.8083 81.941 68.5107C81.5365 68.213 81.3114 67.8012 81.2654 67.2747C81.2402 66.9872 81.2665 66.6934 81.344 66.3934C81.4215 66.0934 81.5529 65.7611 81.7384 65.3969L82.3937 64.112L84.0039 63.9709L83.228 65.4872C83.3177 65.4748 83.3885 65.4663 83.4407 65.4617C83.9499 65.4172 84.3784 65.5292 84.7266 65.7978L84.7268 65.7978ZM83.7789 67.4858C83.8849 67.3621 83.9301 67.2099 83.9143 67.0289C83.8985 66.8481 83.8274 66.7048 83.7014 66.599C83.5751 66.4931 83.4196 66.4484 83.235 66.4645C83.0503 66.4807 82.9047 66.552 82.7991 66.6779C82.6929 66.8041 82.6481 66.9575 82.6639 67.1383C82.6797 67.3193 82.7505 67.4614 82.8765 67.5647C83.0024 67.6683 83.158 67.712 83.3425 67.6959C83.5273 67.6797 83.6728 67.6097 83.7787 67.4858L83.7789 67.4858ZM88.2491 65.7312C88.8354 65.8438 89.2393 66.2989 89.2943 66.928C89.3247 67.2756 89.2264 67.5885 89.002 67.858C88.779 68.1256 88.4832 68.2773 88.1228 68.3089L86.5631 68.4453C86.5602 68.4455 86.5573 68.4452 86.5546 68.4444C86.5519 68.4435 86.5494 68.4422 86.5472 68.4404C86.545 68.4386 86.5432 68.4364 86.5419 68.4339C86.5406 68.4315 86.5399 68.4288 86.5396 68.426L86.1354 63.8058C86.1344 63.7941 86.1431 63.7838 86.1552 63.7827L87.529 63.6625C87.8629 63.6333 88.1479 63.7165 88.3756 63.9101C88.6084 64.0947 88.7418 64.357 88.7708 64.6884C88.8097 65.133 88.6123 65.5195 88.2491 65.7312ZM88.8608 67.7505C89.0613 67.5166 89.1457 67.2526 89.1186 66.9431C89.0885 66.5994 88.9544 66.3274 88.7201 66.135C88.4776 65.936 88.1931 65.8536 87.8503 65.8836L86.5048 66.0013L86.7023 68.2596L88.1075 68.1366C88.4166 68.1096 88.6701 67.9797 88.8608 67.7507L88.8608 67.7505ZM86.3243 63.9415L86.4895 65.8293L87.7092 65.7226C87.9946 65.6976 88.2207 65.5896 88.3817 65.4017C88.5469 65.2091 88.6186 64.9742 88.5949 64.7038C88.5458 64.1422 88.1137 63.7849 87.5441 63.8348L86.3246 63.9415L86.3243 63.9415ZM101.736 67.0842C101.738 67.0871 101.74 67.0907 101.741 67.0945C101.741 67.0983 101.741 67.1022 101.739 67.1058C101.738 67.1094 101.735 67.1125 101.732 67.1148C101.729 67.1171 101.725 67.1186 101.721 67.1189L101.558 67.1333C101.554 67.1336 101.551 67.1331 101.547 67.1318C101.544 67.1305 101.541 67.1285 101.539 67.1259L99.5808 64.8786L98.8851 65.8191L99.0177 67.3341C99.018 67.3369 99.0177 67.3397 99.0169 67.3424C99.016 67.345 99.0147 67.3475 99.0128 67.3497C99.011 67.3519 99.0088 67.3537 99.0062 67.355C99.0036 67.3563 99.0008 67.3571 98.998 67.3574L98.868 67.3688C98.8652 67.369 98.8623 67.3687 98.8596 67.3678C98.8568 67.367 98.8543 67.3656 98.8521 67.3638C98.85 67.362 98.8482 67.3599 98.8469 67.3574C98.8456 67.3549 98.8448 67.3523 98.8446 67.3495L98.4404 62.7292C98.4394 62.7176 98.4482 62.7072 98.4601 62.7062L98.59 62.6948C98.6019 62.6938 98.6125 62.7025 98.6135 62.7141L98.8627 65.5624L101.12 62.481C101.122 62.4785 101.124 62.4764 101.127 62.4749C101.129 62.4733 101.133 62.4724 101.136 62.4721L101.307 62.4571C101.32 62.456 101.33 62.4647 101.331 62.4763C101.332 62.4815 101.33 62.4865 101.327 62.4905L99.6852 64.7321L101.736 67.0842ZM97.341 62.8041C97.3528 62.803 97.3634 62.8117 97.3644 62.8234L97.7686 67.4436C97.7689 67.4464 97.7686 67.4492 97.7677 67.4518C97.7669 67.4545 97.7655 67.4569 97.7637 67.4591C97.7619 67.4612 97.7596 67.463 97.7571 67.4643C97.7545 67.4656 97.7518 67.4664 97.7489 67.4667L97.6891 67.4719C97.6857 67.4722 97.6822 67.4718 97.679 67.4705C97.6759 67.4692 97.6731 67.4673 97.6709 67.4647L94.1498 63.4647L94.5228 67.7276C94.5231 67.7304 94.5228 67.7331 94.5219 67.7358C94.5211 67.7384 94.5197 67.7409 94.5179 67.743C94.516 67.7452 94.5138 67.747 94.5112 67.7483C94.5087 67.7496 94.5059 67.7504 94.5031 67.7507L94.3705 67.7623C94.3677 67.7625 94.3648 67.7622 94.3621 67.7613C94.3593 67.7605 94.3568 67.7591 94.3546 67.7573C94.3525 67.7555 94.3507 67.7533 94.3494 67.7509C94.3481 67.7484 94.3473 67.7457 94.3471 67.743L93.9429 63.1227C93.9419 63.1111 93.9507 63.1007 93.9626 63.0997L94.0468 63.0923C94.0502 63.092 94.0536 63.0926 94.0567 63.0938C94.0598 63.0951 94.0626 63.097 94.0648 63.0995L97.5585 67.0684L97.1885 62.839C97.1875 62.8273 97.1964 62.8169 97.2082 62.8159L97.341 62.8043L97.341 62.8041ZM93.5638 67.804C93.5654 67.807 93.5662 67.8104 93.5661 67.8139C93.566 67.8173 93.565 67.8207 93.5632 67.8237C93.5615 67.8267 93.559 67.8292 93.556 67.8311C93.553 67.8329 93.5496 67.8341 93.546 67.8344L93.4083 67.8464C93.4038 67.8468 93.3993 67.8458 93.3955 67.8436C93.3916 67.8414 93.3886 67.8381 93.3868 67.8341L92.711 66.4538L90.4656 66.6502L90.04 68.1273C90.0388 68.1315 90.0364 68.1352 90.0329 68.1379C90.0295 68.1407 90.0253 68.1424 90.0209 68.1428L89.883 68.1549C89.8794 68.1552 89.8758 68.1546 89.8725 68.1533C89.8693 68.1519 89.8664 68.1498 89.8641 68.1471C89.8619 68.1445 89.8604 68.1413 89.8597 68.1379C89.8591 68.1346 89.8593 68.1311 89.8604 68.1278L91.2455 63.3512C91.2466 63.347 91.2491 63.3433 91.2525 63.3406C91.2559 63.3378 91.2601 63.3361 91.2646 63.3357L91.3483 63.3284C91.3528 63.328 91.3573 63.3289 91.3612 63.3311C91.3651 63.3332 91.3682 63.3365 91.37 63.3405L93.5636 67.804L93.5638 67.804ZM90.515 66.4723L92.6316 66.2872L91.336 63.6645L90.5152 66.4723L90.515 66.4723Z" fill="black"/>
</g>
<circle cx="14.7829" cy="31.2195" r="3.5" transform="rotate(-5 14.7829 31.2195)" fill="#FF1C1C"/>
<circle cx="18.7678" cy="30.8708" r="3.5" transform="rotate(-5 18.7678 30.8708)" fill="#FAFF00" fill-opacity="0.7"/>
<path d="M13.9669 44.8424L14.3928 45.8456L15.4784 45.7506L14.6559 46.4656L15.0818 47.4688L14.1476 46.9075L13.3251 47.6225L13.5703 46.5606L12.6361 45.9993L13.7218 45.9043L13.9669 44.8424Z" fill="white"/>
<path d="M29.9064 43.4479L30.3322 44.4511L31.4179 44.3561L30.5954 45.0711L31.0212 46.0742L30.0871 45.5129L29.2646 46.2279L29.5097 45.166L28.5756 44.6047L29.6612 44.5098L29.9064 43.4479Z" fill="white"/>
<path d="M45.8454 42.0533L46.2712 43.0565L47.3569 42.9615L46.5344 43.6765L46.9602 44.6797L46.026 44.1184L45.2035 44.8334L45.4487 43.7715L44.5145 43.2102L45.6002 43.1152L45.8454 42.0533Z" fill="white"/>
<path d="M20.9406 44.2323L21.3664 45.2355L22.4521 45.1405L21.6296 45.8555L22.0554 46.8587L21.1213 46.2974L20.2988 47.0123L20.5439 45.9505L19.6098 45.3892L20.6954 45.2942L20.9406 44.2323Z" fill="white"/>
<path d="M36.8795 42.8378L37.3054 43.841L38.391 43.746L37.5685 44.4609L37.9944 45.4641L37.0602 44.9028L36.2377 45.6178L36.4829 44.5559L35.5487 43.9946L36.6344 43.8997L36.8795 42.8378Z" fill="white"/>
<path d="M53.8151 41.3561L54.2409 42.3593L55.3266 42.2643L54.5041 42.9793L54.9299 43.9824L53.9958 43.4211L53.1733 44.1361L53.4184 43.0742L52.4843 42.5129L53.5699 42.418L53.8151 41.3561Z" fill="white"/>
<path d="M17.4538 44.5375L17.8796 45.5407L18.9653 45.4457L18.1428 46.1607L18.5686 47.1638L17.6344 46.6025L16.8119 47.3175L17.0571 46.2556L16.1229 45.6943L17.2086 45.5994L17.4538 44.5375Z" fill="white"/>
<path d="M33.3932 43.1429L33.819 44.1461L34.9047 44.0511L34.0822 44.7661L34.508 45.7693L33.5739 45.208L32.7514 45.923L32.9965 44.8611L32.0624 44.2998L33.1481 44.2048L33.3932 43.1429Z" fill="white"/>
<path d="M49.8302 41.7047L50.2561 42.7079L51.3417 42.6129L50.5192 43.3279L50.9451 44.3311L50.0109 43.7698L49.1884 44.4848L49.4336 43.4229L48.4994 42.8616L49.5851 42.7666L49.8302 41.7047Z" fill="white"/>
<path d="M24.4274 43.9274L24.8532 44.9306L25.9389 44.8356L25.1164 45.5505L25.5422 46.5537L24.6081 45.9924L23.7856 46.7074L24.0307 45.6455L23.0966 45.0842L24.1822 44.9893L24.4274 43.9274Z" fill="white"/>
<path d="M40.3664 42.5328L40.7922 43.536L41.8779 43.441L41.0554 44.156L41.4812 45.1592L40.547 44.5979L39.7245 45.3129L39.9697 44.251L39.0355 43.6897L40.1212 43.5947L40.3664 42.5328Z" fill="white"/>
<path d="M57.8 41.0077L58.2258 42.0109L59.3114 41.9159L58.489 42.6309L58.9148 43.6341L57.9806 43.0728L57.1581 43.7877L57.4033 42.7259L56.4691 42.1646L57.5548 42.0696L57.8 41.0077Z" fill="white"/>
<path d="M61.8374 42.4392C61.8225 42.039 61.9351 41.7199 62.1753 41.4821C62.4191 41.2399 62.7542 41.1002 63.1806 41.0629C63.4715 41.0374 63.7251 41.0675 63.9414 41.1529C64.1573 41.2344 64.3247 41.3583 64.4437 41.5246C64.5662 41.6865 64.6371 41.877 64.6563 42.0962C64.6782 42.3473 64.6311 42.5662 64.515 42.753C64.4025 42.9355 64.2592 43.0645 64.0851 43.14L64.0872 43.1639C64.3246 43.2154 64.515 43.3272 64.6586 43.4994C64.8061 43.6711 64.8924 43.9005 64.9175 44.1874C64.9385 44.4265 64.9013 44.6446 64.8061 44.8416C64.7149 45.0383 64.5664 45.1999 64.3607 45.3263C64.1585 45.4483 63.9081 45.5225 63.6092 45.5486C63.1589 45.588 62.7824 45.5065 62.4796 45.3041C62.1768 45.1017 61.9981 44.7801 61.9434 44.3392L62.7563 44.2681C62.7814 44.4626 62.8609 44.6143 62.9949 44.723C63.1325 44.8274 63.3109 44.87 63.5301 44.8508C63.7333 44.8331 63.8838 44.7637 63.9817 44.6427C64.0831 44.5174 64.126 44.3651 64.1103 44.1857C64.0894 43.9467 63.9987 43.7819 63.8382 43.6916C63.6777 43.6012 63.4381 43.57 63.1193 43.5979L62.946 43.613L62.8858 42.9257L63.0592 42.9105C63.625 42.861 63.8914 42.647 63.8583 42.2684C63.8433 42.0971 63.7798 41.9681 63.6678 41.8815C63.5598 41.7946 63.4102 41.7595 63.2189 41.7763C63.0316 41.7927 62.8907 41.8572 62.7962 41.9698C62.7053 42.0782 62.6587 42.2108 62.6563 42.3676L61.8374 42.4392ZM65.8648 44.3695C66.2195 44.0173 66.5011 43.7256 66.7098 43.4946C66.9181 43.2595 67.0878 43.0198 67.219 42.7754C67.3502 42.5311 67.4061 42.2973 67.3865 42.0742C67.3688 41.8709 67.307 41.7157 67.2013 41.6085C67.0955 41.5014 66.943 41.4565 66.7438 41.4739C66.5445 41.4913 66.3971 41.5725 66.3013 41.7174C66.2052 41.8583 66.1653 42.0445 66.1816 42.276L65.3687 42.3471C65.3428 41.8675 65.4525 41.4925 65.6979 41.2221C65.9472 40.9513 66.2791 40.7978 66.6935 40.7616C67.1478 40.7218 67.5071 40.8129 67.7714 41.0347C68.0354 41.2525 68.1847 41.5586 68.2192 41.9531C68.2464 42.264 68.1887 42.5681 68.046 42.8657C67.9034 43.1633 67.7338 43.4271 67.5371 43.6571C67.34 43.8831 67.0811 44.1587 66.7602 44.4839L68.5235 44.3297L68.5841 45.023L65.6314 45.2813L65.577 44.6597L65.8648 44.3695ZM69.0065 44.191L68.949 43.5335L70.6588 40.5652L71.6331 40.48L71.8715 43.2056L72.3975 43.1596L72.4613 43.8888L71.9353 43.9348L72.0096 44.7836L71.1728 44.8568L71.0985 44.008L69.0065 44.191ZM70.9285 41.4451L69.8632 43.3813L71.0885 43.2741L70.9285 41.4451ZM75.6792 40.8006L73.7426 40.97L73.832 41.9921C73.9066 41.8812 74.0189 41.787 74.1687 41.7097C74.3182 41.6283 74.4806 41.58 74.6559 41.5647C74.9747 41.5368 75.2418 41.5837 75.4572 41.7054C75.6727 41.827 75.8358 41.9935 75.9466 42.2046C76.0571 42.4118 76.1231 42.6389 76.1447 42.8859C76.1848 43.3442 76.0856 43.7243 75.847 44.0262C75.6124 44.3278 75.254 44.4997 74.7718 44.5419C74.3176 44.5816 73.945 44.4998 73.6542 44.2964C73.3633 44.0929 73.184 43.8095 73.116 43.446L73.9289 43.3749C73.9787 43.5312 74.0696 43.6517 74.2015 43.7365C74.3374 43.821 74.5029 43.8547 74.6982 43.8376C74.9333 43.8171 75.1042 43.7278 75.2108 43.5699C75.3174 43.412 75.3601 43.2116 75.3389 42.9685C75.3172 42.7214 75.2391 42.5395 75.1044 42.4228C74.9734 42.3018 74.7903 42.2516 74.5552 42.2721C74.3878 42.2868 74.252 42.3408 74.1478 42.4343C74.0435 42.5277 73.9736 42.6462 73.938 42.7899L73.137 42.86L72.9132 40.3017L75.6149 40.0654L75.6792 40.8006Z" fill="white"/>
<path d="M14.8762 43.7591L14.5136 43.7908L12.8617 41.7068L13.0552 43.9184L12.6926 43.9501L12.4492 41.1687L12.8118 41.137L14.4634 43.217L14.2703 41.0094L14.6329 40.9777L14.8762 43.7591ZM17.2399 41.3519L17.431 43.5356L17.0683 43.5673L17.0401 43.2445C16.9808 43.3621 16.8915 43.4583 16.7722 43.533C16.6554 43.6048 16.5226 43.6472 16.3738 43.6602C16.2038 43.6751 16.048 43.6539 15.9065 43.5967C15.7647 43.5368 15.6478 43.4399 15.5558 43.3061C15.4665 43.1721 15.413 43.0041 15.3953 42.8022L15.2834 41.5231L15.642 41.4917L15.7497 42.723C15.7686 42.9382 15.8376 43.0994 15.9567 43.2068C16.0756 43.3115 16.2294 43.3556 16.418 43.3391C16.6119 43.3221 16.7594 43.249 16.8605 43.1197C16.9617 42.9904 17.0022 42.8115 16.9822 42.5831L16.8773 41.3836L17.2399 41.3519ZM16.6081 40.7848L15.7991 41.3133L15.7754 41.0424L16.5805 40.47L16.6081 40.7848ZM20.4747 41.0288C20.6447 41.0139 20.7992 41.0365 20.9383 41.0966C21.0772 41.154 21.1913 41.2498 21.2807 41.3839C21.37 41.5179 21.4235 41.6859 21.4412 41.8878L21.5538 43.1749L21.1952 43.2062L21.0871 41.971C21.068 41.7531 20.9991 41.5919 20.8801 41.4872C20.7637 41.3796 20.6138 41.3338 20.4305 41.3498C20.2419 41.3663 20.0971 41.4406 19.9962 41.5725C19.8951 41.7018 19.8545 41.8807 19.8745 42.1092L19.9798 43.3126L19.6212 43.3439L19.5131 42.1087C19.4941 41.8908 19.4251 41.7296 19.3062 41.6249C19.1897 41.5173 19.0398 41.4715 18.8565 41.4875C18.6679 41.504 18.5231 41.5783 18.4222 41.7102C18.3211 41.8395 18.2806 42.0184 18.3005 42.2469L18.4058 43.4503L18.0432 43.482L17.8522 41.2983L18.2148 41.2666L18.2423 41.5814C18.3041 41.4609 18.392 41.3649 18.5062 41.2933C18.6231 41.2215 18.7546 41.1792 18.9007 41.1665C19.084 41.1504 19.2496 41.1774 19.3976 41.2475C19.5456 41.3175 19.6611 41.4292 19.7441 41.5825C19.7918 41.4231 19.8822 41.2947 20.0156 41.1974C20.149 41.1001 20.302 41.0439 20.4747 41.0288ZM24.0382 41.773C24.0442 41.8421 24.0466 41.9155 24.0454 41.9932L22.3001 42.1459C22.3322 42.3599 22.42 42.5222 22.5635 42.6328C22.7094 42.7405 22.878 42.786 23.0693 42.7692C23.226 42.7555 23.3531 42.7083 23.4504 42.6275C23.5502 42.5438 23.6159 42.439 23.6478 42.3131L24.0383 42.2789C23.9982 42.4939 23.8963 42.6755 23.7326 42.8236C23.5686 42.9691 23.3565 43.0533 23.0962 43.0761C22.8889 43.0942 22.6989 43.064 22.5261 42.9854C22.3559 42.9066 22.2169 42.7863 22.109 42.6244C22.0009 42.4598 21.937 42.2647 21.9173 42.0389C21.8975 41.8131 21.9254 41.6112 22.0008 41.4333C22.0763 41.2554 22.1911 41.1141 22.3452 41.0096C22.5018 40.9023 22.6863 40.8393 22.8988 40.8207C23.106 40.8025 23.2933 40.8317 23.4606 40.9081C23.6279 40.9844 23.761 41.0986 23.86 41.2505C23.9613 41.3996 24.0207 41.5738 24.0382 41.773ZM23.657 41.7301C23.6449 41.5919 23.604 41.4764 23.5343 41.3834C23.4644 41.2878 23.3741 41.2194 23.2634 41.1783C23.1551 41.1342 23.0373 41.1177 22.9097 41.1289C22.7264 41.1449 22.5748 41.2171 22.4549 41.3454C22.3376 41.4734 22.2787 41.6419 22.2782 41.8507L23.657 41.7301ZM24.8223 41.0459C24.8751 40.9155 24.9569 40.8106 25.0678 40.7313C25.1813 40.6518 25.323 40.6046 25.493 40.5897L25.5258 40.9643L25.4302 40.9726C25.0237 41.0082 24.8398 41.2465 24.8784 41.6874L24.9823 42.8749L24.6197 42.9066L24.4286 40.723L24.7912 40.6913L24.8223 41.0459ZM27.0617 42.7291C26.8571 42.747 26.6671 42.7168 26.4916 42.6385C26.3188 42.5599 26.1771 42.4398 26.0666 42.2781C25.9585 42.1136 25.8946 41.9184 25.8748 41.6926C25.8553 41.4695 25.8859 41.2687 25.9667 41.0903C26.0499 40.9091 26.1712 40.7659 26.3306 40.661C26.4899 40.5533 26.6731 40.4905 26.8803 40.4723C27.0875 40.4542 27.2788 40.4843 27.4543 40.5627C27.6296 40.6383 27.7725 40.757 27.883 40.9187C27.9962 41.0801 28.0626 41.2737 28.0824 41.4995C28.1021 41.7253 28.0691 41.9289 27.9833 42.1105C27.8998 42.2891 27.7772 42.4323 27.6153 42.5402C27.4534 42.648 27.2689 42.711 27.0617 42.7291ZM27.0338 42.4103C27.1639 42.399 27.2835 42.3577 27.3924 42.2866C27.5012 42.2155 27.5849 42.1159 27.6433 41.9876C27.7043 41.8591 27.7271 41.7072 27.7118 41.5319C27.6965 41.3566 27.6489 41.2108 27.5691 41.0947C27.4894 40.9785 27.3912 40.8961 27.2745 40.8474C27.1576 40.7961 27.034 40.7761 26.9038 40.7875C26.771 40.7991 26.6515 40.8404 26.5453 40.9112C26.4415 40.9792 26.3617 41.0772 26.306 41.2052C26.2502 41.3332 26.2301 41.4849 26.2454 41.6602C26.261 41.8382 26.306 41.9855 26.3804 42.1021C26.4575 42.2185 26.5532 42.3025 26.6675 42.3541C26.7815 42.403 26.9036 42.4217 27.0338 42.4103ZM29.4857 41.3727C29.4661 41.1496 29.4942 40.9503 29.5699 40.7751C29.6454 40.5972 29.7574 40.4549 29.906 40.3482C30.0572 40.2412 30.2312 40.1792 30.4277 40.162C30.5978 40.1471 30.7593 40.1731 30.9124 40.24C31.0652 40.3043 31.1858 40.3968 31.2739 40.5176L31.1728 39.362L31.5394 39.3299L31.7974 42.2787L31.4308 42.3107L31.3949 41.9003C31.3346 42.0367 31.2377 42.1536 31.1044 42.251C30.9708 42.3456 30.8097 42.4012 30.6211 42.4177C30.4271 42.4347 30.2463 42.4023 30.0785 42.3206C29.9134 42.2387 29.7782 42.1154 29.6727 41.9506C29.5673 41.7858 29.505 41.5932 29.4857 41.3727ZM31.335 41.2149C31.3205 41.0502 31.2748 40.9097 31.1977 40.7933C31.1206 40.6769 31.0221 40.5918 30.9023 40.5381C30.7849 40.4814 30.6585 40.459 30.523 40.4709C30.3875 40.4827 30.2668 40.5254 30.1608 40.5989C30.0548 40.6724 29.9739 40.7732 29.9182 40.9012C29.8625 41.0292 29.8418 41.1756 29.8563 41.3403C29.8709 41.5076 29.9169 41.6508 29.9942 41.7699C30.0713 41.8863 30.1686 41.9728 30.286 42.0294C30.4031 42.0834 30.5294 42.1045 30.6649 42.0927C30.8004 42.0808 30.9211 42.0381 31.0271 41.9646C31.1355 41.8882 31.2176 41.786 31.2733 41.658C31.3288 41.5273 31.3494 41.3796 31.335 41.2149ZM33.3657 42.1776C33.1612 42.1955 32.9711 42.1653 32.7956 42.0869C32.6228 42.0084 32.4811 41.8883 32.3706 41.7266C32.2625 41.5621 32.1986 41.3669 32.1789 41.1411C32.1593 40.9179 32.19 40.7172 32.2707 40.5388C32.3539 40.3575 32.4752 40.2144 32.6347 40.1094C32.7939 40.0018 32.9771 39.9389 33.1843 39.9208C33.3915 39.9027 33.5829 39.9328 33.7584 40.0111C33.9336 40.0868 34.0765 40.2055 34.187 40.3671C34.3002 40.5285 34.3667 40.7221 34.3864 40.948C34.4062 41.1738 34.3731 41.3774 34.2873 41.5589C34.2039 41.7375 34.0812 41.8808 33.9193 41.9886C33.7575 42.0965 33.5729 42.1595 33.3657 42.1776ZM33.3378 41.8588C33.468 41.8474 33.5875 41.8062 33.6964 41.7351C33.8053 41.664 33.8889 41.5643 33.9473 41.4361C34.0083 41.3076 34.0312 41.1557 34.0158 40.9804C34.0005 40.805 33.9529 40.6593 33.8732 40.5431C33.7934 40.427 33.6952 40.3446 33.5785 40.2959C33.4616 40.2445 33.3381 40.2246 33.2079 40.236C33.0751 40.2476 32.9555 40.2888 32.8493 40.3597C32.7455 40.4277 32.6657 40.5256 32.61 40.6537C32.5543 40.7817 32.5341 40.9333 32.5494 41.1087C32.565 41.2867 32.61 41.434 32.6845 41.5506C32.7616 41.667 32.8573 41.751 32.9715 41.8025C33.0856 41.8514 33.2077 41.8702 33.3378 41.8588ZM35.7643 40.5303C35.7406 40.2593 35.7804 40.0109 35.8838 39.785C35.9869 39.5565 36.1381 39.372 36.3372 39.2314C36.5391 39.0906 36.7688 39.0089 37.0265 38.9864C37.3294 38.9599 37.6001 39.0098 37.8387 39.1362C38.0772 39.2625 38.2601 39.4553 38.3872 39.7146L37.9528 39.7526C37.8611 39.592 37.7383 39.4729 37.5843 39.3953C37.4329 39.3176 37.2563 39.2875 37.0544 39.3052C36.8605 39.3221 36.6904 39.3825 36.5442 39.4863C36.3981 39.5901 36.2885 39.7295 36.2154 39.9046C36.1422 40.0769 36.1153 40.2747 36.1348 40.4979C36.1541 40.7183 36.2149 40.9084 36.3172 41.0681C36.4193 41.2252 36.5513 41.3421 36.7133 41.4189C36.8753 41.4958 37.0533 41.5257 37.2472 41.5088C37.4491 41.4911 37.6179 41.4322 37.7537 41.3319C37.8919 41.2288 37.9922 41.0902 38.0546 40.9161L38.4889 40.8781C38.4086 41.1528 38.2619 41.3731 38.0489 41.539C37.8356 41.7022 37.5776 41.7971 37.2747 41.8236C37.017 41.8461 36.7767 41.8069 36.5537 41.7059C36.3332 41.6021 36.1524 41.4479 36.0114 41.2435C35.8703 41.039 35.788 40.8012 35.7643 40.5303ZM38.8678 40.5519C38.8483 40.3287 38.8764 40.1295 38.952 39.9543C39.0275 39.7763 39.1395 39.634 39.2881 39.5273C39.4394 39.4204 39.612 39.3585 39.8059 39.3415C39.9971 39.3248 40.1668 39.3514 40.3148 39.4215C40.4628 39.4915 40.5768 39.5859 40.6568 39.7047L40.6219 39.3062L40.9885 39.2742L41.1796 41.4578L40.813 41.4899L40.7774 41.0835C40.7168 41.2172 40.6185 41.3329 40.4825 41.4305C40.3489 41.5251 40.1878 41.5807 39.9992 41.5972C39.8053 41.6142 39.6258 41.5817 39.4607 41.4998C39.2956 41.4179 39.1603 41.2945 39.0549 41.1298C38.9494 40.965 38.8871 40.7724 38.8678 40.5519ZM40.7171 40.3941C40.7027 40.2294 40.6569 40.0888 40.5798 39.9725C40.5027 39.8561 40.4043 39.771 40.2844 39.7172C40.1671 39.6606 40.0406 39.6382 39.9051 39.65C39.7697 39.6619 39.6489 39.7046 39.5429 39.7781C39.4369 39.8516 39.3561 39.9524 39.3004 40.0804C39.2446 40.2084 39.224 40.3547 39.2384 40.5194C39.253 40.6868 39.299 40.83 39.3764 40.9491C39.4535 41.0654 39.5507 41.152 39.6681 41.2086C39.7852 41.2626 39.9116 41.2837 40.047 41.2718C40.1825 41.26 40.3033 41.2173 40.4093 41.1438C40.5177 41.0674 40.5997 40.9652 40.6555 40.8371C40.711 40.7065 40.7315 40.5588 40.7171 40.3941ZM41.9949 39.5435C42.0478 39.413 42.1296 39.3082 42.2405 39.2289C42.354 39.1494 42.4957 39.1022 42.6657 39.0873L42.6985 39.4619L42.6029 39.4702C42.1964 39.5058 42.0125 39.7441 42.0511 40.185L42.155 41.3725L41.7923 41.4042L41.6013 39.2206L41.9639 39.1888L41.9949 39.5435ZM43.5563 39.3507L43.6689 40.6378C43.6782 40.744 43.7074 40.8178 43.7565 40.859C43.8054 40.8975 43.8856 40.9119 43.9972 40.9021L44.2641 40.8788L44.291 41.1856L43.9642 41.2142C43.7623 41.2319 43.6068 41.1986 43.4978 41.1145C43.3887 41.0303 43.3248 40.882 43.3063 40.6695L43.1936 39.3824L42.9107 39.4071L42.8846 39.1083L43.1675 39.0835L43.1194 38.5336L43.482 38.5019L43.5301 39.0518L44.0999 39.002L44.1261 39.3008L43.5563 39.3507ZM44.4986 40.0592C44.4791 39.8361 44.5072 39.6369 44.5829 39.4616C44.6583 39.2837 44.7703 39.1414 44.9189 39.0347C45.0702 38.9278 45.2428 38.8658 45.4367 38.8489C45.628 38.8321 45.7976 38.8588 45.9456 38.9288C46.0936 38.9989 46.2076 39.0933 46.2876 39.2121L46.2527 38.8136L46.6193 38.7815L46.8104 40.9652L46.4438 40.9973L46.4082 40.5908C46.3477 40.7246 46.2494 40.8403 46.1134 40.9378C45.9798 41.0325 45.8187 41.0881 45.63 41.1046C45.4361 41.1216 45.2566 41.0891 45.0915 41.0072C44.9264 40.9252 44.7911 40.8019 44.6857 40.6371C44.5803 40.4724 44.5179 40.2797 44.4986 40.0592ZM46.3479 39.9015C46.3335 39.7368 46.2878 39.5962 46.2106 39.4798C46.1335 39.3634 46.0351 39.2784 45.9153 39.2246C45.7979 39.1679 45.6715 39.1455 45.536 39.1574C45.4005 39.1692 45.2798 39.2119 45.1738 39.2854C45.0678 39.359 44.9869 39.4597 44.9312 39.5877C44.8755 39.7158 44.8548 39.8621 44.8692 40.0268C44.8839 40.1942 44.9298 40.3374 45.0072 40.4564C45.0843 40.5728 45.1815 40.6593 45.2989 40.716C45.4161 40.77 45.5424 40.791 45.6779 40.7792C45.8134 40.7673 45.9341 40.7247 46.0401 40.6511C46.1485 40.5747 46.2306 40.4725 46.2863 40.3445C46.3418 40.2138 46.3623 40.0662 46.3479 39.9015ZM44.977 38.6883C44.9837 38.5512 45.0185 38.4438 45.0813 38.366C45.1467 38.288 45.2326 38.2444 45.3388 38.2351C45.3893 38.2306 45.4326 38.2362 45.4688 38.2518C45.5074 38.2645 45.5533 38.2846 45.6066 38.312C45.6461 38.3353 45.6812 38.3537 45.7118 38.3671C45.7422 38.3778 45.7746 38.3816 45.8091 38.3786C45.8543 38.3747 45.8915 38.3567 45.9209 38.3247C45.9502 38.2927 45.9664 38.2484 45.9695 38.1919L46.1767 38.1738C46.1724 38.308 46.1375 38.4141 46.072 38.4921C46.0066 38.5701 45.9207 38.6138 45.8145 38.6231C45.764 38.6275 45.7181 38.6235 45.6769 38.611C45.6381 38.5957 45.5933 38.5728 45.5424 38.5425C45.4976 38.5196 45.4613 38.5027 45.4336 38.4918C45.4085 38.4806 45.3787 38.4765 45.3442 38.4795C45.299 38.4835 45.2618 38.5015 45.2324 38.5335C45.2058 38.5653 45.191 38.6107 45.1882 38.6699L44.977 38.6883ZM48.3787 40.8641C48.1741 40.882 47.9841 40.8518 47.8086 40.7735C47.6358 40.6949 47.4941 40.5748 47.3836 40.4131C47.2755 40.2486 47.2116 40.0534 47.1918 39.8276C47.1723 39.6045 47.2029 39.4037 47.2837 39.2253C47.3669 39.0441 47.4882 38.9009 47.6476 38.796C47.8069 38.6884 47.9901 38.6255 48.1973 38.6073C48.4045 38.5892 48.5959 38.6193 48.7713 38.6977C48.9466 38.7733 49.0895 38.892 49.2 39.0537C49.3132 39.2151 49.3796 39.4087 49.3994 39.6345C49.4191 39.8603 49.3861 40.0639 49.3003 40.2455C49.2168 40.4241 49.0942 40.5673 48.9323 40.6752C48.7704 40.783 48.5859 40.846 48.3787 40.8641ZM48.3508 40.5453C48.481 40.534 48.6005 40.4927 48.7094 40.4216C48.8183 40.3505 48.9019 40.2509 48.9603 40.1226C49.0213 39.9941 49.0441 39.8422 49.0288 39.6669C49.0135 39.4916 48.9659 39.3458 48.8862 39.2297C48.8064 39.1135 48.7082 39.0311 48.5915 38.9824C48.4746 38.9311 48.351 38.9111 48.2208 38.9225C48.088 38.9341 47.9685 38.9754 47.8623 39.0462C47.7585 39.1142 47.6787 39.2122 47.623 39.3402C47.5673 39.4682 47.5471 39.6199 47.5624 39.7952C47.578 39.9732 47.623 40.1205 47.6974 40.2371C47.7745 40.3535 47.8702 40.4375 47.9845 40.4891C48.0985 40.538 48.2206 40.5567 48.3508 40.5453Z" fill="white"/>
<path d="M14.2733 52.0551C14.5761 52.0286 14.8428 52.0628 15.0732 52.1578C15.3062 52.2498 15.4902 52.3957 15.6255 52.5953C15.7634 52.7947 15.8448 53.0365 15.8696 53.3208C15.8945 53.605 15.8563 53.8573 15.7552 54.0776C15.6564 54.2951 15.5003 54.4693 15.2869 54.6004C15.076 54.7286 14.8191 54.806 14.5162 54.8325L13.6515 54.9081L13.4086 52.1307L14.2733 52.0551ZM14.4901 54.5336C14.8487 54.5022 15.1141 54.384 15.2862 54.1789C15.4581 53.9711 15.529 53.6959 15.4991 53.3532C15.4688 53.0078 15.3496 52.7466 15.1414 52.5694C14.9358 52.392 14.655 52.3188 14.299 52.35L13.797 52.3939L13.988 54.5775L14.4901 54.5336ZM16.2372 53.5737C16.2177 53.3505 16.2458 53.1513 16.3214 52.9761C16.3969 52.7982 16.5089 52.6559 16.6575 52.5492C16.8088 52.4422 16.9814 52.3803 17.1753 52.3633C17.3666 52.3466 17.5362 52.3732 17.6842 52.4433C17.8322 52.5133 17.9462 52.6077 18.0262 52.7266L17.9913 52.3281L18.3579 52.296L18.549 54.4797L18.1824 54.5117L18.1468 54.1053C18.0862 54.2391 17.9879 54.3547 17.8519 54.4523C17.7183 54.547 17.5572 54.6026 17.3686 54.6191C17.1747 54.636 16.9952 54.6036 16.8301 54.5216C16.665 54.4397 16.5297 54.3164 16.4243 54.1516C16.3189 53.9868 16.2565 53.7942 16.2372 53.5737ZM18.0865 53.4159C18.0721 53.2512 18.0263 53.1107 17.9492 52.9943C17.8721 52.8779 17.7737 52.7928 17.6539 52.7391C17.5365 52.6824 17.41 52.66 17.2746 52.6719C17.1391 52.6837 17.0183 52.7264 16.9123 52.7999C16.8063 52.8734 16.7255 52.9742 16.6698 53.1022C16.614 53.2302 16.5934 53.3766 16.6078 53.5413C16.6224 53.7086 16.6684 53.8518 16.7458 53.9709C16.8229 54.0873 16.9201 54.1738 17.0375 54.2304C17.1546 54.2844 17.281 54.3055 17.4164 54.2937C17.5519 54.2818 17.6727 54.2391 17.7787 54.1656C17.8871 54.0892 17.9691 53.987 18.0249 53.859C18.0804 53.7283 18.1009 53.5806 18.0865 53.4159ZM19.4392 52.5026L19.5518 53.7896C19.5611 53.8959 19.5903 53.9696 19.6394 54.0108C19.6883 54.0494 19.7685 54.0638 19.8801 54.054L20.147 54.0307L20.1739 54.3375L19.8471 54.3661C19.6452 54.3838 19.4897 54.3505 19.3807 54.2664C19.2716 54.1822 19.2077 54.0339 19.1891 53.8214L19.0765 52.5343L18.7936 52.559L18.7675 52.2602L19.0504 52.2354L19.0023 51.6855L19.3649 51.6538L19.413 52.2037L19.9828 52.1538L20.009 52.4527L19.4392 52.5026ZM20.3815 53.2111C20.362 52.988 20.3901 52.7888 20.4658 52.6135C20.5412 52.4356 20.6532 52.2933 20.8018 52.1866C20.9531 52.0797 21.1257 52.0177 21.3196 52.0008C21.5109 51.984 21.6805 52.0107 21.8285 52.0807C21.9765 52.1507 22.0905 52.2452 22.1705 52.364L22.1356 51.9655L22.5022 51.9334L22.6933 54.1171L22.3267 54.1492L22.2911 53.7427C22.2306 53.8765 22.1323 53.9922 21.9963 54.0897C21.8627 54.1844 21.7016 54.24 21.5129 54.2565C21.319 54.2735 21.1395 54.241 20.9744 54.1591C20.8093 54.0771 20.674 53.9538 20.5686 53.789C20.4632 53.6242 20.4008 53.4316 20.3815 53.2111ZM22.2308 53.0533C22.2164 52.8886 22.1707 52.7481 22.0935 52.6317C22.0164 52.5153 21.918 52.4302 21.7982 52.3765C21.6808 52.3198 21.5544 52.2974 21.4189 52.3093C21.2834 52.3211 21.1627 52.3638 21.0567 52.4373C20.9507 52.5108 20.8698 52.6116 20.8141 52.7396C20.7584 52.8676 20.7377 53.014 20.7521 53.1787C20.7668 53.3461 20.8127 53.4893 20.8901 53.6083C20.9672 53.7247 21.0644 53.8112 21.1818 53.8679C21.299 53.9219 21.4253 53.9429 21.5608 53.9311C21.6962 53.9192 21.817 53.8765 21.923 53.803C22.0314 53.7266 22.1135 53.6244 22.1692 53.4964C22.2247 53.3657 22.2452 53.218 22.2308 53.0533ZM24.1367 52.8826C24.1172 52.6594 24.1453 52.4602 24.221 52.285C24.2964 52.107 24.4084 51.9647 24.557 51.858C24.7083 51.7511 24.8822 51.6891 25.0788 51.6719C25.2488 51.657 25.4103 51.683 25.5634 51.7499C25.7163 51.8142 25.8368 51.9067 25.925 52.0275L25.8239 50.8719L26.1905 50.8398L26.4485 53.7885L26.0819 53.8206L26.046 53.4102C25.9856 53.5466 25.8888 53.6635 25.7554 53.7608C25.6218 53.8555 25.4607 53.9111 25.2721 53.9276C25.0782 53.9446 24.8973 53.9122 24.7296 53.8305C24.5645 53.7486 24.4292 53.6252 24.3238 53.4605C24.2184 53.2957 24.156 53.1031 24.1367 52.8826ZM25.986 52.7248C25.9716 52.5601 25.9258 52.4196 25.8487 52.3032C25.7716 52.1868 25.6732 52.1017 25.5534 52.0479C25.436 51.9913 25.3095 51.9689 25.1741 51.9807C25.0386 51.9926 24.9178 52.0353 24.8118 52.1088C24.7059 52.1823 24.625 52.2831 24.5693 52.4111C24.5135 52.5391 24.4929 52.6855 24.5073 52.8502C24.5219 53.0175 24.5679 53.1607 24.6453 53.2798C24.7224 53.3962 24.8196 53.4827 24.937 53.5393C25.0542 53.5933 25.1805 53.6144 25.316 53.6025C25.4514 53.5907 25.5722 53.548 25.6782 53.4745C25.7866 53.3981 25.8687 53.2959 25.9244 53.1679C25.9799 53.0372 26.0004 52.8895 25.986 52.7248ZM28.9508 52.3851C28.9568 52.4542 28.9593 52.5276 28.958 52.6053L27.2127 52.758C27.2448 52.972 27.3326 53.1343 27.4761 53.2449C27.6221 53.3526 27.7907 53.3981 27.9819 53.3813C28.1387 53.3676 28.2657 53.3204 28.363 53.2396C28.4628 53.1559 28.5286 53.0511 28.5604 52.9252L28.9509 52.891C28.9108 53.106 28.8089 53.2876 28.6452 53.4357C28.4813 53.5813 28.2691 53.6654 28.0088 53.6882C27.8016 53.7063 27.6116 53.6761 27.4387 53.5975C27.2685 53.5187 27.1295 53.3984 27.0217 53.2365C26.9136 53.0719 26.8497 52.8768 26.8299 52.651C26.8101 52.4252 26.838 52.2233 26.9134 52.0454C26.9889 51.8675 27.1037 51.7263 27.2578 51.6218C27.4144 51.5144 27.5989 51.4514 27.8115 51.4328C28.0187 51.4147 28.2059 51.4438 28.3732 51.5202C28.5405 51.5965 28.6736 51.7107 28.7726 51.8627C28.874 52.0117 28.9334 52.1859 28.9508 52.3851ZM28.5696 52.3422C28.5575 52.204 28.5166 52.0885 28.4469 51.9955C28.377 51.8999 28.2867 51.8316 28.176 51.7904C28.0678 51.7463 27.9499 51.7299 27.8224 51.741C27.6391 51.757 27.4875 51.8292 27.3675 51.9575C27.2502 52.0855 27.1913 52.254 27.1909 52.4628L28.5696 52.3422ZM32.6469 50.4476L31.8419 53.3167L31.4235 53.3533L30.1325 50.6676L30.519 50.6338L31.6012 52.9523L32.2643 50.4811L32.6469 50.4476ZM33.0558 52.1023C33.0363 51.8791 33.0643 51.6799 33.14 51.5046C33.2155 51.3267 33.3275 51.1844 33.4761 51.0777C33.6273 50.9708 33.7999 50.9089 33.9939 50.8919C34.1851 50.8752 34.3548 50.9018 34.5028 50.9718C34.6508 51.0419 34.7648 51.1363 34.8447 51.2551L34.8099 50.8566L35.1765 50.8246L35.3675 53.0082L35.0009 53.0403L34.9654 52.6339C34.9048 52.7676 34.8065 52.8833 34.6705 52.9809C34.5369 53.0755 34.3758 53.1311 34.1872 53.1476C33.9933 53.1646 33.8137 53.1321 33.6486 53.0502C33.4835 52.9683 33.3483 52.8449 33.2429 52.6802C33.1374 52.5154 33.0751 52.3228 33.0558 52.1023ZM34.9051 51.9445C34.8906 51.7798 34.8449 51.6392 34.7678 51.5228C34.6907 51.4065 34.5922 51.3214 34.4724 51.2676C34.355 51.211 34.2286 51.1886 34.0931 51.2004C33.9576 51.2123 33.8369 51.255 33.7309 51.3285C33.6249 51.402 33.544 51.5028 33.4883 51.6308C33.4326 51.7588 33.4119 51.9051 33.4264 52.0698C33.441 52.2372 33.487 52.3804 33.5643 52.4995C33.6414 52.6158 33.7387 52.7024 33.8561 52.759C33.9732 52.813 34.0995 52.8341 34.235 52.8222C34.3705 52.8104 34.4912 52.7677 34.5972 52.6942C34.7056 52.6178 34.7877 52.5156 34.8434 52.3875C34.8989 52.2569 34.9195 52.1092 34.9051 51.9445ZM36.0849 49.9742L36.3429 52.9229L35.9803 52.9546L35.7223 50.0059L36.0849 49.9742ZM36.9262 50.3141C36.8571 50.3202 36.7966 50.3014 36.7445 50.2577C36.6925 50.2141 36.6635 50.1578 36.6575 50.0887C36.6514 50.0196 36.6702 49.9591 36.7139 49.9071C36.7575 49.8551 36.8139 49.8261 36.8829 49.82C36.9493 49.8142 37.0072 49.8332 37.0566 49.8771C37.1086 49.9207 37.1376 49.9771 37.1436 50.0462C37.1497 50.1152 37.1309 50.1758 37.0872 50.2278C37.0463 50.2795 36.9926 50.3083 36.9262 50.3141ZM37.1325 50.6534L37.3236 52.8371L36.9609 52.8688L36.7699 50.6852L37.1325 50.6534ZM37.7099 51.6951C37.6903 51.4719 37.7184 51.2727 37.7941 51.0975C37.8696 50.9195 37.9816 50.7772 38.1302 50.6706C38.2814 50.5636 38.4554 50.5016 38.6519 50.4844C38.822 50.4695 38.9835 50.4955 39.1366 50.5624C39.2894 50.6267 39.41 50.7192 39.4981 50.84L39.397 49.6844L39.7636 49.6523L40.0216 52.601L39.655 52.6331L39.6191 52.2227C39.5588 52.3591 39.4619 52.476 39.3286 52.5733C39.195 52.668 39.0339 52.7236 38.8453 52.7401C38.6513 52.7571 38.4705 52.7247 38.3027 52.643C38.1376 52.5611 38.0024 52.4377 37.8969 52.273C37.7915 52.1082 37.7292 51.9156 37.7099 51.6951ZM39.5592 51.5373C39.5447 51.3726 39.499 51.2321 39.4219 51.1157C39.3448 50.9993 39.2463 50.9142 39.1265 50.8604C39.0091 50.8038 38.8827 50.7814 38.7472 50.7932C38.6117 50.8051 38.491 50.8478 38.385 50.9213C38.279 50.9948 38.1981 51.0956 38.1424 51.2236C38.0867 51.3516 38.066 51.498 38.0805 51.6627C38.0951 51.83 38.1411 51.9732 38.2184 52.0923C38.2955 52.2087 38.3928 52.2952 38.5102 52.3518C38.6273 52.4058 38.7536 52.4269 38.8891 52.415C39.0246 52.4032 39.1453 52.3605 39.2513 52.287C39.3597 52.2106 39.4418 52.1084 39.4975 51.9804C39.553 51.8497 39.5736 51.702 39.5592 51.5373ZM40.4027 51.4595C40.3832 51.2363 40.4113 51.0371 40.4869 50.8619C40.5624 50.684 40.6744 50.5416 40.823 50.435C40.9743 50.328 41.1469 50.2661 41.3408 50.2491C41.5321 50.2324 41.7017 50.259 41.8497 50.3291C41.9977 50.3991 42.1117 50.4935 42.1917 50.6123L42.1568 50.2139L42.5234 50.1818L42.7145 52.3655L42.3479 52.3975L42.3123 51.9911C42.2517 52.1249 42.1534 52.2405 42.0174 52.3381C41.8838 52.4328 41.7227 52.4884 41.5341 52.5049C41.3402 52.5218 41.1607 52.4893 40.9956 52.4074C40.8305 52.3255 40.6952 52.2022 40.5898 52.0374C40.4844 51.8726 40.422 51.68 40.4027 51.4595ZM42.252 51.3017C42.2376 51.137 42.1918 50.9965 42.1147 50.8801C42.0376 50.7637 41.9392 50.6786 41.8194 50.6248C41.702 50.5682 41.5755 50.5458 41.4401 50.5576C41.3046 50.5695 41.1838 50.6122 41.0778 50.6857C40.9718 50.7592 40.891 50.86 40.8353 50.988C40.7795 51.116 40.7589 51.2624 40.7733 51.4271C40.7879 51.5944 40.8339 51.7376 40.9113 51.8567C40.9884 51.9731 41.0856 52.0596 41.203 52.1162C41.3201 52.1702 41.4465 52.1913 41.5819 52.1795C41.7174 52.1676 41.8382 52.1249 41.9442 52.0514C42.0526 51.975 42.1347 51.8728 42.1904 51.7448C42.2459 51.6141 42.2664 51.4664 42.252 51.3017ZM43.0955 51.2239C43.076 51.0007 43.1041 50.8015 43.1798 50.6263C43.2552 50.4484 43.3673 50.3061 43.5159 50.1994C43.6671 50.0924 43.841 50.0304 44.0376 50.0132C44.2076 49.9983 44.3692 50.0243 44.5223 50.0912C44.6751 50.1555 44.7956 50.248 44.8838 50.3688L44.7827 49.2132L45.1493 49.1811L45.4073 52.1299L45.0407 52.1619L45.0048 51.7515C44.9445 51.8879 44.8476 52.0048 44.7143 52.1022C44.5807 52.1968 44.4196 52.2524 44.2309 52.2689C44.037 52.2859 43.8562 52.2535 43.6884 52.1718C43.5233 52.0899 43.3881 51.9666 43.2826 51.8018C43.1772 51.637 43.1148 51.4444 43.0955 51.2239ZM44.9448 51.0661C44.9304 50.9014 44.8847 50.7609 44.8076 50.6445C44.7305 50.5281 44.632 50.443 44.5122 50.3893C44.3948 50.3326 44.2684 50.3102 44.1329 50.3221C43.9974 50.3339 43.8767 50.3766 43.7707 50.4501C43.6647 50.5236 43.5838 50.6244 43.5281 50.7524C43.4724 50.8804 43.4517 51.0268 43.4661 51.1915C43.4808 51.3588 43.5268 51.502 43.6041 51.6211C43.6812 51.7375 43.7784 51.824 43.8958 51.8806C44.013 51.9346 44.1393 51.9557 44.2748 51.9439C44.4103 51.932 44.531 51.8893 44.637 51.8158C44.7454 51.7394 44.8275 51.6372 44.8832 51.5092C44.9387 51.3785 44.9592 51.2308 44.9448 51.0661ZM47.9096 50.7264C47.9157 50.7955 47.9181 50.8689 47.9169 50.9466L46.1715 51.0993C46.2036 51.3133 46.2914 51.4756 46.435 51.5862C46.5809 51.6939 46.7495 51.7394 46.9408 51.7227C47.0975 51.7089 47.2245 51.6617 47.3219 51.5809C47.4216 51.4972 47.4874 51.3924 47.5192 51.2665L47.9097 51.2323C47.8696 51.4473 47.7677 51.6289 47.604 51.7771C47.4401 51.9226 47.228 52.0067 46.9676 52.0295C46.7604 52.0476 46.5704 52.0174 46.3975 51.9388C46.2274 51.86 46.0883 51.7397 45.9805 51.5778C45.8724 51.4133 45.8085 51.2181 45.7887 50.9923C45.769 50.7665 45.7968 50.5646 45.8723 50.3867C45.9477 50.2088 46.0625 50.0676 46.2167 49.9631C46.3732 49.8557 46.5578 49.7927 46.7703 49.7741C46.9775 49.756 47.1648 49.7851 47.3321 49.8615C47.4993 49.9379 47.6325 50.052 47.7314 50.204C47.8328 50.353 47.8922 50.5272 47.9096 50.7264ZM47.5284 50.6835C47.5164 50.5453 47.4755 50.4298 47.4058 50.3369C47.3358 50.2413 47.2455 50.1729 47.1349 50.1317C47.0266 50.0876 46.9087 50.0712 46.7812 50.0823C46.5979 50.0984 46.4463 50.1705 46.3263 50.2988C46.2091 50.4268 46.1502 50.5953 46.1497 50.8041L47.5284 50.6835Z" fill="white"/>
<path d="M14.1672 57.3767C14.127 56.9171 14.1778 56.5499 14.3198 56.2752C14.4644 56.0002 14.7292 55.8459 15.1144 55.8122C15.4996 55.7785 15.786 55.8846 15.9735 56.1305C16.1636 56.3762 16.2788 56.7288 16.319 57.1884C16.3594 57.6506 16.3075 58.0206 16.1631 58.2982C16.0214 58.5756 15.758 58.7312 15.3728 58.7649C14.9876 58.7986 14.6998 58.6913 14.5094 58.4429C14.3217 58.1943 14.2076 57.8389 14.1672 57.3767ZM15.7691 57.2365C15.7519 57.0399 15.7242 56.8764 15.686 56.7459C15.6502 56.6125 15.5901 56.5067 15.5056 56.4284C15.4238 56.3499 15.3085 56.3172 15.1598 56.3302C15.011 56.3432 14.9018 56.3956 14.8322 56.4873C14.7653 56.5788 14.7244 56.6935 14.7097 56.8313C14.6974 56.9662 14.6999 57.132 14.7171 57.3286C14.7348 57.5305 14.7616 57.6994 14.7976 57.8355C14.8333 57.9689 14.8935 58.0747 14.9779 58.153C15.0622 58.2286 15.1787 58.2599 15.3274 58.2469C15.4762 58.2338 15.5855 58.1828 15.6553 58.0937C15.7249 58.0019 15.7658 57.8873 15.7778 57.7497C15.7897 57.6095 15.7867 57.4384 15.7691 57.2365ZM18.5054 55.9973L17.6627 58.5726L17.0968 58.6221L17.9531 56.1099L16.5903 56.2291L16.5485 55.7509L18.4692 55.5829L18.5054 55.9973ZM20.2846 54.5407L19.602 59.1297L19.0561 59.1774L19.7387 54.5885L20.2846 54.5407ZM21.1149 57.6361C21.3513 57.4013 21.5391 57.2069 21.6782 57.0528C21.8171 56.8961 21.9302 56.7363 22.0177 56.5734C22.1052 56.4105 22.1424 56.2546 22.1294 56.1059C22.1175 55.9704 22.0764 55.8669 22.0059 55.7955C21.9354 55.724 21.8337 55.6941 21.7009 55.7057C21.5681 55.7173 21.4697 55.7714 21.4059 55.868C21.3418 55.962 21.3152 56.0861 21.3261 56.2404L20.7841 56.2878C20.7669 55.9681 20.84 55.7181 21.0036 55.5378C21.1698 55.3573 21.3911 55.255 21.6674 55.2308C21.9702 55.2043 22.2097 55.265 22.386 55.4129C22.562 55.5581 22.6615 55.7622 22.6845 56.0252C22.7026 56.2324 22.6641 56.4352 22.5691 56.6336C22.474 56.8319 22.3609 57.0078 22.2297 57.1611C22.0984 57.3118 21.9257 57.4956 21.7118 57.7124L22.8873 57.6095L22.9278 58.0718L20.9593 58.244L20.923 57.8296L21.1149 57.6361ZM24.9145 55.4366L24.0718 58.0118L23.5059 58.0613L24.3622 55.5492L22.9994 55.6684L22.9576 55.1902L24.8783 55.0222L24.9145 55.4366Z" fill="white"/>
<defs>
<clipPath id="clip0">
<rect width="26" height="5" fill="white" transform="translate(79.8838 54.6812) rotate(-25)"/>
</clipPath>
<clipPath id="clip1">
<rect width="26" height="5" fill="white" transform="translate(75.4199 64.5615) rotate(-5)"/>
</clipPath>
</defs>
</svg>
