<svg width="78" height="77" viewBox="0 0 78 77" fill="none" xmlns="http://www.w3.org/2000/svg">
<g clip-path="url(#clip0)" filter="url(#filter0_d)">
<path d="M10.2281 56.3502H18.2428V63.2501H10.2281V56.3502Z" fill="#ED1C24"/>
<path d="M22.8228 52.9001H30.8374V63.2501H22.8228V52.9001Z" fill="#FBB03B"/>
<path d="M35.4171 47.1502H43.4318V63.2501H35.4171V47.1502Z" fill="#F8CF26"/>
<path d="M48.0117 39.1003H56.0264V63.25H48.0117V39.1003Z" fill="#39B54A"/>
<path d="M60.6062 23.0004H68.6209V63.25H60.6062V23.0004Z" fill="#F5AC37"/>
<path d="M10.2281 6.9007H25.1125V9.20062H10.2281V6.9007Z" fill="#312F2F"/>
<path d="M10.2281 11.5006H25.1125V13.8005H10.2281V11.5006Z" fill="#312F2F"/>
<path d="M10.2281 16.1006H20.5328V18.4005H10.2281V16.1006Z" fill="#312F2F"/>
<path d="M10.2281 20.7005H20.5328V23.0004H10.2281V20.7005Z" fill="#312F2F"/>
<path d="M4.50342 66.7001H73.2009V69H4.50342V66.7001Z" fill="#312F2F"/>
<path d="M63.5247 9.40034L65.3727 4.09661L68.7412 10.8643C69.024 11.4324 69.7121 11.6636 70.2778 11.3795C70.8435 11.0954 71.0736 10.4044 70.7907 9.83618L66.2107 0.636213C65.9279 0.0681726 65.2409 -0.163087 64.6754 0.121001C64.6754 0.121001 64.6754 0.121001 64.6741 0.121001L55.5144 4.72098C54.9489 5.00507 54.7186 5.69615 55.0015 6.26433C55.2843 6.8325 55.9724 7.06363 56.5381 6.77954L63.1719 3.45027L61.3617 8.64134C53.4056 31.4007 32.9131 47.3671 8.98572 49.4498L9.18041 51.7497C34.0088 49.5889 55.2729 33.0187 63.5247 9.40034Z" fill="#312F2F"/>
<path d="M10.2282 55.2002C9.59621 55.2002 9.08325 55.7154 9.08325 56.3502V63.2501C9.08325 63.8848 9.59621 64.4 10.2282 64.4H18.2429C18.8748 64.4 19.3878 63.8848 19.3878 63.2501V56.3502C19.3878 55.7154 18.8748 55.2002 18.2429 55.2002H10.2282ZM17.0979 62.1001H11.3731V57.5001H17.0979V62.1001Z" fill="#312F2F"/>
<path d="M22.8227 51.7501C22.1907 51.7501 21.6777 52.2653 21.6777 52.9001V63.25C21.6777 63.8848 22.1907 64.4 22.8227 64.4H30.8373C31.4693 64.4 31.9823 63.8848 31.9823 63.25V52.9001C31.9823 52.2653 31.4693 51.7501 30.8373 51.7501H22.8227ZM29.6924 62.1H23.9676V54.0502H29.6924V62.1Z" fill="#312F2F"/>
<path d="M35.4173 46.0002C34.7853 46.0002 34.2723 46.5155 34.2723 47.1502V63.2501C34.2723 63.8848 34.7853 64.4 35.4173 64.4H43.4319C44.0639 64.4 44.5769 63.8848 44.5769 63.2501V47.1502C44.5769 46.5155 44.0639 46.0002 43.4319 46.0002H35.4173ZM42.287 62.1001H36.5622V48.3002H42.287V62.1001Z" fill="#312F2F"/>
<path d="M48.0118 37.9504C47.3798 37.9504 46.8668 38.4656 46.8668 39.1003V63.2501C46.8668 63.8848 47.3798 64.4 48.0118 64.4H56.0264C56.6584 64.4 57.1714 63.8848 57.1714 63.2501V39.1003C57.1714 38.4656 56.6584 37.9504 56.0264 37.9504H48.0118ZM54.8815 62.1001H49.1567V40.2503H54.8815V62.1001Z" fill="#312F2F"/>
<path d="M60.6062 21.8505C59.9743 21.8505 59.4613 22.3657 59.4613 23.0005V63.2501C59.4613 63.8848 59.9743 64.4001 60.6062 64.4001H68.6209C69.2529 64.4001 69.7658 63.8848 69.7658 63.2501V23.0005C69.7658 22.3657 69.2529 21.8505 68.6209 21.8505H60.6062ZM67.476 62.1001H61.7512V24.1504H67.476V62.1001Z" fill="#312F2F"/>
</g>
<defs>
<filter id="filter0_d" x="0.50293" y="0" width="76.6982" height="77" filterUnits="userSpaceOnUse" color-interpolation-filters="sRGB">
<feFlood flood-opacity="0" result="BackgroundImageFix"/>
<feColorMatrix in="SourceAlpha" type="matrix" values="0 0 0 0 0 0 0 0 0 0 0 0 0 0 0 0 0 0 127 0"/>
<feOffset dy="4"/>
<feGaussianBlur stdDeviation="2"/>
<feColorMatrix type="matrix" values="0 0 0 0 0 0 0 0 0 0 0 0 0 0 0 0 0 0 0.25 0"/>
<feBlend mode="normal" in2="BackgroundImageFix" result="effect1_dropShadow"/>
<feBlend mode="normal" in="SourceGraphic" in2="effect1_dropShadow" result="shape"/>
</filter>
<clipPath id="clip0">
<rect width="68.6982" height="69" fill="white" transform="translate(4.50293)"/>
</clipPath>
</defs>
</svg>
