<svg width="35" height="35" viewBox="0 0 35 35" fill="none" xmlns="http://www.w3.org/2000/svg">
<path d="M17.4988 0C7.8351 0 0 7.84 0 17.5C0 27.1658 7.8351 35 17.4988 35C27.1637 35 35 27.1658 35 17.5C35 7.84 27.1637 0 17.4988 0Z" fill="white"/>
<path d="M17.632 27.0676C12.1091 27.1008 7.60535 22.6507 7.57221 17.1278C7.53907 11.6049 11.9891 7.10113 17.512 7.06799C23.0349 7.03485 27.5387 11.4849 27.5718 17.0078C27.605 22.5307 23.1549 27.0345 17.632 27.0676ZM14.0841 19.0888L14.0961 21.0887L16.596 21.0737L16.608 23.0737L18.608 23.0617L18.596 21.0617L19.596 21.0557C20.259 21.0518 20.8933 20.7846 21.3593 20.3129C21.8254 19.8413 22.0849 19.2038 22.0809 18.5408C22.077 17.8778 21.8098 17.2435 21.3381 16.7774C20.8665 16.3114 20.229 16.0518 19.566 16.0558L15.5661 16.0798C15.4335 16.0806 15.306 16.0287 15.2116 15.9355C15.1173 15.8423 15.0639 15.7154 15.0631 15.5828C15.0623 15.4502 15.1142 15.3227 15.2074 15.2284C15.3006 15.1341 15.4275 15.0806 15.5601 15.0798L21.06 15.0468L21.048 13.0469L18.548 13.0619L18.536 11.0619L16.536 11.0739L16.548 13.0739L15.5481 13.0799C14.885 13.0839 14.2507 13.3511 13.7847 13.8227C13.3187 14.2944 13.0591 14.9318 13.0631 15.5948C13.0671 16.2579 13.3343 16.8922 13.8059 17.3582C14.2776 17.8242 14.915 18.0838 15.5781 18.0798L19.578 18.0558C19.7106 18.055 19.8381 18.1069 19.9324 18.2001C20.0267 18.2933 20.0802 18.4202 20.081 18.5528C20.0818 18.6854 20.0299 18.8129 19.9367 18.9072C19.8435 19.0015 19.7166 19.055 19.584 19.0558L14.0841 19.0888Z" fill="#A23232"/>
</svg>
