<svg width="190" height="63" viewBox="0 0 190 63" fill="none" xmlns="http://www.w3.org/2000/svg">
<path d="M77 7V55.5517" stroke="#32A287" stroke-width="2"/>
<path d="M87.728 26.0711V28.3431H91.392V30.4551H87.728V32.9191H91.872V35.1111H84.992V23.8791H91.872V26.0711H87.728ZM93.1043 30.6471C93.1043 29.7191 93.2909 28.9084 93.6643 28.2151C94.0483 27.5218 94.5763 26.9884 95.2483 26.6151C95.9309 26.2418 96.7096 26.0551 97.5843 26.0551C98.7043 26.0551 99.6376 26.3484 100.384 26.9351C101.142 27.5218 101.638 28.3484 101.872 29.4151H98.9603C98.7149 28.7324 98.2403 28.3911 97.5363 28.3911C97.0349 28.3911 96.6349 28.5884 96.3363 28.9831C96.0376 29.3671 95.8883 29.9218 95.8883 30.6471C95.8883 31.3724 96.0376 31.9324 96.3363 32.3271C96.6349 32.7111 97.0349 32.9031 97.5363 32.9031C98.2403 32.9031 98.7149 32.5618 98.9603 31.8791H101.872C101.638 32.9244 101.142 33.7458 100.384 34.3431C99.6269 34.9404 98.6936 35.2391 97.5843 35.2391C96.7096 35.2391 95.9309 35.0524 95.2483 34.6791C94.5763 34.3058 94.0483 33.7724 93.6643 33.0791C93.2909 32.3858 93.1043 31.5751 93.1043 30.6471ZM107.4 35.2391C106.525 35.2391 105.736 35.0524 105.032 34.6791C104.338 34.3058 103.789 33.7724 103.384 33.0791C102.989 32.3858 102.792 31.5751 102.792 30.6471C102.792 29.7298 102.994 28.9244 103.4 28.2311C103.805 27.5271 104.36 26.9884 105.064 26.6151C105.768 26.2418 106.557 26.0551 107.432 26.0551C108.306 26.0551 109.096 26.2418 109.8 26.6151C110.504 26.9884 111.058 27.5271 111.464 28.2311C111.869 28.9244 112.072 29.7298 112.072 30.6471C112.072 31.5644 111.864 32.3751 111.448 33.0791C111.042 33.7724 110.482 34.3058 109.768 34.6791C109.064 35.0524 108.274 35.2391 107.4 35.2391ZM107.4 32.8711C107.922 32.8711 108.365 32.6791 108.728 32.2951C109.101 31.9111 109.288 31.3618 109.288 30.6471C109.288 29.9324 109.106 29.3831 108.744 28.9991C108.392 28.6151 107.954 28.4231 107.432 28.4231C106.898 28.4231 106.456 28.6151 106.104 28.9991C105.752 29.3724 105.576 29.9218 105.576 30.6471C105.576 31.3618 105.746 31.9111 106.088 32.2951C106.44 32.6791 106.877 32.8711 107.4 32.8711ZM118.963 26.0871C120.009 26.0871 120.841 26.4284 121.459 27.1111C122.089 27.7831 122.403 28.7111 122.403 29.8951V35.1111H119.683V30.2631C119.683 29.6658 119.529 29.2018 119.219 28.8711C118.91 28.5404 118.494 28.3751 117.971 28.3751C117.449 28.3751 117.033 28.5404 116.723 28.8711C116.414 29.2018 116.259 29.6658 116.259 30.2631V35.1111H113.523V26.1831H116.259V27.3671C116.537 26.9724 116.91 26.6631 117.379 26.4391C117.849 26.2044 118.377 26.0871 118.963 26.0871ZM128.369 35.2391C127.494 35.2391 126.705 35.0524 126.001 34.6791C125.307 34.3058 124.758 33.7724 124.353 33.0791C123.958 32.3858 123.761 31.5751 123.761 30.6471C123.761 29.7298 123.963 28.9244 124.368 28.2311C124.774 27.5271 125.329 26.9884 126.033 26.6151C126.737 26.2418 127.526 26.0551 128.401 26.0551C129.275 26.0551 130.065 26.2418 130.769 26.6151C131.473 26.9884 132.027 27.5271 132.433 28.2311C132.838 28.9244 133.041 29.7298 133.041 30.6471C133.041 31.5644 132.833 32.3751 132.417 33.0791C132.011 33.7724 131.451 34.3058 130.737 34.6791C130.033 35.0524 129.243 35.2391 128.369 35.2391ZM128.369 32.8711C128.891 32.8711 129.334 32.6791 129.697 32.2951C130.07 31.9111 130.257 31.3618 130.257 30.6471C130.257 29.9324 130.075 29.3831 129.713 28.9991C129.361 28.6151 128.923 28.4231 128.401 28.4231C127.867 28.4231 127.425 28.6151 127.073 28.9991C126.721 29.3724 126.545 29.9218 126.545 30.6471C126.545 31.3618 126.715 31.9111 127.057 32.2951C127.409 32.6791 127.846 32.8711 128.369 32.8711Z" fill="#32A287"/>
<g filter="url(#filter0_d)">
<path d="M146.384 26.0871C147.493 26.0871 148.373 26.4231 149.024 27.0951C149.685 27.7671 150.016 28.7004 150.016 29.8951V35.1111H147.296V30.2631C147.296 29.6871 147.141 29.2444 146.832 28.9351C146.533 28.6151 146.117 28.4551 145.584 28.4551C145.051 28.4551 144.629 28.6151 144.32 28.9351C144.021 29.2444 143.872 29.6871 143.872 30.2631V35.1111H141.152V30.2631C141.152 29.6871 140.997 29.2444 140.688 28.9351C140.389 28.6151 139.973 28.4551 139.44 28.4551C138.907 28.4551 138.485 28.6151 138.176 28.9351C137.877 29.2444 137.728 29.6871 137.728 30.2631V35.1111H134.992V26.1831H137.728V27.3031C138.005 26.9298 138.368 26.6364 138.816 26.4231C139.264 26.1991 139.771 26.0871 140.336 26.0871C141.008 26.0871 141.605 26.2311 142.128 26.5191C142.661 26.8071 143.077 27.2178 143.376 27.7511C143.685 27.2604 144.107 26.8604 144.64 26.5511C145.173 26.2418 145.755 26.0871 146.384 26.0871ZM153.306 25.2551C152.826 25.2551 152.431 25.1164 152.122 24.8391C151.823 24.5511 151.674 24.1991 151.674 23.7831C151.674 23.3564 151.823 23.0044 152.122 22.7271C152.431 22.4391 152.826 22.2951 153.306 22.2951C153.775 22.2951 154.159 22.4391 154.458 22.7271C154.767 23.0044 154.922 23.3564 154.922 23.7831C154.922 24.1991 154.767 24.5511 154.458 24.8391C154.159 25.1164 153.775 25.2551 153.306 25.2551ZM154.666 26.1831V35.1111H151.93V26.1831H154.666ZM160.04 26.0551C160.67 26.0551 161.219 26.1831 161.688 26.4391C162.168 26.6951 162.536 27.0311 162.792 27.4471V26.1831H165.528V35.0951C165.528 35.9164 165.363 36.6578 165.032 37.3191C164.712 37.9911 164.216 38.5244 163.544 38.9191C162.883 39.3138 162.056 39.5111 161.064 39.5111C159.742 39.5111 158.67 39.1964 157.848 38.5671C157.027 37.9484 156.558 37.1058 156.44 36.0391H159.144C159.23 36.3804 159.432 36.6471 159.752 36.8391C160.072 37.0418 160.467 37.1431 160.936 37.1431C161.502 37.1431 161.95 36.9778 162.28 36.6471C162.622 36.3271 162.792 35.8098 162.792 35.0951V33.8311C162.526 34.2471 162.158 34.5884 161.688 34.8551C161.219 35.1111 160.67 35.2391 160.04 35.2391C159.304 35.2391 158.638 35.0524 158.04 34.6791C157.443 34.2951 156.968 33.7564 156.616 33.0631C156.275 32.3591 156.104 31.5484 156.104 30.6311C156.104 29.7138 156.275 28.9084 156.616 28.2151C156.968 27.5218 157.443 26.9884 158.04 26.6151C158.638 26.2418 159.304 26.0551 160.04 26.0551ZM162.792 30.6471C162.792 29.9644 162.6 29.4258 162.216 29.0311C161.843 28.6364 161.384 28.4391 160.84 28.4391C160.296 28.4391 159.832 28.6364 159.448 29.0311C159.075 29.4151 158.888 29.9484 158.888 30.6311C158.888 31.3138 159.075 31.8578 159.448 32.2631C159.832 32.6578 160.296 32.8551 160.84 32.8551C161.384 32.8551 161.843 32.6578 162.216 32.2631C162.6 31.8684 162.792 31.3298 162.792 30.6471ZM171.572 35.2391C170.697 35.2391 169.908 35.0524 169.204 34.6791C168.51 34.3058 167.961 33.7724 167.556 33.0791C167.161 32.3858 166.964 31.5751 166.964 30.6471C166.964 29.7298 167.166 28.9244 167.572 28.2311C167.977 27.5271 168.532 26.9884 169.236 26.6151C169.94 26.2418 170.729 26.0551 171.604 26.0551C172.478 26.0551 173.268 26.2418 173.972 26.6151C174.676 26.9884 175.23 27.5271 175.636 28.2311C176.041 28.9244 176.244 29.7298 176.244 30.6471C176.244 31.5644 176.036 32.3751 175.62 33.0791C175.214 33.7724 174.654 34.3058 173.94 34.6791C173.236 35.0524 172.446 35.2391 171.572 35.2391ZM171.572 32.8711C172.094 32.8711 172.537 32.6791 172.9 32.2951C173.273 31.9111 173.46 31.3618 173.46 30.6471C173.46 29.9324 173.278 29.3831 172.916 28.9991C172.564 28.6151 172.126 28.4231 171.604 28.4231C171.07 28.4231 170.628 28.6151 170.276 28.9991C169.924 29.3724 169.748 29.9218 169.748 30.6471C169.748 31.3618 169.918 31.9111 170.26 32.2951C170.612 32.6791 171.049 32.8711 171.572 32.8711ZM181.327 35.2391C180.548 35.2391 179.855 35.1058 179.247 34.8391C178.639 34.5724 178.159 34.2098 177.807 33.7511C177.455 33.2818 177.258 32.7591 177.215 32.1831H179.919C179.951 32.4924 180.095 32.7431 180.351 32.9351C180.607 33.1271 180.922 33.2231 181.295 33.2231C181.636 33.2231 181.898 33.1591 182.079 33.0311C182.271 32.8924 182.367 32.7164 182.367 32.5031C182.367 32.2471 182.234 32.0604 181.967 31.9431C181.7 31.8151 181.268 31.6764 180.671 31.5271C180.031 31.3778 179.498 31.2231 179.071 31.0631C178.644 30.8924 178.276 30.6311 177.967 30.2791C177.658 29.9164 177.503 29.4311 177.503 28.8231C177.503 28.3111 177.642 27.8471 177.919 27.4311C178.207 27.0044 178.623 26.6684 179.167 26.4231C179.722 26.1777 180.378 26.0551 181.135 26.0551C182.255 26.0551 183.135 26.3324 183.775 26.8871C184.426 27.4418 184.799 28.1778 184.895 29.0951H182.367C182.324 28.7858 182.186 28.5404 181.951 28.3591C181.727 28.1778 181.428 28.0871 181.055 28.0871C180.735 28.0871 180.49 28.1511 180.319 28.2791C180.148 28.3964 180.063 28.5618 180.063 28.7751C180.063 29.0311 180.196 29.2231 180.463 29.3511C180.74 29.4791 181.167 29.6071 181.743 29.7351C182.404 29.9058 182.943 30.0764 183.359 30.2471C183.775 30.4071 184.138 30.6738 184.447 31.0471C184.767 31.4098 184.932 31.9004 184.943 32.5191C184.943 33.0418 184.794 33.5111 184.495 33.9271C184.207 34.3324 183.786 34.6524 183.231 34.8871C182.687 35.1218 182.052 35.2391 181.327 35.2391Z" fill="white"/>
</g>
<g filter="url(#filter1_d)">
<path d="M39.7256 10.6538L48.6059 12.6129C49.0773 12.7169 49.5382 12.8639 49.9828 13.0521L54.1817 14.8295C58.9806 16.861 60.8484 22.6115 64.7743 26.0384V26.0384C65.7546 26.8941 66.9985 27.4259 67.9868 27.7423C68.9335 28.0454 69.6666 28.8914 69.6666 29.8855V34.4175C69.6666 35.5964 68.6447 36.5343 67.4734 36.6678C66.1266 36.8213 64.4313 37.2455 63.2087 38.3461V38.3461C59.9882 41.2455 57.1061 44.7046 53.9154 47.637C53.7355 47.8023 53.5705 47.9746 53.4241 48.1538C52.0155 49.8784 51.5274 52.9461 51.359 54.977C51.2669 56.0881 50.3597 57 49.2448 57H46.0609C45.2975 57 44.6007 56.5654 44.2648 55.8799L42.8184 52.9277C42.4825 52.2422 41.7857 51.8077 41.0224 51.8077H31.6774C30.7693 51.8077 29.9752 52.4194 29.7436 53.2975L29.1598 55.5102C28.9282 56.3882 28.1341 57 27.226 57H24.0731C23.065 57 22.2118 56.2515 22.0205 55.2618C21.6643 53.4194 20.9549 50.5324 19.7649 48.7307V48.7307C15.4335 42.1728 8.65674 36.2445 9.7418 28.4606L9.78457 28.1538L10.0938 26.3911C11.1224 20.5287 14.997 15.4943 20.5477 13.3461V13.3461C22.1456 12.7277 29.3539 10.6538 29.3539 10.6538" stroke="#32A287" stroke-width="2"/>
</g>
<g filter="url(#filter2_d)">
<path d="M49.3145 26.6154C50.88 29.5 54.2068 29.6923 55.968 26.6154" stroke="#32A287" stroke-width="1.5"/>
</g>
<ellipse cx="49.315" cy="26.6154" rx="0.782772" ry="0.769231" fill="#32A287"/>
<ellipse cx="55.9683" cy="26.6154" rx="0.782772" ry="0.769231" fill="#32A287"/>
<g filter="url(#filter3_d)">
<path d="M29.1587 10.6538C29.7458 10.6538 32.2898 15.0769 32.2898 15.0769L29.9415 19.8846L33.8553 24.6923L35.2252 31.6154L39.3347 24.5L37.1821 19.8846L41.8787 15.0769C41.8787 15.0769 39.139 10.6538 39.9218 10.6538" stroke="#32A287" stroke-width="2"/>
</g>
<g filter="url(#filter4_d)">
<path d="M37.9878 2L37.9885 4.69232M37.9967 36.6156L37.9959 33.5387M37.9889 6.2308L37.9919 17.9616M37.9921 18.9232L37.9956 32.4788" stroke="#F5AC37" stroke-width="2"/>
</g>
<g filter="url(#filter5_d)">
<path d="M33.2866 2L33.2876 4.6663M33.2995 36.6619L33.2984 33.6147M33.2882 6.1899L33.2924 17.4265M33.2929 18.7596L33.2979 32.1842" stroke="#F5AC37" stroke-width="2"/>
</g>
<g filter="url(#filter6_d)">
<path d="M42.027 5.0769H33.215C30.8856 5.0769 28.775 6.44958 27.8304 8.57885V8.57885C26.0674 12.5531 29.7884 17.0779 34.1214 17.4356C38.7047 17.814 43.1406 19.5815 43.6403 24.8846C44.7093 36.2308 28.1805 32.3846 28.1805 32.3846" stroke="#F5AC37" stroke-width="3"/>
</g>
<ellipse cx="41.879" cy="5.07691" rx="1.56554" ry="1.53846" fill="#F5AC37"/>
<ellipse cx="28.1803" cy="32.3846" rx="1.56554" ry="1.53846" fill="#F5AC37"/>
<ellipse cx="0.782772" cy="27.1923" rx="0.782772" ry="0.769231" fill="#32A287"/>
<path d="M9.39377 31.2308C9.39377 31.2308 8.21087 31.7876 6.45837 31.6154C4.50144 31.4231 4.1459 27.904 5.6756 26.6154C7.04538 25.4616 8.41523 26.8077 7.61144 28.5385C5.97836 32.0549 1.56598 30.2693 0.783203 27.1923" stroke="#32A287" stroke-width="1.5"/>
<path d="M9.39377 31.2308C9.39377 31.2308 8.21087 31.7876 6.45837 31.6154C4.50144 31.4231 4.1459 27.904 5.6756 26.6154C7.04538 25.4616 8.41523 26.8077 7.61144 28.5385C5.97836 32.0549 1.56598 30.2693 0.783203 27.1923" stroke="#32A287" stroke-width="1.5"/>
<defs>
<filter id="filter0_d" x="129.992" y="18.2951" width="59.9511" height="27.216" filterUnits="userSpaceOnUse" color-interpolation-filters="sRGB">
<feFlood flood-opacity="0" result="BackgroundImageFix"/>
<feColorMatrix in="SourceAlpha" type="matrix" values="0 0 0 0 0 0 0 0 0 0 0 0 0 0 0 0 0 0 127 0"/>
<feOffset dy="1"/>
<feGaussianBlur stdDeviation="2.5"/>
<feColorMatrix type="matrix" values="0 0 0 0 0 0 0 0 0 0 0 0 0 0 0 0 0 0 0.25 0"/>
<feBlend mode="normal" in2="BackgroundImageFix" result="effect1_dropShadow"/>
<feBlend mode="normal" in="SourceGraphic" in2="effect1_dropShadow" result="shape"/>
</filter>
<filter id="filter1_d" x="4.62549" y="6.67731" width="70.0409" height="56.3227" filterUnits="userSpaceOnUse" color-interpolation-filters="sRGB">
<feFlood flood-opacity="0" result="BackgroundImageFix"/>
<feColorMatrix in="SourceAlpha" type="matrix" values="0 0 0 0 0 0 0 0 0 0 0 0 0 0 0 0 0 0 127 0"/>
<feOffset dy="1"/>
<feGaussianBlur stdDeviation="2"/>
<feColorMatrix type="matrix" values="0 0 0 0 0 0 0 0 0 0 0 0 0 0 0 0 0 0 0.25 0"/>
<feBlend mode="normal" in2="BackgroundImageFix" result="effect1_dropShadow"/>
<feBlend mode="normal" in="SourceGraphic" in2="effect1_dropShadow" result="shape"/>
</filter>
<filter id="filter2_d" x="44.6553" y="23.2428" width="15.9636" height="11.3587" filterUnits="userSpaceOnUse" color-interpolation-filters="sRGB">
<feFlood flood-opacity="0" result="BackgroundImageFix"/>
<feColorMatrix in="SourceAlpha" type="matrix" values="0 0 0 0 0 0 0 0 0 0 0 0 0 0 0 0 0 0 127 0"/>
<feOffset dy="1"/>
<feGaussianBlur stdDeviation="2"/>
<feColorMatrix type="matrix" values="0 0 0 0 0 0 0 0 0 0 0 0 0 0 0 0 0 0 0.25 0"/>
<feBlend mode="normal" in2="BackgroundImageFix" result="effect1_dropShadow"/>
<feBlend mode="normal" in="SourceGraphic" in2="effect1_dropShadow" result="shape"/>
</filter>
<filter id="filter3_d" x="24.7363" y="9.65381" width="22.4048" height="32.7654" filterUnits="userSpaceOnUse" color-interpolation-filters="sRGB">
<feFlood flood-opacity="0" result="BackgroundImageFix"/>
<feColorMatrix in="SourceAlpha" type="matrix" values="0 0 0 0 0 0 0 0 0 0 0 0 0 0 0 0 0 0 127 0"/>
<feOffset dy="4"/>
<feGaussianBlur stdDeviation="2"/>
<feColorMatrix type="matrix" values="0 0 0 0 0 0 0 0 0 0 0 0 0 0 0 0 0 0 0.25 0"/>
<feBlend mode="normal" in2="BackgroundImageFix" result="effect1_dropShadow"/>
<feBlend mode="normal" in="SourceGraphic" in2="effect1_dropShadow" result="shape"/>
</filter>
<filter id="filter4_d" x="32.9878" y="1.99988" width="10.0089" height="42.6159" filterUnits="userSpaceOnUse" color-interpolation-filters="sRGB">
<feFlood flood-opacity="0" result="BackgroundImageFix"/>
<feColorMatrix in="SourceAlpha" type="matrix" values="0 0 0 0 0 0 0 0 0 0 0 0 0 0 0 0 0 0 127 0"/>
<feOffset dy="4"/>
<feGaussianBlur stdDeviation="2"/>
<feColorMatrix type="matrix" values="0 0 0 0 0 0 0 0 0 0 0 0 0 0 0 0 0 0 0.25 0"/>
<feBlend mode="normal" in2="BackgroundImageFix" result="effect1_dropShadow"/>
<feBlend mode="normal" in="SourceGraphic" in2="effect1_dropShadow" result="shape"/>
</filter>
<filter id="filter5_d" x="28.2866" y="1.99976" width="10.0129" height="42.6625" filterUnits="userSpaceOnUse" color-interpolation-filters="sRGB">
<feFlood flood-opacity="0" result="BackgroundImageFix"/>
<feColorMatrix in="SourceAlpha" type="matrix" values="0 0 0 0 0 0 0 0 0 0 0 0 0 0 0 0 0 0 127 0"/>
<feOffset dy="4"/>
<feGaussianBlur stdDeviation="2"/>
<feColorMatrix type="matrix" values="0 0 0 0 0 0 0 0 0 0 0 0 0 0 0 0 0 0 0.25 0"/>
<feBlend mode="normal" in2="BackgroundImageFix" result="effect1_dropShadow"/>
<feBlend mode="normal" in="SourceGraphic" in2="effect1_dropShadow" result="shape"/>
</filter>
<filter id="filter6_d" x="21.8813" y="0.576904" width="27.3084" height="38.9356" filterUnits="userSpaceOnUse" color-interpolation-filters="sRGB">
<feFlood flood-opacity="0" result="BackgroundImageFix"/>
<feColorMatrix in="SourceAlpha" type="matrix" values="0 0 0 0 0 0 0 0 0 0 0 0 0 0 0 0 0 0 127 0"/>
<feOffset dy="1"/>
<feGaussianBlur stdDeviation="2"/>
<feColorMatrix type="matrix" values="0 0 0 0 0 0 0 0 0 0 0 0 0 0 0 0 0 0 0.25 0"/>
<feBlend mode="normal" in2="BackgroundImageFix" result="effect1_dropShadow"/>
<feBlend mode="normal" in="SourceGraphic" in2="effect1_dropShadow" result="shape"/>
</filter>
</defs>
</svg>
