<svg width="160" height="43" viewBox="0 0 160 43" fill="none" xmlns="http://www.w3.org/2000/svg">
<path d="M3.728 17.96V20.232H7.392V22.344H3.728V24.808H7.872V27H0.992V15.768H7.872V17.96H3.728ZM9.10425 22.536C9.10425 21.608 9.29092 20.7973 9.66425 20.104C10.0483 19.4107 10.5763 18.8773 11.2483 18.504C11.9309 18.1307 12.7096 17.944 13.5843 17.944C14.7043 17.944 15.6376 18.2373 16.3843 18.824C17.1416 19.4107 17.6376 20.2373 17.8723 21.304H14.9603C14.7149 20.6213 14.2403 20.28 13.5363 20.28C13.0349 20.28 12.6349 20.4773 12.3363 20.872C12.0376 21.256 11.8883 21.8107 11.8883 22.536C11.8883 23.2613 12.0376 23.8213 12.3363 24.216C12.6349 24.6 13.0349 24.792 13.5363 24.792C14.2403 24.792 14.7149 24.4507 14.9603 23.768H17.8723C17.6376 24.8133 17.1416 25.6347 16.3843 26.232C15.6269 26.8293 14.6936 27.128 13.5843 27.128C12.7096 27.128 11.9309 26.9413 11.2483 26.568C10.5763 26.1947 10.0483 25.6613 9.66425 24.968C9.29092 24.2747 9.10425 23.464 9.10425 22.536ZM23.3998 27.128C22.5251 27.128 21.7358 26.9413 21.0318 26.568C20.3384 26.1947 19.7891 25.6613 19.3838 24.968C18.9891 24.2747 18.7918 23.464 18.7918 22.536C18.7918 21.6187 18.9944 20.8133 19.3997 20.12C19.8051 19.416 20.3598 18.8773 21.0638 18.504C21.7678 18.1307 22.5571 17.944 23.4318 17.944C24.3064 17.944 25.0958 18.1307 25.7998 18.504C26.5038 18.8773 27.0584 19.416 27.4638 20.12C27.8691 20.8133 28.0718 21.6187 28.0718 22.536C28.0718 23.4533 27.8638 24.264 27.4478 24.968C27.0424 25.6613 26.4824 26.1947 25.7678 26.568C25.0638 26.9413 24.2744 27.128 23.3998 27.128ZM23.3998 24.76C23.9224 24.76 24.3651 24.568 24.7278 24.184C25.1011 23.8 25.2878 23.2507 25.2878 22.536C25.2878 21.8213 25.1064 21.272 24.7438 20.888C24.3918 20.504 23.9544 20.312 23.4318 20.312C22.8984 20.312 22.4558 20.504 22.1038 20.888C21.7518 21.2613 21.5758 21.8107 21.5758 22.536C21.5758 23.2507 21.7464 23.8 22.0878 24.184C22.4398 24.568 22.8771 24.76 23.3998 24.76ZM34.9633 17.976C36.0086 17.976 36.8406 18.3173 37.4593 19C38.0886 19.672 38.4033 20.6 38.4033 21.784V27H35.6833V22.152C35.6833 21.5547 35.5286 21.0907 35.2193 20.76C34.9099 20.4293 34.4939 20.264 33.9713 20.264C33.4486 20.264 33.0326 20.4293 32.7233 20.76C32.4139 21.0907 32.2593 21.5547 32.2593 22.152V27H29.5233V18.072H32.2593V19.256C32.5366 18.8613 32.9099 18.552 33.3793 18.328C33.8486 18.0933 34.3766 17.976 34.9633 17.976ZM44.3685 27.128C43.4938 27.128 42.7045 26.9413 42.0005 26.568C41.3072 26.1947 40.7578 25.6613 40.3525 24.968C39.9578 24.2747 39.7605 23.464 39.7605 22.536C39.7605 21.6187 39.9632 20.8133 40.3685 20.12C40.7738 19.416 41.3285 18.8773 42.0325 18.504C42.7365 18.1307 43.5258 17.944 44.4005 17.944C45.2752 17.944 46.0645 18.1307 46.7685 18.504C47.4725 18.8773 48.0272 19.416 48.4325 20.12C48.8378 20.8133 49.0405 21.6187 49.0405 22.536C49.0405 23.4533 48.8325 24.264 48.4165 24.968C48.0112 25.6613 47.4512 26.1947 46.7365 26.568C46.0325 26.9413 45.2432 27.128 44.3685 27.128ZM44.3685 24.76C44.8912 24.76 45.3338 24.568 45.6965 24.184C46.0698 23.8 46.2565 23.2507 46.2565 22.536C46.2565 21.8213 46.0752 21.272 45.7125 20.888C45.3605 20.504 44.9232 20.312 44.4005 20.312C43.8672 20.312 43.4245 20.504 43.0725 20.888C42.7205 21.2613 42.5445 21.8107 42.5445 22.536C42.5445 23.2507 42.7152 23.8 43.0565 24.184C43.4085 24.568 43.8458 24.76 44.3685 24.76Z" fill="#32A287"/>
<path d="M61.884 17.976C62.9933 17.976 63.8733 18.312 64.524 18.984C65.1853 19.656 65.516 20.5893 65.516 21.784V27H62.796V22.152C62.796 21.576 62.6413 21.1333 62.332 20.824C62.0333 20.504 61.6173 20.344 61.084 20.344C60.5507 20.344 60.1293 20.504 59.82 20.824C59.5213 21.1333 59.372 21.576 59.372 22.152V27H56.652V22.152C56.652 21.576 56.4973 21.1333 56.188 20.824C55.8893 20.504 55.4733 20.344 54.94 20.344C54.4067 20.344 53.9853 20.504 53.676 20.824C53.3773 21.1333 53.228 21.576 53.228 22.152V27H50.492V18.072H53.228V19.192C53.5053 18.8187 53.868 18.5253 54.316 18.312C54.764 18.088 55.2707 17.976 55.836 17.976C56.508 17.976 57.1053 18.12 57.628 18.408C58.1613 18.696 58.5773 19.1067 58.876 19.64C59.1853 19.1493 59.6067 18.7493 60.14 18.44C60.6733 18.1307 61.2547 17.976 61.884 17.976ZM75.8455 22.392C75.8455 22.648 75.8295 22.9147 75.7975 23.192H69.6055C69.6482 23.7467 69.8242 24.1733 70.1335 24.472C70.4535 24.76 70.8428 24.904 71.3015 24.904C71.9842 24.904 72.4588 24.616 72.7255 24.04H75.6375C75.4882 24.6267 75.2162 25.1547 74.8215 25.624C74.4375 26.0933 73.9522 26.4613 73.3655 26.728C72.7788 26.9947 72.1228 27.128 71.3975 27.128C70.5228 27.128 69.7442 26.9413 69.0615 26.568C68.3788 26.1947 67.8455 25.6613 67.4615 24.968C67.0775 24.2747 66.8855 23.464 66.8855 22.536C66.8855 21.608 67.0722 20.7973 67.4455 20.104C67.8295 19.4107 68.3628 18.8773 69.0455 18.504C69.7282 18.1307 70.5122 17.944 71.3975 17.944C72.2615 17.944 73.0295 18.1253 73.7015 18.488C74.3735 18.8507 74.8962 19.368 75.2695 20.04C75.6535 20.712 75.8455 21.496 75.8455 22.392ZM73.0455 21.672C73.0455 21.2027 72.8855 20.8293 72.5655 20.552C72.2455 20.2747 71.8455 20.136 71.3655 20.136C70.9068 20.136 70.5175 20.2693 70.1975 20.536C69.8882 20.8027 69.6962 21.1813 69.6215 21.672H73.0455ZM82.2649 24.68V27H80.8729C79.8809 27 79.1075 26.76 78.5529 26.28C77.9982 25.7893 77.7209 24.9947 77.7209 23.896V20.344H76.6329V18.072H77.7209V15.896H80.4569V18.072H82.2489V20.344H80.4569V23.928C80.4569 24.1947 80.5209 24.3867 80.6489 24.504C80.7769 24.6213 80.9902 24.68 81.2889 24.68H82.2649ZM83.2449 22.52C83.2449 21.6027 83.4155 20.7973 83.7569 20.104C84.1089 19.4107 84.5835 18.8773 85.1809 18.504C85.7782 18.1307 86.4449 17.944 87.1809 17.944C87.8102 17.944 88.3595 18.072 88.8289 18.328C89.3089 18.584 89.6769 18.92 89.9329 19.336V18.072H92.6689V27H89.9329V25.736C89.6662 26.152 89.2929 26.488 88.8129 26.744C88.3435 27 87.7942 27.128 87.1649 27.128C86.4395 27.128 85.7782 26.9413 85.1809 26.568C84.5835 26.184 84.1089 25.6453 83.7569 24.952C83.4155 24.248 83.2449 23.4373 83.2449 22.52ZM89.9329 22.536C89.9329 21.8533 89.7409 21.3147 89.3569 20.92C88.9835 20.5253 88.5249 20.328 87.9809 20.328C87.4369 20.328 86.9729 20.5253 86.5889 20.92C86.2155 21.304 86.0289 21.8373 86.0289 22.52C86.0289 23.2027 86.2155 23.7467 86.5889 24.152C86.9729 24.5467 87.4369 24.744 87.9809 24.744C88.5249 24.744 88.9835 24.5467 89.3569 24.152C89.7409 23.7573 89.9329 23.2187 89.9329 22.536ZM98.2803 27.128C97.5016 27.128 96.8083 26.9947 96.2003 26.728C95.5923 26.4613 95.1123 26.0987 94.7603 25.64C94.4083 25.1707 94.2109 24.648 94.1683 24.072H96.8723C96.9043 24.3813 97.0483 24.632 97.3043 24.824C97.5603 25.016 97.8749 25.112 98.2483 25.112C98.5896 25.112 98.8509 25.048 99.0323 24.92C99.2243 24.7813 99.3203 24.6053 99.3203 24.392C99.3203 24.136 99.1869 23.9493 98.9203 23.832C98.6536 23.704 98.2216 23.5653 97.6243 23.416C96.9843 23.2667 96.4509 23.112 96.0243 22.952C95.5976 22.7813 95.2296 22.52 94.9203 22.168C94.6109 21.8053 94.4563 21.32 94.4563 20.712C94.4563 20.2 94.5949 19.736 94.8723 19.32C95.1603 18.8933 95.5763 18.5573 96.1203 18.312C96.6749 18.0667 97.3309 17.944 98.0883 17.944C99.2083 17.944 100.088 18.2213 100.728 18.776C101.379 19.3307 101.752 20.0667 101.848 20.984H99.3203C99.2776 20.6747 99.1389 20.4293 98.9043 20.248C98.6803 20.0667 98.3816 19.976 98.0083 19.976C97.6883 19.976 97.4429 20.04 97.2723 20.168C97.1016 20.2853 97.0163 20.4507 97.0163 20.664C97.0163 20.92 97.1496 21.112 97.4163 21.24C97.6936 21.368 98.1203 21.496 98.6963 21.624C99.3576 21.7947 99.8963 21.9653 100.312 22.136C100.728 22.296 101.091 22.5627 101.4 22.936C101.72 23.2987 101.886 23.7893 101.896 24.408C101.896 24.9307 101.747 25.4 101.448 25.816C101.16 26.2213 100.739 26.5413 100.184 26.776C99.6403 27.0107 99.0056 27.128 98.2803 27.128Z" fill="#312F2F"/>
<g filter="url(#filter0_d)">
<path d="M135.558 8.34961L141.047 9.56066C141.339 9.62495 141.624 9.71584 141.898 9.83218L144.494 10.931C147.461 12.1868 148.615 15.7416 151.042 17.8601V17.8601C151.456 18.2209 151.945 18.4885 152.408 18.6843C153.323 19.0714 154.067 19.9054 154.067 20.8995V22.2007C154.067 23.3796 153.03 24.297 151.884 24.5762C151.253 24.7301 150.595 25.0003 150.074 25.4685V25.4685C148.083 27.2608 146.302 29.3992 144.329 31.2119C144.218 31.3141 144.116 31.4206 144.026 31.5314C143.319 32.3963 142.987 33.8077 142.832 34.98C142.685 36.0852 141.783 37 140.668 37H139.95C139.187 37 138.49 36.5654 138.154 35.8799L137.679 34.9102C137.343 34.2247 136.646 33.7902 135.883 33.7902H131.171C130.263 33.7902 129.468 34.4019 129.237 35.28L129.176 35.5102C128.944 36.3882 128.15 37 127.242 37H126.555C125.547 37 124.697 36.2486 124.474 35.2654C124.227 34.1742 123.823 32.8042 123.218 31.8881V31.8881C120.541 27.8341 116.351 24.1693 117.022 19.3574L117.049 19.1678L117.24 18.0781C117.876 14.4541 120.271 11.3419 123.702 10.0139V10.0139C124.69 9.63164 129.146 8.34961 129.146 8.34961" stroke="#32A287" stroke-width="2"/>
</g>
<g filter="url(#filter1_d)">
<path d="M141.485 18.2168C142.453 20 144.51 20.1189 145.598 18.2168" stroke="#32A287" stroke-width="1.5"/>
</g>
<ellipse cx="141.486" cy="18.2169" rx="0.483895" ry="0.475525" fill="#32A287"/>
<ellipse cx="145.599" cy="18.2169" rx="0.483895" ry="0.475525" fill="#32A287"/>
<g filter="url(#filter2_d)">
<path d="M129.025 8.34961C129.388 8.34961 130.961 11.0839 130.961 11.0839L129.509 14.0559L131.929 17.0279L132.775 21.3077L135.316 16.9091L133.985 14.0559L136.889 11.0839C136.889 11.0839 135.195 8.34961 135.679 8.34961" stroke="#32A287" stroke-width="2"/>
</g>
<g filter="url(#filter3_d)">
<path d="M134.483 3L134.484 4.66435M134.489 24.3987L134.488 22.4966M134.484 5.6154L134.486 12.8672M134.486 13.4616L134.488 21.8414" stroke="#F5AC37" stroke-width="2"/>
</g>
<g filter="url(#filter4_d)">
<path d="M131.577 3L131.578 4.64826M131.585 24.4274L131.585 22.5436M131.578 5.59012L131.581 12.5364M131.581 13.3605L131.584 21.6593" stroke="#F5AC37" stroke-width="2"/>
</g>
<g filter="url(#filter5_d)">
<path d="M136.98 4.9021H131.533C130.093 4.9021 128.788 5.75066 128.204 7.06694V7.06694C127.114 9.52374 129.415 12.3209 132.093 12.542C134.927 12.776 137.669 13.8686 137.978 17.1469C138.638 24.1608 128.421 21.7832 128.421 21.7832" stroke="#F5AC37" stroke-width="3"/>
</g>
<ellipse cx="136.889" cy="4.9021" rx="0.967791" ry="0.951049" fill="#F5AC37"/>
<ellipse cx="128.42" cy="21.7832" rx="0.967791" ry="0.951049" fill="#F5AC37"/>
<ellipse cx="111.484" cy="18.5734" rx="0.483895" ry="0.475525" fill="#32A287"/>
<path d="M116.807 21.0699C116.807 21.0699 116.076 21.4141 114.992 21.3076C113.783 21.1888 113.563 19.0133 114.508 18.2167C115.355 17.5035 116.202 18.3356 115.705 19.4055C114.696 21.5793 111.968 20.4755 111.484 18.5734" stroke="#32A287" stroke-width="1.5"/>
<path d="M116.807 21.0699C116.807 21.0699 116.076 21.4141 114.992 21.3076C113.783 21.1888 113.563 19.0133 114.508 18.2167C115.355 17.5035 116.202 18.3356 115.705 19.4055C114.696 21.5793 111.968 20.4755 111.484 18.5734" stroke="#32A287" stroke-width="1.5"/>
<defs>
<filter id="filter0_d" x="111.95" y="4.37305" width="47.1163" height="38.6269" filterUnits="userSpaceOnUse" color-interpolation-filters="sRGB">
<feFlood flood-opacity="0" result="BackgroundImageFix"/>
<feColorMatrix in="SourceAlpha" type="matrix" values="0 0 0 0 0 0 0 0 0 0 0 0 0 0 0 0 0 0 127 0"/>
<feOffset dy="1"/>
<feGaussianBlur stdDeviation="2"/>
<feColorMatrix type="matrix" values="0 0 0 0 0 0 0 0 0 0 0 0 0 0 0 0 0 0 0.25 0"/>
<feBlend mode="normal" in2="BackgroundImageFix" result="effect1_dropShadow"/>
<feBlend mode="normal" in="SourceGraphic" in2="effect1_dropShadow" result="shape"/>
</filter>
<filter id="filter1_d" x="136.826" y="14.8442" width="13.4232" height="10.5049" filterUnits="userSpaceOnUse" color-interpolation-filters="sRGB">
<feFlood flood-opacity="0" result="BackgroundImageFix"/>
<feColorMatrix in="SourceAlpha" type="matrix" values="0 0 0 0 0 0 0 0 0 0 0 0 0 0 0 0 0 0 127 0"/>
<feOffset dy="1"/>
<feGaussianBlur stdDeviation="2"/>
<feColorMatrix type="matrix" values="0 0 0 0 0 0 0 0 0 0 0 0 0 0 0 0 0 0 0.25 0"/>
<feBlend mode="normal" in2="BackgroundImageFix" result="effect1_dropShadow"/>
<feBlend mode="normal" in="SourceGraphic" in2="effect1_dropShadow" result="shape"/>
</filter>
<filter id="filter2_d" x="124.33" y="7.34961" width="17.8208" height="24.7619" filterUnits="userSpaceOnUse" color-interpolation-filters="sRGB">
<feFlood flood-opacity="0" result="BackgroundImageFix"/>
<feColorMatrix in="SourceAlpha" type="matrix" values="0 0 0 0 0 0 0 0 0 0 0 0 0 0 0 0 0 0 127 0"/>
<feOffset dy="4"/>
<feGaussianBlur stdDeviation="2"/>
<feColorMatrix type="matrix" values="0 0 0 0 0 0 0 0 0 0 0 0 0 0 0 0 0 0 0.25 0"/>
<feBlend mode="normal" in2="BackgroundImageFix" result="effect1_dropShadow"/>
<feBlend mode="normal" in="SourceGraphic" in2="effect1_dropShadow" result="shape"/>
</filter>
<filter id="filter3_d" x="129.483" y="2.99988" width="10.0055" height="29.399" filterUnits="userSpaceOnUse" color-interpolation-filters="sRGB">
<feFlood flood-opacity="0" result="BackgroundImageFix"/>
<feColorMatrix in="SourceAlpha" type="matrix" values="0 0 0 0 0 0 0 0 0 0 0 0 0 0 0 0 0 0 127 0"/>
<feOffset dy="4"/>
<feGaussianBlur stdDeviation="2"/>
<feColorMatrix type="matrix" values="0 0 0 0 0 0 0 0 0 0 0 0 0 0 0 0 0 0 0.25 0"/>
<feBlend mode="normal" in2="BackgroundImageFix" result="effect1_dropShadow"/>
<feBlend mode="normal" in="SourceGraphic" in2="effect1_dropShadow" result="shape"/>
</filter>
<filter id="filter4_d" x="126.577" y="2.99976" width="10.008" height="29.4279" filterUnits="userSpaceOnUse" color-interpolation-filters="sRGB">
<feFlood flood-opacity="0" result="BackgroundImageFix"/>
<feColorMatrix in="SourceAlpha" type="matrix" values="0 0 0 0 0 0 0 0 0 0 0 0 0 0 0 0 0 0 127 0"/>
<feOffset dy="4"/>
<feGaussianBlur stdDeviation="2"/>
<feColorMatrix type="matrix" values="0 0 0 0 0 0 0 0 0 0 0 0 0 0 0 0 0 0 0.25 0"/>
<feBlend mode="normal" in2="BackgroundImageFix" result="effect1_dropShadow"/>
<feBlend mode="normal" in="SourceGraphic" in2="effect1_dropShadow" result="shape"/>
</filter>
<filter id="filter5_d" x="122.426" y="0.4021" width="21.082" height="28.2692" filterUnits="userSpaceOnUse" color-interpolation-filters="sRGB">
<feFlood flood-opacity="0" result="BackgroundImageFix"/>
<feColorMatrix in="SourceAlpha" type="matrix" values="0 0 0 0 0 0 0 0 0 0 0 0 0 0 0 0 0 0 127 0"/>
<feOffset dy="1"/>
<feGaussianBlur stdDeviation="2"/>
<feColorMatrix type="matrix" values="0 0 0 0 0 0 0 0 0 0 0 0 0 0 0 0 0 0 0.25 0"/>
<feBlend mode="normal" in2="BackgroundImageFix" result="effect1_dropShadow"/>
<feBlend mode="normal" in="SourceGraphic" in2="effect1_dropShadow" result="shape"/>
</filter>
</defs>
</svg>
