<svg viewBox="-1 -3 35 20" fill="none" xmlns="http://www.w3.org/2000/svg">
<g clip-path="url(#clip0)">
<path d="M10.8365 4.53742L13.3665 1.47848C13.8652 0.932969 13.512 0 12.8065 0H0.793465C0.0879648 0 -0.265285 0.932969 0.233465 1.47848L4.79996 7V11.2634C4.79996 11.6077 4.94822 11.9317 5.19997 12.1384L7.19971 13.7791C7.72121 14.2067 8.41146 13.9696 8.68021 13.408C7.76996 12.4518 7.19997 11.1111 7.19997 9.625C7.19997 7.1698 8.75121 5.10863 10.8365 4.53742ZM12 5.25C9.79072 5.25 7.99997 7.20863 7.99997 9.625C7.99997 12.0414 9.79072 14 12 14C14.2092 14 16 12.0414 16 9.625C16 7.20863 14.2092 5.25 12 5.25ZM12.4 11.8092V12.25C12.4 12.3709 12.3105 12.4688 12.2 12.4688H11.8C11.6895 12.4688 11.6 12.3709 11.6 12.25V11.8046C11.3177 11.7887 11.0432 11.681 10.8157 11.4942C10.7182 11.4141 10.7132 11.2544 10.8015 11.1623L11.0952 10.8557C11.1645 10.7836 11.2675 10.7803 11.3485 10.8358C11.4452 10.902 11.555 10.9375 11.669 10.9375H12.3717C12.5342 10.9375 12.6667 10.7756 12.6667 10.5768C12.6667 10.4141 12.5765 10.2709 12.4475 10.2287L11.3225 9.85961C10.8577 9.70703 10.533 9.21922 10.533 8.67316C10.533 8.0027 11.0092 7.45801 11.5997 7.44078V7C11.5997 6.87914 11.6892 6.78125 11.7997 6.78125H12.1997C12.3102 6.78125 12.3997 6.87914 12.3997 7V7.44543C12.682 7.46129 12.9565 7.56875 13.184 7.75578C13.2815 7.8359 13.2865 7.99559 13.1982 8.08773L12.9045 8.39426C12.8352 8.46644 12.7322 8.46973 12.6512 8.41422C12.5545 8.34777 12.4447 8.3125 12.3307 8.3125H11.628C11.4655 8.3125 11.333 8.47437 11.333 8.67316C11.333 8.83586 11.4232 8.97914 11.5522 9.02125L12.6772 9.39039C13.142 9.54297 13.4667 10.0308 13.4667 10.5768C13.4667 11.2476 12.9907 11.792 12.4 11.8092Z" fill="#A23232"/>
</g>
<defs>
<clipPath id="clip0">
<rect width="16" height="14" fill="white"/>
</clipPath>
</defs>
</svg>
