<svg width="105" height="121" viewBox="0 0 105 121" fill="none" xmlns="http://www.w3.org/2000/svg">
<g filter="url(#filter0_d)">
<path d="M57.0225 45.3882L69.7235 48.2943C70.4306 48.4561 71.121 48.6844 71.7852 48.976L77.4772 51.4752C84.5603 54.5851 87.2431 63.1008 92.9777 68.2927V68.2927C94.6413 69.7989 96.8339 70.631 98.3234 71.056C99.2755 71.3276 100 72.1746 100 73.1646V81.8341C100 83.0157 98.9777 83.9588 97.7984 84.0325C95.7751 84.159 92.787 84.6962 90.7305 86.6164V86.6164C86.0465 90.9901 81.7354 96.0619 77.2233 100.613C77.0295 100.808 76.8494 101.01 76.6855 101.218C74.4273 104.086 73.8173 109.447 73.654 112.367C73.5918 113.48 72.6844 114.388 71.5699 114.388H65.5931C64.8194 114.388 64.1151 113.942 63.7847 113.242L61.2154 107.804C60.885 107.104 60.1807 106.658 59.4071 106.658H44.8134C43.8987 106.658 43.1006 107.278 42.8751 108.165L41.6754 112.881C41.45 113.768 40.6518 114.388 39.7372 114.388H33.7945C32.7831 114.388 31.9277 113.636 31.7579 112.639C31.3112 110.015 30.2653 105.052 28.3707 102.077V102.077C22.2336 92.4396 12.3895 83.7585 13.9114 72.4347L14.0448 71.4421L14.5585 68.4056C15.9929 59.9261 21.5134 52.6001 29.4943 49.3965V49.3965C31.788 48.4758 42.1348 45.3882 42.1348 45.3882" stroke="#D5D5D5" stroke-width="2"/>
</g>
<g filter="url(#filter1_d)">
<path d="M70.7866 69.1514C73.0338 73.446 77.8091 73.7323 80.3372 69.1514" stroke="#D5D5D5" stroke-width="1.5"/>
</g>
<ellipse cx="70.7872" cy="69.1516" rx="1.1236" ry="1.14523" fill="#D5D5D5"/>
<ellipse cx="80.3375" cy="69.1516" rx="1.1236" ry="1.14523" fill="#D5D5D5"/>
<g filter="url(#filter2_d)">
<path d="M41.8545 45.3882C42.6972 45.3882 46.3489 51.9733 46.3489 51.9733L42.9781 59.131L48.5961 66.2886L50.5624 76.5957L56.4613 66.0023L53.3714 59.131L60.113 51.9733C60.113 51.9733 56.1804 45.3882 57.304 45.3882" stroke="#D5D5D5" stroke-width="2"/>
</g>
<ellipse cx="1.1236" cy="70.0109" rx="1.1236" ry="1.14523" fill="#D5D5D5"/>
<path d="M13.4837 76.0231C13.4837 76.0231 11.7858 76.8521 9.27023 76.5957C6.46123 76.3094 5.95088 71.0701 8.14663 69.1517C10.1128 67.4338 12.0791 69.438 10.9253 72.0148C8.58121 77.25 2.24762 74.5915 1.12402 70.0106" stroke="#D5D5D5" stroke-width="1.5"/>
<path d="M13.4837 76.0231C13.4837 76.0231 11.7858 76.8521 9.27023 76.5957C6.46123 76.3094 5.95088 71.0701 8.14663 69.1517C10.1128 67.4338 12.0791 69.438 10.9253 72.0148C8.58121 77.25 2.24762 74.5915 1.12402 70.0106" stroke="#D5D5D5" stroke-width="1.5"/>
<rect x="52.5" y="34.7632" width="6" height="7.08333" fill="white"/>
<path d="M58.5002 29.8047C59.8727 29.8041 61.2039 30.2479 62.2719 31.0621C63.3398 31.8763 64.0799 33.0116 64.3687 34.2789C64.6575 35.5461 64.4776 36.8685 63.859 38.0256C63.2404 39.1826 62.2204 40.1044 60.9692 40.6372C60.5693 41.4723 59.9609 42.2033 59.1961 42.7675C58.4314 43.3317 57.5331 43.7123 56.5784 43.8767C55.6237 44.041 54.6411 43.9842 53.7147 43.7112C52.7884 43.4381 51.946 42.9569 51.2598 42.3088C50.5736 41.6607 50.0641 40.8651 49.775 39.9903C49.4858 39.1154 49.4257 38.1873 49.5997 37.2857C49.7737 36.384 50.1767 35.5357 50.7741 34.8134C51.3716 34.0912 52.1455 33.5165 53.0297 33.1388C53.5053 32.1449 54.2744 31.3018 55.2447 30.7104C56.215 30.119 57.3454 29.8045 58.5002 29.8047ZM56.2502 34.763H54.7502V35.4714C54.2628 35.4702 53.7941 35.6484 53.4434 35.9681C53.0927 36.2879 52.8877 36.724 52.8717 37.1841C52.8557 37.6442 53.03 38.0921 53.3577 38.4328C53.6854 38.7736 54.1408 38.9804 54.6272 39.0095L54.7502 39.013H56.2502L56.3177 39.0187C56.4042 39.0335 56.4824 39.0765 56.5387 39.1402C56.595 39.2039 56.6259 39.2842 56.6259 39.3672C56.6259 39.4502 56.595 39.5305 56.5387 39.5942C56.4824 39.6579 56.4042 39.7009 56.3177 39.7157L56.2502 39.7214H53.2502V41.138H54.7502V41.8464H56.2502V41.138C56.7376 41.1391 57.2064 40.961 57.557 40.6412C57.9077 40.3215 58.1128 39.8854 58.1288 39.4253C58.1448 38.9652 57.9704 38.5173 57.6427 38.1766C57.315 37.8358 56.8597 37.629 56.3732 37.5999L56.2502 37.5964H54.7502L54.6827 37.5907C54.5963 37.5759 54.518 37.5329 54.4617 37.4692C54.4054 37.4055 54.3745 37.3252 54.3745 37.2422C54.3745 37.1592 54.4054 37.0789 54.4617 37.0152C54.518 36.9515 54.5963 36.9085 54.6827 36.8937L54.7502 36.888H57.7502V35.4714H56.2502V34.763ZM58.5002 31.2214C57.8647 31.2207 57.2363 31.3474 56.6566 31.5932C56.0768 31.839 55.559 32.1983 55.1372 32.6472C55.9849 32.5986 56.8339 32.7205 57.628 33.0049C58.4221 33.2893 59.1432 33.7296 59.7437 34.2968C60.3442 34.864 60.8103 35.5451 61.1113 36.2951C61.4123 37.0451 61.5413 37.8469 61.4897 38.6475C62.1716 38.0749 62.6531 37.3201 62.8703 36.4831C63.0875 35.6461 63.0302 34.7665 62.7059 33.961C62.3817 33.1555 61.8058 32.4621 61.0547 31.9728C60.3035 31.4835 59.4127 31.2215 58.5002 31.2214Z" fill="#D5D5D5"/>
<rect x="39.75" y="7.125" width="6.33333" height="7.91667" fill="white"/>
<path d="M46.0831 1.5835C47.5318 1.58281 48.937 2.07882 50.0643 2.9888C51.1915 3.89879 51.9728 5.16775 52.2776 6.58403C52.5825 8.00032 52.3926 9.47832 51.7396 10.7715C51.0866 12.0647 50.01 13.095 48.6893 13.6905C48.2671 14.6238 47.6249 15.4407 46.8177 16.0713C46.0104 16.7019 45.0623 17.1273 44.0546 17.311C43.0468 17.4947 42.0096 17.4312 41.0318 17.126C40.054 16.8208 39.1648 16.283 38.4404 15.5587C37.7161 14.8344 37.1783 13.9452 36.8731 12.9674C36.5679 11.9896 36.5044 10.9523 36.6881 9.94458C36.8718 8.93685 37.2972 7.98871 37.9278 7.18148C38.5584 6.37425 39.3754 5.73202 40.3087 5.30987C40.8107 4.19908 41.6225 3.25669 42.6467 2.59573C43.671 1.93477 44.8641 1.58331 46.0831 1.5835ZM43.7081 7.12516H42.1248V7.91683C41.6103 7.91558 41.1155 8.11473 40.7454 8.47206C40.3752 8.82939 40.1587 9.31683 40.1419 9.83105C40.125 10.3453 40.309 10.8458 40.6549 11.2267C41.0008 11.6075 41.4815 11.8387 41.9949 11.8712L42.1248 11.8752H43.7081L43.7794 11.8815C43.8706 11.898 43.9532 11.9461 44.0126 12.0173C44.0721 12.0884 44.1047 12.1782 44.1047 12.271C44.1047 12.3637 44.0721 12.4536 44.0126 12.5247C43.9532 12.5959 43.8706 12.644 43.7794 12.6605L43.7081 12.6668H40.5414V14.2502H42.1248V15.0418H43.7081V14.2502C44.2226 14.2514 44.7174 14.0523 45.0875 13.6949C45.4577 13.3376 45.6741 12.8502 45.691 12.336C45.7079 11.8217 45.5239 11.3212 45.178 10.9403C44.832 10.5595 44.3514 10.3283 43.8379 10.2958L43.7081 10.2918H42.1248L42.0535 10.2855C41.9623 10.269 41.8797 10.2209 41.8202 10.1497C41.7608 10.0786 41.7282 9.98875 41.7282 9.896C41.7282 9.80325 41.7608 9.71344 41.8202 9.64226C41.8797 9.57107 41.9623 9.52302 42.0535 9.5065L42.1248 9.50016H45.2914V7.91683H43.7081V7.12516ZM46.0831 3.16683C45.4123 3.16605 44.749 3.3077 44.137 3.58242C43.5251 3.85715 42.9784 4.25868 42.5333 4.76046C43.4281 4.70614 44.3242 4.84239 45.1624 5.1602C46.0006 5.47802 46.7618 5.97016 47.3956 6.60407C48.0295 7.23799 48.5215 7.99924 48.8392 8.83749C49.157 9.67573 49.2931 10.5719 49.2387 11.4667C49.9585 10.8267 50.4667 9.98304 50.696 9.04758C50.9253 8.11212 50.8648 7.12905 50.5225 6.22878C50.1802 5.3285 49.5723 4.55354 48.7795 4.0067C47.9866 3.45985 47.0463 3.16694 46.0831 3.16683Z" fill="#D5D5D5"/>
<rect x="64.5" y="12.6382" width="7.33333" height="9.16667" fill="white"/>
<path d="M71.8332 6.22168C73.5107 6.22088 75.1377 6.79521 76.443 7.84888C77.7483 8.90255 78.6528 10.3719 79.0058 12.0118C79.3588 13.6517 79.139 15.3631 78.3828 16.8605C77.6267 18.3579 76.3801 19.5508 74.8509 20.2403C74.3621 21.3209 73.6184 22.2669 72.6838 22.9971C71.7491 23.7272 70.6512 24.2198 69.4844 24.4325C68.3175 24.6452 67.1165 24.5717 65.9843 24.2183C64.8521 23.8649 63.8225 23.2422 62.9838 22.4035C62.1451 21.5648 61.5224 20.5352 61.169 19.403C60.8156 18.2708 60.7421 17.0698 60.9548 15.9029C61.1675 14.7361 61.6601 13.6382 62.3902 12.7036C63.1204 11.7689 64.0664 11.0252 65.1471 10.5364C65.7283 9.25025 66.6683 8.15906 67.8543 7.39374C69.0402 6.62842 70.4218 6.22146 71.8332 6.22168ZM69.0832 12.6383H67.2499V13.555C66.6542 13.5536 66.0813 13.7842 65.6527 14.1979C65.2241 14.6117 64.9734 15.1761 64.9539 15.7715C64.9343 16.3669 65.1474 16.9465 65.5479 17.3875C65.9485 17.8285 66.505 18.0961 67.0996 18.1338L67.2499 18.1383H69.0832L69.1657 18.1457C69.2714 18.1648 69.367 18.2204 69.4358 18.3029C69.5047 18.3853 69.5424 18.4893 69.5424 18.5967C69.5424 18.7041 69.5047 18.8081 69.4358 18.8905C69.367 18.9729 69.2714 19.0285 69.1657 19.0477L69.0832 19.055H65.4166V20.8883H67.2499V21.805H69.0832V20.8883C69.6789 20.8898 70.2518 20.6592 70.6804 20.2455C71.109 19.8317 71.3597 19.2673 71.3792 18.6719C71.3988 18.0765 71.1857 17.4969 70.7852 17.0559C70.3846 16.6149 69.8281 16.3472 69.2336 16.3096L69.0832 16.305H67.2499L67.1674 16.2977C67.0617 16.2785 66.9661 16.2229 66.8973 16.1405C66.8284 16.0581 66.7907 15.9541 66.7907 15.8467C66.7907 15.7393 66.8284 15.6353 66.8973 15.5529C66.9661 15.4704 67.0617 15.4148 67.1674 15.3957L67.2499 15.3883H70.9166V13.555H69.0832V12.6383ZM71.8332 8.05501C71.0565 8.0541 70.2885 8.21813 69.5799 8.53623C68.8713 8.85433 68.2384 9.31926 67.7229 9.90026C68.759 9.83737 69.7966 9.99513 70.7671 10.3631C71.7377 10.7311 72.6191 11.301 73.353 12.035C74.0869 12.769 74.6567 13.6504 75.0245 14.621C75.3924 15.5916 75.5501 16.6293 75.4871 17.6653C76.3205 16.9243 76.909 15.9475 77.1745 14.8643C77.44 13.7811 77.3699 12.6429 76.9736 11.6004C76.5772 10.558 75.8734 9.66068 74.9553 9.02749C74.0373 8.3943 72.9484 8.05514 71.8332 8.05501Z" fill="#D5D5D5"/>
<defs>
<filter id="filter0_d" x="8.75342" y="41.4136" width="96.2466" height="78.9748" filterUnits="userSpaceOnUse" color-interpolation-filters="sRGB">
<feFlood flood-opacity="0" result="BackgroundImageFix"/>
<feColorMatrix in="SourceAlpha" type="matrix" values="0 0 0 0 0 0 0 0 0 0 0 0 0 0 0 0 0 0 127 0"/>
<feOffset dy="1"/>
<feGaussianBlur stdDeviation="2"/>
<feColorMatrix type="matrix" values="0 0 0 0 0 0 0 0 0 0 0 0 0 0 0 0 0 0 0.25 0"/>
<feBlend mode="normal" in2="BackgroundImageFix" result="effect1_dropShadow"/>
<feBlend mode="normal" in="SourceGraphic" in2="effect1_dropShadow" result="shape"/>
</filter>
<filter id="filter1_d" x="66.1221" y="65.7891" width="18.8718" height="12.4416" filterUnits="userSpaceOnUse" color-interpolation-filters="sRGB">
<feFlood flood-opacity="0" result="BackgroundImageFix"/>
<feColorMatrix in="SourceAlpha" type="matrix" values="0 0 0 0 0 0 0 0 0 0 0 0 0 0 0 0 0 0 127 0"/>
<feOffset dy="1"/>
<feGaussianBlur stdDeviation="2"/>
<feColorMatrix type="matrix" values="0 0 0 0 0 0 0 0 0 0 0 0 0 0 0 0 0 0 0.25 0"/>
<feBlend mode="normal" in2="BackgroundImageFix" result="effect1_dropShadow"/>
<feBlend mode="normal" in="SourceGraphic" in2="effect1_dropShadow" result="shape"/>
</filter>
<filter id="filter2_d" x="37.4922" y="44.3882" width="27.8665" height="43.1002" filterUnits="userSpaceOnUse" color-interpolation-filters="sRGB">
<feFlood flood-opacity="0" result="BackgroundImageFix"/>
<feColorMatrix in="SourceAlpha" type="matrix" values="0 0 0 0 0 0 0 0 0 0 0 0 0 0 0 0 0 0 127 0"/>
<feOffset dy="4"/>
<feGaussianBlur stdDeviation="2"/>
<feColorMatrix type="matrix" values="0 0 0 0 0 0 0 0 0 0 0 0 0 0 0 0 0 0 0.25 0"/>
<feBlend mode="normal" in2="BackgroundImageFix" result="effect1_dropShadow"/>
<feBlend mode="normal" in="SourceGraphic" in2="effect1_dropShadow" result="shape"/>
</filter>
</defs>
</svg>
