<svg width="72" height="49" viewBox="0 0 72 49" fill="none" xmlns="http://www.w3.org/2000/svg">
<g filter="url(#filter0_d)">
<path d="M47.458 23.3301C49.9736 23.3301 52.7139 23.6895 55.6787 24.4082C58.6436 25.127 61.3838 26.2949 63.8994 27.9121C66.415 29.5293 67.6729 31.3711 67.6729 33.4375V40.5801H50.4229V33.4375C50.4229 29.4844 48.5361 26.1602 44.7627 23.4648C45.3916 23.375 46.29 23.3301 47.458 23.3301ZM16.3271 24.4082C19.292 23.6895 22.0322 23.3301 24.5479 23.3301C27.0635 23.3301 29.8037 23.6895 32.7686 24.4082C35.7334 25.127 38.4287 26.2949 40.8545 27.9121C43.3701 29.5293 44.6279 31.3711 44.6279 33.4375V40.5801H4.33301V33.4375C4.33301 31.3711 5.59082 29.5293 8.10645 27.9121C10.6221 26.2949 13.3623 25.127 16.3271 24.4082ZM30.4775 15.1094C28.8604 16.8164 26.8838 17.6699 24.5479 17.6699C22.2119 17.6699 20.1904 16.8164 18.4834 15.1094C16.7764 13.4023 15.9229 11.3809 15.9229 9.04492C15.9229 6.70898 16.7764 4.6875 18.4834 2.98047C20.1904 1.27344 22.2119 0.419922 24.5479 0.419922C26.8838 0.419922 28.8604 1.27344 30.4775 2.98047C32.1846 4.6875 33.0381 6.70898 33.0381 9.04492C33.0381 11.3809 32.1846 13.4023 30.4775 15.1094ZM53.5225 15.1094C51.8154 16.8164 49.7939 17.6699 47.458 17.6699C45.1221 17.6699 43.1006 16.8164 41.3936 15.1094C39.6865 13.4023 38.833 11.3809 38.833 9.04492C38.833 6.70898 39.6865 4.6875 41.3936 2.98047C43.1006 1.27344 45.1221 0.419922 47.458 0.419922C49.7939 0.419922 51.8154 1.27344 53.5225 2.98047C55.2295 4.6875 56.083 6.70898 56.083 9.04492C56.083 11.3809 55.2295 13.4023 53.5225 15.1094Z" fill="#44CF6C"/>
</g>
<defs>
<filter id="filter0_d" x="0.333008" y="0.419922" width="71.3398" height="48.1602" filterUnits="userSpaceOnUse" color-interpolation-filters="sRGB">
<feFlood flood-opacity="0" result="BackgroundImageFix"/>
<feColorMatrix in="SourceAlpha" type="matrix" values="0 0 0 0 0 0 0 0 0 0 0 0 0 0 0 0 0 0 127 0"/>
<feOffset dy="4"/>
<feGaussianBlur stdDeviation="2"/>
<feColorMatrix type="matrix" values="0 0 0 0 0 0 0 0 0 0 0 0 0 0 0 0 0 0 0.25 0"/>
<feBlend mode="normal" in2="BackgroundImageFix" result="effect1_dropShadow"/>
<feBlend mode="normal" in="SourceGraphic" in2="effect1_dropShadow" result="shape"/>
</filter>
</defs>
</svg>
