<svg width="20" height="16" viewBox="0 0 20 16" fill="none" xmlns="http://www.w3.org/2000/svg">
<path d="M15.5 11.75H16.375C16.625 11.75 16.875 11.5 16.875 11.25V2.25C16.875 2 16.625 1.75 16.375 1.75H15.5C15.25 1.75 15 2 15 2.25V11.25C15 11.5 15.25 11.75 15.5 11.75ZM8 11.75H8.875C9.125 11.75 9.375 11.5 9.375 11.25V3.5C9.375 3.25 9.125 3 8.875 3H8C7.75 3 7.5 3.25 7.5 3.5V11.25C7.5 11.5 7.75 11.75 8 11.75ZM11.75 11.75H12.625C12.875 11.75 13.125 11.5 13.125 11.25V6C13.125 5.75 12.875 5.5 12.625 5.5H11.75C11.5 5.5 11.25 5.75 11.25 6V11.25C11.25 11.5 11.5 11.75 11.75 11.75ZM19.375 13.625H1.875V1.125C1.875 0.779687 1.59531 0.5 1.25 0.5H0.625C0.279687 0.5 0 0.779687 0 1.125V14.25C0 14.9402 0.559766 15.5 1.25 15.5H19.375C19.7203 15.5 20 15.2203 20 14.875V14.25C20 13.9047 19.7203 13.625 19.375 13.625ZM4.25 11.75H5.125C5.375 11.75 5.625 11.5 5.625 11.25V8.5C5.625 8.25 5.375 8 5.125 8H4.25C4 8 3.75 8.25 3.75 8.5V11.25C3.75 11.5 4 11.75 4.25 11.75Z" fill="white"/>
</svg>
