<svg width="24" height="24" viewBox="0 0 24 24" fill="none" xmlns="http://www.w3.org/2000/svg">
<path d="M8.073 12.194L4.212 8.33303C2.692 9.99003 2.116 11.65 2.106 11.684L2 12L2.105 12.316C2.127 12.383 4.421 19 12.054 19C12.983 19 13.829 18.898 14.606 18.727L11.86 15.981C10.8713 15.9326 9.93595 15.518 9.23598 14.818C8.53601 14.1181 8.12147 13.1827 8.073 12.194ZM12.054 5.00003C10.199 5.00003 8.679 5.40403 7.412 5.99803L3.707 2.29303L2.293 3.70703L20.293 21.707L21.707 20.293L18.409 16.995C21.047 15.042 21.988 12.358 22.002 12.316L22.107 12L22.002 11.684C21.98 11.617 19.687 5.00003 12.054 5.00003ZM13.96 12.546C14.147 11.869 13.988 11.107 13.468 10.586C12.948 10.065 12.185 9.90703 11.508 10.094L10 8.58603C10.618 8.20601 11.3285 8.00328 12.054 8.00003C14.26 8.00003 16.054 9.79403 16.054 12C16.051 12.7253 15.8479 13.4358 15.467 14.053L13.96 12.546Z" fill="white"/>
</svg>
