<svg width="78" height="78" viewBox="0 0 78 78" fill="none" xmlns="http://www.w3.org/2000/svg">
<circle cx="39" cy="39" r="39" fill="#312F2F"/>
<path d="M29.2565 43.7248C30.3047 42.8452 30.9878 41.6891 31.3099 40.258H41.6577C41.1834 44.3487 39.4655 47.6605 36.5053 50.196C33.5438 52.7316 29.8978 54 25.57 54C22.4131 54 19.5715 53.3348 17.0438 52.0057C14.5162 50.6765 12.5436 48.8295 11.1262 46.4644C9.70872 44.0994 9 41.445 9 38.5C9 35.555 9.70872 32.9006 11.1262 30.5356C12.5436 28.1705 14.5162 26.3235 17.0438 24.9943C19.5715 23.6639 22.4131 23 25.57 23C29.8291 23 33.4252 24.2232 36.3585 26.6709C39.2904 29.1173 41.0231 32.3245 41.5526 36.2912H31.353C30.9205 34.9828 30.1808 33.9301 29.1325 33.1318C28.0856 32.3349 26.912 31.9357 25.6131 31.9357C23.8252 31.9357 22.3835 32.539 21.2881 33.7454C20.19 34.9518 19.6429 36.5367 19.6429 38.4987C19.6429 40.4491 20.1953 42.0275 21.2975 43.234C22.4023 44.4404 23.8387 45.0423 25.6131 45.0423C26.9956 45.0423 28.2095 44.6031 29.2565 43.7248ZM65.9859 35.6648C67.9949 37.5119 69 39.9015 69 42.8297C69 46.1777 67.844 48.8772 65.5305 50.9258C63.2157 52.9757 60.168 54 56.3818 54C52.6415 54 49.6005 52.9718 47.2574 50.9155C44.913 48.8579 43.7421 46.1932 43.7421 42.9162C43.7421 41.1272 44.0641 39.3267 44.7068 37.5157C45.3495 35.7048 46.3439 33.7234 47.6899 31.5741L52.4461 23.992L62.4976 23.9907L56.8696 32.9368C57.4314 32.9084 57.8747 32.8942 58.2008 32.8942C61.3792 32.8942 63.9743 33.8177 65.9859 35.6648ZM59.1992 45.5783C59.9227 44.8718 60.2852 43.956 60.2852 42.8297C60.2852 41.7046 59.9227 40.7811 59.1992 40.059C58.4743 39.337 57.5352 38.9766 56.3832 38.9766C55.2298 38.9766 54.2893 39.3383 53.5672 40.059C52.8409 40.7811 52.4798 41.7046 52.4798 42.8297C52.4798 43.956 52.8409 44.8718 53.5658 45.5783C54.2893 46.2862 55.2298 46.6401 56.3818 46.6401C57.5352 46.6401 58.4756 46.2862 59.1992 45.5783Z" fill="white"/>
</svg>
